<!DOCTYPE svg PUBLIC "-//W3C//DTD SVG 1.1//EN"
"http://www.w3.org/Graphics/SVG/1.1/DTD/svg11.dtd">
<svg xmlns="http://www.w3.org/2000/svg" xmlns:xlink="http://www.w3.org/1999/xlink" width="29.7002cm" height="21.0007cm" viewBox="0 0 11693 8268" font-family="Verdana, sans-serif" style="stroke-opacity:1.000000;fill-opacity:1.000000;"><rect fill="#FFFFFF" width="11693" height="8268" style="stroke-opacity:1.0;fill-opacity:1.0;"></rect><text x="5350" y="2900" font-size="50.000000" text-anchor="start" transform="rotate(0 5350 2900)" fill="#FF0000">VCC</text><text x="5150" y="3000" font-size="50.000000" text-anchor="start" transform="rotate(0 5150 3000)" fill="#FF0000">GND</text><polyline points="5300, 2900 5400, 2900" stroke-width="10px" stroke="#800000"></polyline><polyline points="5300, 3000 5300, 2900" stroke-width="10px" stroke="#800000"></polyline><polyline points="5200, 3000 5300, 3000" stroke-width="10px" stroke="#800000"></polyline><text x="5200" y="3100" font-size="50.000000" text-anchor="start" transform="rotate(0 5200 3100)" fill="#FF0000">IN</text><polyline points="5200, 3100 5350, 3100" stroke-width="10px" stroke="#800000"></polyline><polyline points="5650, 3300 5650, 3400" stroke-width="10px" stroke="#800000"></polyline><polyline points="5650, 2800 5650, 2900" stroke-width="10px" stroke="#800000"></polyline><polyline points="5650, 2400 5650, 2500" stroke-width="10px" stroke="#800000"></polyline><text x="5720" y="2650" font-size="50.000000" text-anchor="start" transform="rotate(0 5720 2650)" fill="#000000">LOAD</text><polyline points="5650, 2750 5650, 2800" stroke-width="10px" stroke="#000000"></polyline><polyline points="5650, 2550 5650, 2500" stroke-width="10px" stroke="#000000"></polyline><polyline points="5690, 2750 5610, 2750" stroke-width="10px" stroke="#000000"></polyline><polyline points="5690, 2550 5690, 2750" stroke-width="10px" stroke="#000000"></polyline><polyline points="5610, 2550 5690, 2550" stroke-width="10px" stroke="#000000"></polyline><polyline points="5610, 2750 5610, 2550" stroke-width="10px" stroke="#000000"></polyline><text x="5655" y="3573" font-size="50.000000" text-anchor="middle" transform="rotate(0 5655 3573)" fill="#000000">GND</text><polyline points="5600, 3450 5650, 3450" stroke-width="10px" stroke="#000000"></polyline><polyline points="5650, 3500 5600, 3450" stroke-width="10px" stroke="#000000"></polyline><polyline points="5700, 3450 5650, 3500" stroke-width="10px" stroke="#000000"></polyline><polyline points="5650, 3450 5700, 3450" stroke-width="10px" stroke="#000000"></polyline><polyline points="5650, 3400 5650, 3450" stroke-width="10px" stroke="#000000"></polyline><text x="5667" y="2227" font-size="50.000000" text-anchor="middle" transform="rotate(0 5667 2227)" fill="#000000">VCC</text><polyline points="5650, 2400 5650, 2350" stroke-width="10px" stroke="#000000"></polyline><circle r="25" cx="5650" cy="2325" fill="none" stroke-width="10px" stroke="#000000"></circle><text x="5756" y="3100" font-size="50.000000" text-anchor="start" transform="rotate(0 5756 3100)" fill="#000000">Q1</text><text x="5650" y="3300" font-size="50.000000" text-anchor="start" transform="rotate(-90 5650 3300)" fill="#000000">3</text><polyline points="5650, 3200 5650, 3300" stroke-width="10px" stroke="#000000"></polyline><text x="5350" y="3100" font-size="50.000000" text-anchor="start" transform="rotate(0 5350 3100)" fill="#000000">2</text><polyline points="5550, 3100 5350, 3100" stroke-width="10px" stroke="#000000"></polyline><text x="5650" y="2900" font-size="50.000000" text-anchor="end" transform="rotate(-90 5650 2900)" fill="#000000">1</text><polyline points="5650, 3000 5650, 2900" stroke-width="10px" stroke="#000000"></polyline><polyline points="5695, 3110 5680, 3085" stroke-width="10px" stroke="#000000"></polyline><polyline points="5665, 3110 5695, 3110" stroke-width="10px" stroke="#000000"></polyline><polyline points="5680, 3085 5665, 3110" stroke-width="10px" stroke="#000000"></polyline><polyline points="5695, 3085 5700, 3090" stroke-width="10px" stroke="#000000"></polyline><polyline points="5665, 3085 5695, 3085" stroke-width="10px" stroke="#000000"></polyline><polyline points="5660, 3080 5665, 3085" stroke-width="10px" stroke="#000000"></polyline><polyline points="5680, 3030 5650, 3030" stroke-width="10px" stroke="#000000"></polyline><polyline points="5680, 3170 5680, 3030" stroke-width="10px" stroke="#000000"></polyline><polyline points="5650, 3170 5680, 3170" stroke-width="10px" stroke="#000000"></polyline><polyline points="5630, 3115 5590, 3100" stroke-width="10px" stroke="#000000"></polyline><polyline points="5630, 3085 5630, 3115" stroke-width="10px" stroke="#000000"></polyline><polyline points="5590, 3100 5630, 3085" stroke-width="10px" stroke="#000000"></polyline><polyline points="5590, 3100 5590, 3100" stroke-width="10px" stroke="#000000"></polyline><polyline points="5560, 3175 5560, 3175" stroke-width="10px" stroke="#000000"></polyline><polyline points="5560, 3025 5560, 3175" stroke-width="10px" stroke="#000000"></polyline><polyline points="5650, 3000 5650, 3030" stroke-width="10px" stroke="#000000"></polyline><polyline points="5650, 3170 5650, 3100" stroke-width="10px" stroke="#000000"></polyline><polyline points="5650, 3170 5650, 3200" stroke-width="10px" stroke="#000000"></polyline><polyline points="5580, 3010 5580, 3050" stroke-width="10px" stroke="#000000"></polyline><polyline points="5580, 3030 5650, 3030" stroke-width="10px" stroke="#000000"></polyline><polyline points="5580, 3080 5580, 3120" stroke-width="10px" stroke="#000000"></polyline><polyline points="5580, 3100 5650, 3100" stroke-width="10px" stroke="#000000"></polyline><polyline points="5580, 3150 5580, 3190" stroke-width="10px" stroke="#000000"></polyline><polyline points="5580, 3170 5650, 3170" stroke-width="10px" stroke="#000000"></polyline><polyline points="5552, 3100 5560, 3100" stroke-width="10px" stroke="#000000"></polyline><circle r="11" cx="5650" cy="3030" fill="none" stroke-width="10px" stroke="#000000"></circle><circle r="11" cx="5650" cy="3170" fill="none" stroke-width="10px" stroke="#000000"></circle><circle r="111" cx="5615" cy="3100" fill="none" stroke-width="10px" stroke="#000000"></circle><text x="7693" y="7968" font-size="50.000000" text-anchor="start" transform="rotate(0 7693 7968)" fill="#000000">Page: 1 1</text><rect x="7593" y="7618" width="4000" height="400" fill="none" stroke-width="5px" stroke="#000000"></rect><rect x="7593" y="7918" width="4000" height="100" fill="none" stroke-width="5px" stroke="#000000"></rect><rect x="7593" y="8018" width="4000" height="150" fill="none" stroke-width="5px" stroke="#000000"></rect><rect x="100" y="100" width="11493" height="8068" fill="none" stroke-width="5px" stroke="#000000"></rect></svg>