<!DOCTYPE svg PUBLIC "-//W3C//DTD SVG 1.1//EN"
"http://www.w3.org/Graphics/SVG/1.1/DTD/svg11.dtd">
<svg xmlns="http://www.w3.org/2000/svg" xmlns:xlink="http://www.w3.org/1999/xlink" width="29.7002cm" height="21.0007cm" viewBox="0 0 11693 8268" font-family="Verdana, sans-serif" style="stroke-opacity:1.000000;fill-opacity:1.000000;"><rect fill="#FFFFFF" width="11693" height="8268" style="stroke-opacity:1.0;fill-opacity:1.0;"></rect><text x="6050" y="3400" font-size="50.000000" text-anchor="start" transform="rotate(0 6050 3400)" fill="#FF0000">VOUT</text><polyline points="4750, 4150 4750, 4200" stroke-width="10px" stroke="#800000"></polyline><text x="4450" y="3400" font-size="50.000000" text-anchor="start" transform="rotate(0 4450 3400)" fill="#FF0000">VIN</text><polyline points="5700, 3800 5600, 3800" stroke-width="10px" stroke="#800000"></polyline><polyline points="6000, 3400 6150, 3400" stroke-width="10px" stroke="#800000"></polyline><circle r="10" cx="6000" cy="3400" fill="#000000" stroke-width="10px" stroke="#000000"></circle><polyline points="6000, 3800 6000, 3400" stroke-width="10px" stroke="#800000"></polyline><polyline points="5850, 3400 6000, 3400" stroke-width="10px" stroke="#800000"></polyline><polyline points="5350, 3400 5550, 3400" stroke-width="10px" stroke="#800000"></polyline><polyline points="5150, 3800 5300, 3800" stroke-width="10px" stroke="#800000"></polyline><circle r="10" cx="5150" cy="3800" fill="#000000" stroke-width="10px" stroke="#000000"></circle><polyline points="5150, 3700 5150, 3800" stroke-width="10px" stroke="#800000"></polyline><polyline points="4750, 3800 4750, 3850" stroke-width="10px" stroke="#800000"></polyline><circle r="10" cx="4750" cy="3800" fill="#000000" stroke-width="10px" stroke="#000000"></circle><polyline points="4750, 3800 5150, 3800" stroke-width="10px" stroke="#800000"></polyline><polyline points="4750, 3750 4750, 3800" stroke-width="10px" stroke="#800000"></polyline><polyline points="4750, 3400 4400, 3400" stroke-width="10px" stroke="#800000"></polyline><circle r="10" cx="4750" cy="3400" fill="#000000" stroke-width="10px" stroke="#000000"></circle><polyline points="4750, 3450 4750, 3400" stroke-width="10px" stroke="#800000"></polyline><polyline points="4950, 3400 4750, 3400" stroke-width="10px" stroke="#800000"></polyline><text x="5650" y="3300" font-size="50.000000" text-anchor="start" transform="rotate(0 5650 3300)" fill="#000000">R2</text><polyline points="5600, 3400 5550, 3400" stroke-width="10px" stroke="#000000"></polyline><polyline points="5800, 3400 5850, 3400" stroke-width="10px" stroke="#000000"></polyline><polyline points="5600, 3440 5600, 3360" stroke-width="10px" stroke="#000000"></polyline><polyline points="5800, 3440 5600, 3440" stroke-width="10px" stroke="#000000"></polyline><polyline points="5800, 3360 5800, 3440" stroke-width="10px" stroke="#000000"></polyline><polyline points="5600, 3360 5800, 3360" stroke-width="10px" stroke="#000000"></polyline><text x="4829" y="3954" font-size="50.000000" text-anchor="start" transform="rotate(0 4829 3954)" fill="#000000">D1</text><text x="4829" y="4045" font-size="50.000000" text-anchor="start" transform="rotate(0 4829 4045)" fill="#000000">D_Zener</text><polyline points="4750, 4050 4750, 4150" stroke-width="10px" stroke="#000000"></polyline><polyline points="4750, 3950 4750, 3850" stroke-width="10px" stroke="#000000"></polyline><polyline points="4750, 3950 4700, 4050" stroke-width="10px" stroke="#000000"></polyline><polyline points="4800, 4050 4750, 3950" stroke-width="10px" stroke="#000000"></polyline><polyline points="4700, 4050 4800, 4050" stroke-width="10px" stroke="#000000"></polyline><polyline points="4800, 3950 4800, 3970" stroke-width="10px" stroke="#000000"></polyline><polyline points="4700, 3950 4800, 3950" stroke-width="10px" stroke="#000000"></polyline><polyline points="4750, 4050 4750, 3950" stroke-width="10px" stroke="#000000"></polyline><text x="5850" y="3676" font-size="50.000000" text-anchor="middle" transform="rotate(0 5850 3676)" fill="#000000">D3</text><polyline points="5800, 3800 5700, 3800" stroke-width="10px" stroke="#000000"></polyline><polyline points="5900, 3800 6000, 3800" stroke-width="10px" stroke="#000000"></polyline><polyline points="5900, 3800 5800, 3850" stroke-width="10px" stroke="#000000"></polyline><polyline points="5800, 3750 5900, 3800" stroke-width="10px" stroke="#000000"></polyline><polyline points="5800, 3850 5800, 3750" stroke-width="10px" stroke="#000000"></polyline><polyline points="5800, 3800 5900, 3800" stroke-width="10px" stroke="#000000"></polyline><polyline points="5900, 3850 5900, 3750" stroke-width="10px" stroke="#000000"></polyline><text x="5450" y="3676" font-size="50.000000" text-anchor="middle" transform="rotate(0 5450 3676)" fill="#000000">D2</text><polyline points="5400, 3800 5300, 3800" stroke-width="10px" stroke="#000000"></polyline><polyline points="5500, 3800 5600, 3800" stroke-width="10px" stroke="#000000"></polyline><polyline points="5500, 3800 5400, 3850" stroke-width="10px" stroke="#000000"></polyline><polyline points="5400, 3750 5500, 3800" stroke-width="10px" stroke="#000000"></polyline><polyline points="5400, 3850 5400, 3750" stroke-width="10px" stroke="#000000"></polyline><polyline points="5400, 3800 5500, 3800" stroke-width="10px" stroke="#000000"></polyline><polyline points="5500, 3850 5500, 3750" stroke-width="10px" stroke="#000000"></polyline><text x="5150" y="3310" font-size="50.000000" text-anchor="start" transform="rotate(-90 5150 3310)" fill="#000000">Q1</text><text x="5350" y="3400" font-size="50.000000" text-anchor="end" transform="rotate(0 5350 3400)" fill="#000000">3</text><polyline points="5250, 3400 5350, 3400" stroke-width="10px" stroke="#000000"></polyline><text x="4950" y="3400" font-size="50.000000" text-anchor="start" transform="rotate(0 4950 3400)" fill="#000000">2</text><polyline points="5050, 3400 4950, 3400" stroke-width="10px" stroke="#000000"></polyline><text x="5150" y="3700" font-size="50.000000" text-anchor="start" transform="rotate(-90 5150 3700)" fill="#000000">1</text><polyline points="5150, 3475 5150, 3700" stroke-width="10px" stroke="#000000"></polyline><polyline points="5220, 3450 5220, 3450" stroke-width="10px" stroke="#000000"></polyline><polyline points="5240, 3410 5220, 3450" stroke-width="10px" stroke="#000000"></polyline><polyline points="5200, 3430 5240, 3410" stroke-width="10px" stroke="#000000"></polyline><polyline points="5220, 3450 5200, 3430" stroke-width="10px" stroke="#000000"></polyline><polyline points="5220, 3450 5220, 3450" stroke-width="10px" stroke="#000000"></polyline><polyline points="5225, 3475 5225, 3475" stroke-width="10px" stroke="#000000"></polyline><polyline points="5075, 3475 5225, 3475" stroke-width="10px" stroke="#000000"></polyline><polyline points="5250, 3400 5250, 3400" stroke-width="10px" stroke="#000000"></polyline><polyline points="5175, 3475 5250, 3400" stroke-width="10px" stroke="#000000"></polyline><polyline points="5125, 3475 5050, 3400" stroke-width="10px" stroke="#000000"></polyline><circle r="111" cx="5150" cy="3450" fill="none" stroke-width="10px" stroke="#000000"></circle><text x="4755" y="4373" font-size="50.000000" text-anchor="middle" transform="rotate(0 4755 4373)" fill="#000000">GND</text><polyline points="4700, 4250 4750, 4250" stroke-width="10px" stroke="#000000"></polyline><polyline points="4750, 4300 4700, 4250" stroke-width="10px" stroke="#000000"></polyline><polyline points="4800, 4250 4750, 4300" stroke-width="10px" stroke="#000000"></polyline><polyline points="4750, 4250 4800, 4250" stroke-width="10px" stroke="#000000"></polyline><polyline points="4750, 4200 4750, 4250" stroke-width="10px" stroke="#000000"></polyline><text x="4820" y="3600" font-size="50.000000" text-anchor="start" transform="rotate(0 4820 3600)" fill="#000000">R1</text><polyline points="4750, 3700 4750, 3750" stroke-width="10px" stroke="#000000"></polyline><polyline points="4750, 3500 4750, 3450" stroke-width="10px" stroke="#000000"></polyline><polyline points="4790, 3700 4710, 3700" stroke-width="10px" stroke="#000000"></polyline><polyline points="4790, 3500 4790, 3700" stroke-width="10px" stroke="#000000"></polyline><polyline points="4710, 3500 4790, 3500" stroke-width="10px" stroke="#000000"></polyline><polyline points="4710, 3700 4710, 3500" stroke-width="10px" stroke="#000000"></polyline><text x="7693" y="7968" font-size="50.000000" text-anchor="start" transform="rotate(0 7693 7968)" fill="#000000">Page: 1 1</text><rect x="7593" y="7618" width="4000" height="400" fill="none" stroke-width="5px" stroke="#000000"></rect><rect x="7593" y="7918" width="4000" height="100" fill="none" stroke-width="5px" stroke="#000000"></rect><rect x="7593" y="8018" width="4000" height="150" fill="none" stroke-width="5px" stroke="#000000"></rect><rect x="100" y="100" width="11493" height="8068" fill="none" stroke-width="5px" stroke="#000000"></rect></svg>