<!DOCTYPE svg PUBLIC "-//W3C//DTD SVG 1.1//EN"
"http://www.w3.org/Graphics/SVG/1.1/DTD/svg11.dtd">
<svg xmlns="http://www.w3.org/2000/svg" xmlns:xlink="http://www.w3.org/1999/xlink" width="29.7002cm" height="21.0007cm" viewBox="0 0 11693 8268" font-family="Verdana, sans-serif" style="stroke-opacity:1.000000;fill-opacity:1.000000;"><rect fill="#FFFFFF" width="11693" height="8268" style="stroke-opacity:1.0;fill-opacity:1.0;"></rect><text x="4700" y="2550" font-size="50.000000" text-anchor="start" transform="rotate(0 4700 2550)" fill="#FF0000">VOUT_AC</text><text x="2450" y="2550" font-size="50.000000" text-anchor="start" transform="rotate(0 2450 2550)" fill="#FF0000">Vin_AC</text><polyline points="2650, 2550 2450, 2550" stroke-width="10px" stroke="#800000"></polyline><circle r="10" cx="4600" cy="2550" fill="#000000" stroke-width="10px" stroke="#000000"></circle><polyline points="4600, 2550 4850, 2550" stroke-width="10px" stroke="#800000"></polyline><polyline points="4600, 2550 4600, 2650" stroke-width="10px" stroke="#800000"></polyline><polyline points="4400, 2550 4600, 2550" stroke-width="10px" stroke="#800000"></polyline><circle r="10" cx="3800" cy="2950" fill="#000000" stroke-width="10px" stroke="#000000"></circle><polyline points="4600, 2950 3800, 2950" stroke-width="10px" stroke="#800000"></polyline><polyline points="3800, 2950 3800, 3000" stroke-width="10px" stroke="#800000"></polyline><polyline points="3100, 2950 3800, 2950" stroke-width="10px" stroke="#800000"></polyline><polyline points="3200, 2550 3250, 2550" stroke-width="10px" stroke="#800000"></polyline><circle r="10" cx="3200" cy="2550" fill="#000000" stroke-width="10px" stroke="#000000"></circle><polyline points="3200, 2000 3200, 2550" stroke-width="10px" stroke="#800000"></polyline><polyline points="3400, 2000 3200, 2000" stroke-width="10px" stroke="#800000"></polyline><polyline points="3950, 2550 4100, 2550" stroke-width="10px" stroke="#800000"></polyline><circle r="10" cx="3950" cy="2550" fill="#000000" stroke-width="10px" stroke="#000000"></circle><polyline points="3950, 2000 3950, 2550" stroke-width="10px" stroke="#800000"></polyline><polyline points="3700, 2000 3950, 2000" stroke-width="10px" stroke="#800000"></polyline><polyline points="3850, 2550 3950, 2550" stroke-width="10px" stroke="#800000"></polyline><polyline points="3100, 2550 3200, 2550" stroke-width="10px" stroke="#800000"></polyline><circle r="10" cx="3100" cy="2550" fill="#000000" stroke-width="10px" stroke="#000000"></circle><polyline points="3100, 2650 3100, 2550" stroke-width="10px" stroke="#800000"></polyline><polyline points="2950, 2550 3100, 2550" stroke-width="10px" stroke="#800000"></polyline><text x="3805" y="3173" font-size="50.000000" text-anchor="middle" transform="rotate(0 3805 3173)" fill="#000000">GND</text><polyline points="3750, 3050 3800, 3050" stroke-width="10px" stroke="#000000"></polyline><polyline points="3800, 3100 3750, 3050" stroke-width="10px" stroke="#000000"></polyline><polyline points="3850, 3050 3800, 3100" stroke-width="10px" stroke="#000000"></polyline><polyline points="3800, 3050 3850, 3050" stroke-width="10px" stroke="#000000"></polyline><polyline points="3800, 3000 3800, 3050" stroke-width="10px" stroke="#000000"></polyline><text x="4250" y="2435" font-size="50.000000" text-anchor="middle" transform="rotate(0 4250 2435)" fill="#000000">R2</text><polyline points="4150, 2550 4100, 2550" stroke-width="10px" stroke="#000000"></polyline><polyline points="4350, 2550 4400, 2550" stroke-width="10px" stroke="#000000"></polyline><polyline points="4150, 2590 4150, 2510" stroke-width="10px" stroke="#000000"></polyline><polyline points="4350, 2590 4150, 2590" stroke-width="10px" stroke="#000000"></polyline><polyline points="4350, 2510 4350, 2590" stroke-width="10px" stroke="#000000"></polyline><polyline points="4150, 2510 4350, 2510" stroke-width="10px" stroke="#000000"></polyline><text x="3550" y="1793" font-size="50.000000" text-anchor="middle" transform="rotate(0 3550 1793)" fill="#000000">R1_OSC</text><text x="3550" y="1884" font-size="50.000000" text-anchor="middle" transform="rotate(0 3550 1884)" fill="#000000">R</text><polyline points="3450, 2000 3400, 2000" stroke-width="10px" stroke="#000000"></polyline><polyline points="3650, 2000 3700, 2000" stroke-width="10px" stroke="#000000"></polyline><polyline points="3450, 2040 3450, 1960" stroke-width="10px" stroke="#000000"></polyline><polyline points="3650, 2040 3450, 2040" stroke-width="10px" stroke="#000000"></polyline><polyline points="3650, 1960 3650, 2040" stroke-width="10px" stroke="#000000"></polyline><polyline points="3450, 1960 3650, 1960" stroke-width="10px" stroke="#000000"></polyline><text x="4715" y="2800" font-size="50.000000" text-anchor="start" transform="rotate(0 4715 2800)" fill="#000000">C3</text><polyline points="4600, 2840 4600, 2950" stroke-width="10px" stroke="#000000"></polyline><polyline points="4600, 2760 4600, 2650" stroke-width="10px" stroke="#000000"></polyline><polyline points="4520, 2770 4680, 2770" stroke-width="10px" stroke="#000000"></polyline><polyline points="4520, 2830 4680, 2830" stroke-width="10px" stroke="#000000"></polyline><text x="3215" y="2800" font-size="50.000000" text-anchor="start" transform="rotate(0 3215 2800)" fill="#000000">C2_stray</text><polyline points="3100, 2760 3100, 2650" stroke-width="10px" stroke="#000000"></polyline><polyline points="3100, 2840 3100, 2950" stroke-width="10px" stroke="#000000"></polyline><polyline points="3180, 2830 3020, 2830" stroke-width="10px" stroke="#000000"></polyline><polyline points="3180, 2770 3020, 2770" stroke-width="10px" stroke="#000000"></polyline><text x="2800" y="2390" font-size="50.000000" text-anchor="middle" transform="rotate(0 2800 2390)" fill="#000000">C1_In</text><polyline points="2760, 2550 2650, 2550" stroke-width="10px" stroke="#000000"></polyline><polyline points="2840, 2550 2950, 2550" stroke-width="10px" stroke="#000000"></polyline><polyline points="2830, 2470 2830, 2630" stroke-width="10px" stroke="#000000"></polyline><polyline points="2770, 2470 2770, 2630" stroke-width="10px" stroke="#000000"></polyline><text x="3550" y="2233" font-size="50.000000" text-anchor="middle" transform="rotate(0 3550 2233)" fill="#000000">U1A</text><text x="3550" y="2324" font-size="50.000000" text-anchor="middle" transform="rotate(0 3550 2324)" fill="#000000">74HC14</text><text x="3850" y="2550" font-size="50.000000" text-anchor="end" transform="rotate(0 3850 2550)" fill="#000000">2</text><polyline points="3700, 2550 3850, 2550" stroke-width="10px" stroke="#000000"></polyline><text x="3250" y="2550" font-size="50.000000" text-anchor="start" transform="rotate(0 3250 2550)" fill="#000000">1</text><polyline points="3400, 2550 3250, 2550" stroke-width="10px" stroke="#000000"></polyline><polyline points="3525, 2500 3550, 2500" stroke-width="10px" stroke="#000000"></polyline><polyline points="3525, 2600 3525, 2500" stroke-width="10px" stroke="#000000"></polyline><polyline points="3450, 2600 3525, 2600" stroke-width="10px" stroke="#000000"></polyline><polyline points="3475, 2500 3525, 2500" stroke-width="10px" stroke="#000000"></polyline><polyline points="3475, 2600 3475, 2500" stroke-width="10px" stroke="#000000"></polyline><polyline points="3700, 2550 3400, 2400" stroke-width="10px" stroke="#000000"></polyline><polyline points="3400, 2700 3700, 2550" stroke-width="10px" stroke="#000000"></polyline><polyline points="3400, 2400 3400, 2700" stroke-width="10px" stroke="#000000"></polyline><text x="7693" y="7968" font-size="50.000000" text-anchor="start" transform="rotate(0 7693 7968)" fill="#000000">Page: 1 1</text><rect x="7593" y="7618" width="4000" height="400" fill="none" stroke-width="5px" stroke="#000000"></rect><rect x="7593" y="7918" width="4000" height="100" fill="none" stroke-width="5px" stroke="#000000"></rect><rect x="7593" y="8018" width="4000" height="150" fill="none" stroke-width="5px" stroke="#000000"></rect><rect x="100" y="100" width="11493" height="8068" fill="none" stroke-width="5px" stroke="#000000"></rect></svg>