<?xml version="1.0" encoding="UTF-8" standalone="no"?>
<!-- Created with Inkscape (http://www.inkscape.org/) -->

<svg
   xmlns:dc="http://purl.org/dc/elements/1.1/"
   xmlns:cc="http://creativecommons.org/ns#"
   xmlns:rdf="http://www.w3.org/1999/02/22-rdf-syntax-ns#"
   xmlns:svg="http://www.w3.org/2000/svg"
   xmlns="http://www.w3.org/2000/svg"
   xmlns:sodipodi="http://sodipodi.sourceforge.net/DTD/sodipodi-0.dtd"
   xmlns:inkscape="http://www.inkscape.org/namespaces/inkscape"
   width="292.67328mm"
   height="113.44785mm"
   viewBox="0 0 292.67328 113.44785"
   version="1.1"
   id="svg843"
   inkscape:version="0.92.3 (2405546, 2018-03-11)"
   sodipodi:docname="solenoid_valves.svg">
  <defs
     id="defs837">
    <marker
       inkscape:stockid="Arrow1Lend"
       orient="auto"
       refY="0"
       refX="0"
       id="Arrow1Lend"
       style="overflow:visible"
       inkscape:isstock="true">
      <path
         id="path5339"
         d="M 0,0 5,-5 -12.5,0 5,5 Z"
         style="fill:#000000;fill-opacity:1;fill-rule:evenodd;stroke:#000000;stroke-width:1.00000003pt;stroke-opacity:1"
         transform="matrix(-0.8,0,0,-0.8,-10,0)"
         inkscape:connector-curvature="0" />
    </marker>
    <marker
       inkscape:stockid="Arrow1Lstart"
       orient="auto"
       refY="0"
       refX="0"
       id="Arrow1Lstart"
       style="overflow:visible"
       inkscape:isstock="true">
      <path
         id="path5336"
         d="M 0,0 5,-5 -12.5,0 5,5 Z"
         style="fill:#000000;fill-opacity:1;fill-rule:evenodd;stroke:#000000;stroke-width:1.00000003pt;stroke-opacity:1"
         transform="matrix(0.8,0,0,0.8,10,0)"
         inkscape:connector-curvature="0" />
    </marker>
    <marker
       inkscape:stockid="Arrow2Lstart"
       orient="auto"
       refY="0"
       refX="0"
       id="Arrow2Lstart"
       style="overflow:visible"
       inkscape:isstock="true">
      <path
         id="path5354"
         style="fill:#000000;fill-opacity:1;fill-rule:evenodd;stroke:#000000;stroke-width:0.625;stroke-linejoin:round;stroke-opacity:1"
         d="M 8.7185878,4.0337352 -2.2072895,0.01601326 8.7185884,-4.0017078 c -1.7454984,2.3720609 -1.7354408,5.6174519 -6e-7,8.035443 z"
         transform="matrix(1.1,0,0,1.1,1.1,0)"
         inkscape:connector-curvature="0" />
    </marker>
  </defs>
  <sodipodi:namedview
     id="base"
     pagecolor="#ffffff"
     bordercolor="#666666"
     borderopacity="1.0"
     inkscape:pageopacity="0.0"
     inkscape:pageshadow="2"
     inkscape:zoom="0.59"
     inkscape:cx="533.32135"
     inkscape:cy="351.83688"
     inkscape:document-units="mm"
     inkscape:current-layer="layer1"
     showgrid="false"
     inkscape:window-width="1600"
     inkscape:window-height="837"
     inkscape:window-x="-8"
     inkscape:window-y="-8"
     inkscape:window-maximized="1"
     fit-margin-top="0"
     fit-margin-left="0"
     fit-margin-right="0"
     fit-margin-bottom="0" />
  <metadata
     id="metadata840">
    <rdf:RDF>
      <cc:Work
         rdf:about="">
        <dc:format>image/svg+xml</dc:format>
        <dc:type
           rdf:resource="http://purl.org/dc/dcmitype/StillImage" />
        <dc:title></dc:title>
      </cc:Work>
    </rdf:RDF>
  </metadata>
  <g
     inkscape:label="Layer 1"
     inkscape:groupmode="layer"
     id="layer1"
     transform="translate(-2.6480679,-97.019735)">
    <path
       d="m 81.642383,143.80954 v -2.73229 c 10.98068,0 19.883817,-1.0453 19.883817,-2.33459 0,-1.28998 -8.903137,-2.33527 -19.883817,-2.33527 -6.279663,0 -15.526082,0.29535 -15.526082,0.87641 0,0.65723 9.31686,0.90125 15.693282,0.90125 10.98371,0 19.884017,-1.04531 19.884017,-2.33493 0,-1.28964 -8.900307,-2.33494 -19.884017,-2.33494 -6.279566,0 -15.525986,0.30604 -15.525986,0.87642 0,0.6269 9.31676,0.90123 15.696216,0.90123 10.98088,0 19.884017,-1.04529 19.884017,-2.33493 0,-1.28965 -8.903137,-2.33528 -19.884017,-2.33528 -6.2825,0 -15.526085,0.29534 -15.526085,0.87641 0,0.65723 9.058645,0.8995 15.666975,0.8995 10.93099,0 19.884107,-1.04561 19.884107,-2.33525 0,-1.28964 -8.903437,-2.3346 -19.884107,-2.3346 -6.379448,0 -15.693273,0.24401 -15.693273,0.9009 0,0.58139 9.243468,0.8764 15.526083,0.8764 10.98078,0 19.883917,-1.04528 19.883917,-2.33494 0,-1.28963 -8.903137,-2.33492 -19.883917,-2.33492 -6.379454,0 -15.693396,0.274 -15.693396,0.90123 0,0.57037 9.243501,0.87641 15.526086,0.87641 10.98066,0 19.880997,-1.04527 19.880997,-2.33527 0,-1.28895 -8.900337,-2.33458 -19.880997,-2.33458 -6.379457,0 -15.696318,0.244 -15.696318,0.90088 0,0.58175 4.43697,0.88297 15.5262,0.88297 11.089308,0 19.883915,-1.0453 19.883915,-2.33493 0,-1.28964 -8.903337,-2.33527 -19.883915,-2.33527 -6.282698,0 -15.5262,0.29535 -15.5262,0.87641 0,0.65722 9.316861,0.90123 15.696318,0.90123 10.98066,0 19.880997,-1.0453 19.880997,-2.33493 0,-1.28965 -8.900337,-2.33528 -19.880997,-2.33528 -6.282585,0 -15.526086,0.30604 -15.526086,0.87642 0,0.62758 9.313942,0.90157 15.693396,0.90157 10.98078,0 19.883917,-1.04564 19.883917,-2.33527 0,-1.28965 -8.903137,-2.33493 -19.883917,-2.33493 -6.282615,0 -15.526083,0.29533 -15.526083,0.87605 0,0.65757 9.313825,0.90157 15.693273,0.90157 10.98067,0 19.884107,-1.04529 19.884107,-2.33526 0,-1.28964 -8.903437,-2.33495 -20.400515,-2.39593 v -3.26615"
       id="svg_18-4"
       stroke-miterlimit="2"
       inkscape:connector-curvature="0"
       style="fill:none;stroke:#b87333;stroke-width:0.63455284;stroke-miterlimit:2;stroke-opacity:1" />
    <rect
       style="fill:none;fill-opacity:1;fill-rule:evenodd;stroke:#808080;stroke-width:3.00000024;stroke-miterlimit:4;stroke-dasharray:none;stroke-opacity:1"
       id="rect5111-8-5-9"
       width="10.185386"
       height="50.02169"
       x="76.789421"
       y="98.657791" />
    <path
       inkscape:connector-curvature="0"
       style="fill:none;fill-rule:evenodd;stroke:#808080;stroke-width:3;stroke-miterlimit:4;stroke-dasharray:none;stroke-opacity:1"
       d="m 95.888573,148.7088 14.112317,14.11232 h 49.95871 v 16.99999 H 102.95997 L 83.868113,160.72925 V 148.7088 Z"
       id="rect5111-8" />
    <path
       style="fill:#0000ff;fill-rule:evenodd;stroke:#808080;stroke-width:3;stroke-miterlimit:4;stroke-dasharray:none;stroke-opacity:1"
       d="M 68.219091,148.70879 54.106774,162.82111 H 4.1480679 V 179.8211 H 61.147689 l 19.091859,-19.09185 v -12.02046 z"
       id="rect5111"
       inkscape:connector-curvature="0" />
    <rect
       style="fill:#808080;fill-opacity:1;fill-rule:evenodd;stroke:none;stroke-width:3;stroke-miterlimit:4;stroke-dasharray:none;stroke-opacity:1"
       id="rect5111-8-5"
       width="7"
       height="21.833454"
       x="78.410538"
       y="156.49597" />
    <rect
       style="fill:#000000;fill-opacity:1;fill-rule:evenodd;stroke:none;stroke-width:3.00000024;stroke-miterlimit:4;stroke-dasharray:none;stroke-opacity:1"
       id="rect5111-8-5-7"
       width="7"
       height="26.477148"
       x="78.352203"
       y="130.13974" />
    <path
       d="m 81.642383,132.68987 v -2.64323 c 1.08954,0 1.97294,-1.01122 1.97294,-2.25849 0,-1.24792 -0.8834,-2.25914 -1.97294,-2.25914 -0.623094,0 -1.540549,0.28572 -1.540549,0.84784 0,0.63581 0.924443,0.87188 1.557139,0.87188 1.08984,0 1.97296,-1.01124 1.97296,-2.25882 0,-1.24761 -0.88312,-2.25882 -1.97296,-2.25882 -0.623086,0 -1.54054,0.29605 -1.54054,0.84785 0,0.60646 0.924441,0.87184 1.55743,0.87184 1.08956,0 1.97296,-1.01121 1.97296,-2.25881 0,-1.24761 -0.8834,-2.25916 -1.97296,-2.25916 -0.623376,0 -1.540549,0.28571 -1.540549,0.84785 0,0.6358 0.898825,0.87017 1.554529,0.87017 1.08461,0 1.97297,-1.01152 1.97297,-2.25912 0,-1.2476 -0.88343,-2.2585 -1.97297,-2.2585 -0.632992,0 -1.557145,0.23606 -1.557145,0.87154 0,0.56243 0.917169,0.84783 1.540555,0.84783 1.08955,0 1.97295,-1.01121 1.97295,-2.25883 0,-1.24759 -0.8834,-2.2588 -1.97295,-2.2588 -0.632994,0 -1.557156,0.26506 -1.557156,0.87184 0,0.55178 0.917173,0.84785 1.540556,0.84785 1.08954,0 1.97266,-1.0112 1.97266,-2.25914 0,-1.24694 -0.88312,-2.25848 -1.97266,-2.25848 -0.632992,0 -1.55744,0.23604 -1.55744,0.87151 0,0.56278 0.440243,0.85418 1.54056,0.85418 1.10032,0 1.97295,-1.01122 1.97295,-2.25881 0,-1.2476 -0.88342,-2.25915 -1.97295,-2.25915 -0.62339,0 -1.54056,0.28572 -1.54056,0.84784 0,0.6358 0.924448,0.87185 1.55744,0.87185 1.08954,0 1.97266,-1.01122 1.97266,-2.25881 0,-1.2476 -0.88312,-2.25916 -1.97266,-2.25916 -0.623379,0 -1.540556,0.29607 -1.540556,0.84786 0,0.60712 0.924162,0.87218 1.557156,0.87218 1.08955,0 1.97295,-1.01155 1.97295,-2.25915 0,-1.2476 -0.8834,-2.25881 -1.97295,-2.25881 -0.623386,0 -1.540555,0.2857 -1.540555,0.84748 0,0.63615 0.924153,0.87219 1.557145,0.87219 1.08954,0 1.97297,-1.01121 1.97297,-2.25913 0,-1.24761 -0.88343,-2.25884 -2.02421,-2.31783 v -3.159683"
       id="svg_18"
       stroke-miterlimit="2"
       inkscape:connector-curvature="0"
       style="fill:none;stroke:#000000;stroke-width:0.63455278;stroke-miterlimit:2" />
    <text
       xml:space="preserve"
       style="font-style:normal;font-weight:normal;font-size:10.58333302px;line-height:1.25;font-family:sans-serif;letter-spacing:0px;word-spacing:0px;fill:#000000;fill-opacity:1;stroke:none;stroke-width:0.26458332"
       x="87.692673"
       y="148.87155"
       id="text5260"><tspan
         sodipodi:role="line"
         id="tspan5258"
         x="87.692673"
         y="148.87155"
         style="font-size:5.64444447px;stroke-width:0.26458332">pluger</tspan></text>
    <text
       xml:space="preserve"
       style="font-style:normal;font-weight:normal;font-size:10.58333302px;line-height:1.25;font-family:sans-serif;letter-spacing:0px;word-spacing:0px;fill:#000000;fill-opacity:1;stroke:none;stroke-width:0.26458332"
       x="89.03862"
       y="107.27478"
       id="text5264"><tspan
         sodipodi:role="line"
         id="tspan5262"
         x="89.03862"
         y="107.27478"
         style="font-size:5.64444447px;stroke-width:0.26458332">spring</tspan></text>
    <text
       xml:space="preserve"
       style="font-style:normal;font-weight:normal;font-size:10.58333302px;line-height:1.25;font-family:sans-serif;letter-spacing:0px;word-spacing:0px;fill:#000000;fill-opacity:1;stroke:none;stroke-width:0.26458332"
       x="-131.71225"
       y="109.17899"
       id="text5264-5"
       transform="rotate(-90)"><tspan
         sodipodi:role="line"
         id="tspan5262-1"
         x="-131.71225"
         y="109.17899"
         style="font-size:5.64444447px;stroke-width:0.26458332">coil</tspan></text>
    <path
       style="fill:none;stroke:#000000;stroke-width:0.26458332px;stroke-linecap:butt;stroke-linejoin:miter;stroke-opacity:1;marker-start:url(#Arrow2Lstart);marker-end:url(#Arrow1Lend)"
       d="M 292.36016,181.17425 H 194.90678 V 100.89502"
       id="path5324"
       inkscape:connector-curvature="0" />
    <path
       style="fill:none;stroke:#000000;stroke-width:0.26458332px;stroke-linecap:butt;stroke-linejoin:miter;stroke-opacity:1"
       d="m 194.90678,181.17425 c 0,0 29.95494,-87.468412 47.9279,-47.5285 8.78678,-14.77777 21.96696,-15.17716 21.96696,-15.17716 h 28.75673 l -0.3994,-0.3994 v 0 h -0.39939"
       id="path5330"
       inkscape:connector-curvature="0" />
    <path
       style="fill:none;stroke:#000000;stroke-width:0.26499999;stroke-linecap:butt;stroke-linejoin:miter;stroke-miterlimit:4;stroke-dasharray:0.79499996, 0.79499996;stroke-dashoffset:0;stroke-opacity:1"
       d="m 231.2521,123.26138 v 63.10506"
       id="path5332"
       inkscape:connector-curvature="0" />
    <path
       style="fill:none;stroke:#000000;stroke-width:0.26458332;stroke-linecap:butt;stroke-linejoin:miter;stroke-miterlimit:4;stroke-dasharray:0.79374995, 0.79374995;stroke-dashoffset:0;stroke-opacity:1"
       d="m 242.83468,133.64575 v 51.52249"
       id="path5334"
       inkscape:connector-curvature="0" />
    <text
       xml:space="preserve"
       style="font-style:normal;font-weight:normal;font-size:10.58333302px;line-height:1.25;font-family:sans-serif;letter-spacing:0px;word-spacing:0px;fill:#000000;fill-opacity:1;stroke:none;stroke-width:0.26458332"
       x="262.80463"
       y="175.58266"
       id="text5794"><tspan
         sodipodi:role="line"
         id="tspan5792"
         x="262.80463"
         y="175.58266"
         style="font-size:3.52777767px;line-height:0px;stroke-width:0.26458332">t (time from when </tspan><tspan
         sodipodi:role="line"
         x="262.80463"
         y="188.81183"
         style="font-size:3.52777767px;line-height:0px;stroke-width:0.26458332"
         id="tspan5796">coil is energised)</tspan></text>
    <text
       xml:space="preserve"
       style="font-style:normal;font-weight:normal;font-size:10.58333302px;line-height:1.25;font-family:sans-serif;letter-spacing:0px;word-spacing:0px;fill:#000000;fill-opacity:1;stroke:none;stroke-width:0.26458332"
       x="214.87672"
       y="187.16525"
       id="text5800"><tspan
         sodipodi:role="line"
         id="tspan5798"
         x="214.87672"
         y="187.16525"
         style="font-size:4.23333311px;stroke-width:0.26458332">t_start</tspan></text>
    <text
       xml:space="preserve"
       style="font-style:normal;font-weight:normal;font-size:10.58333302px;line-height:1.25;font-family:sans-serif;letter-spacing:0px;word-spacing:0px;fill:#000000;fill-opacity:1;stroke:none;stroke-width:0.26458332"
       x="245.63046"
       y="187.16525"
       id="text5804"><tspan
         sodipodi:role="line"
         id="tspan5802"
         x="245.63046"
         y="187.16525"
         style="font-size:4.23333311px;stroke-width:0.26458332">t_stop</tspan></text>
    <path
       style="fill:none;stroke:#000000;stroke-width:0.26458332;stroke-linecap:butt;stroke-linejoin:miter;stroke-miterlimit:4;stroke-dasharray:0.52916663, 0.26458332;stroke-dashoffset:0;stroke-opacity:1"
       d="M 263.20404,118.46859 H 194.50738"
       id="path5808"
       inkscape:connector-curvature="0" />
    <path
       style="fill:none;stroke:#000000;stroke-width:0.26458332;stroke-linecap:butt;stroke-linejoin:miter;stroke-miterlimit:4;stroke-dasharray:0.52916663, 0.52916663;stroke-dashoffset:0;stroke-opacity:1"
       d="M 231.2521,123.26138 H 194.90678"
       id="path5810"
       inkscape:connector-curvature="0" />
    <text
       xml:space="preserve"
       style="font-style:normal;font-weight:normal;font-size:10.58333302px;line-height:1.25;font-family:sans-serif;letter-spacing:0px;word-spacing:0px;fill:#000000;fill-opacity:1;stroke:none;stroke-width:0.26458332"
       x="164.46095"
       y="100.23608"
       id="text5814"><tspan
         sodipodi:role="line"
         id="tspan5812"
         x="164.46095"
         y="100.23608"
         style="font-size:4.23333311px;stroke-width:0.26458332">i (coil current)</tspan></text>
    <text
       xml:space="preserve"
       style="font-style:normal;font-weight:normal;font-size:4.23333311px;line-height:1.25;font-family:sans-serif;letter-spacing:0px;word-spacing:0px;fill:#000000;fill-opacity:1;stroke:none;stroke-width:0.26458332"
       x="182.12602"
       y="115.67279"
       id="text5818"><tspan
         sodipodi:role="line"
         id="tspan5816"
         x="182.12602"
         y="115.67279"
         style="font-size:4.23333311px;stroke-width:0.26458332">i_stall</tspan></text>
    <text
       xml:space="preserve"
       style="font-style:normal;font-weight:normal;font-size:4.23333311px;line-height:1.25;font-family:sans-serif;letter-spacing:0px;word-spacing:0px;fill:#000000;fill-opacity:1;stroke:none;stroke-width:0.26458332"
       x="176.08401"
       y="128.05417"
       id="text5822"><tspan
         sodipodi:role="line"
         id="tspan5820"
         x="176.08401"
         y="128.05417"
         style="font-size:4.23333311px;stroke-width:0.26458332">i_motion</tspan></text>
    <text
       xml:space="preserve"
       style="font-style:normal;font-weight:normal;font-size:10.58333302px;line-height:1.25;font-family:sans-serif;letter-spacing:0px;word-spacing:0px;fill:#000000;fill-opacity:1;stroke:none;stroke-width:0.26458332"
       x="107.63049"
       y="192.49796"
       id="text5826"><tspan
         sodipodi:role="line"
         x="107.63049"
         y="192.49796"
         style="font-style:normal;font-variant:normal;font-weight:normal;font-stretch:normal;font-size:4.23333311px;line-height:0px;font-family:Arial;-inkscape-font-specification:'Arial, Normal';font-variant-ligatures:normal;font-variant-caps:normal;font-variant-numeric:normal;font-feature-settings:normal;text-align:start;writing-mode:lr-tb;text-anchor:start;stroke-width:0.26458332"
         id="tspan5865">t_start: plunger starts moving (i is generating a force strong enough to overcome static friction forces</tspan></text>
    <text
       xml:space="preserve"
       style="font-style:normal;font-weight:normal;font-size:10.58333302px;line-height:1.25;font-family:sans-serif;letter-spacing:0px;word-spacing:0px;fill:#000000;fill-opacity:1;stroke:none;stroke-width:0.26458332"
       x="179.46857"
       y="196.70427"
       id="text5878"><tspan
         sodipodi:role="line"
         id="tspan5876"
         x="179.46857"
         y="206.06804"
         style="stroke-width:0.26458332"></tspan></text>
    <text
       xml:space="preserve"
       style="font-style:normal;font-variant:normal;font-weight:normal;font-stretch:normal;font-size:4.23333311px;line-height:1.25;font-family:sans-serif;-inkscape-font-specification:'sans-serif, Normal';font-variant-ligatures:normal;font-variant-caps:normal;font-variant-numeric:normal;font-feature-settings:normal;text-align:start;letter-spacing:0px;word-spacing:0px;writing-mode:lr-tb;text-anchor:start;fill:#000000;fill-opacity:1;stroke:none;stroke-width:0.26458332"
       x="107.59122"
       y="198.65044"
       id="text5898"><tspan
         sodipodi:role="line"
         id="tspan5911"
         x="107.59122"
         y="198.65044">then back-EMF reduces current</tspan></text>
    <text
       xml:space="preserve"
       style="font-style:normal;font-variant:normal;font-weight:normal;font-stretch:normal;font-size:4.23333311px;line-height:1.25;font-family:sans-serif;-inkscape-font-specification:'sans-serif, Normal';font-variant-ligatures:normal;font-variant-caps:normal;font-variant-numeric:normal;font-feature-settings:normal;text-align:start;letter-spacing:0px;word-spacing:0px;writing-mode:lr-tb;text-anchor:start;fill:#000000;fill-opacity:1;stroke:none;stroke-width:0.26458332"
       x="107.59122"
       y="203.8252"
       id="text5915"><tspan
         sodipodi:role="line"
         id="tspan5923"
         x="107.59122"
         y="203.8252">t_stop: plunger stops moving</tspan></text>
    <text
       xml:space="preserve"
       style="font-style:normal;font-variant:normal;font-weight:normal;font-stretch:normal;font-size:4.23333311px;line-height:1.25;font-family:sans-serif;-inkscape-font-specification:'sans-serif, Normal';font-variant-ligatures:normal;font-variant-caps:normal;font-variant-numeric:normal;font-feature-settings:normal;text-align:start;letter-spacing:0px;word-spacing:0px;writing-mode:lr-tb;text-anchor:start;fill:#000000;fill-opacity:1;stroke:none;stroke-width:0.26458332"
       x="107.59122"
       y="209.46919"
       id="text5927"><tspan
         sodipodi:role="line"
         id="tspan5931"
         x="107.59122"
         y="209.46919">then current increases to stall current: E/R_coil</tspan></text>
  </g>
</svg>
