<!DOCTYPE svg PUBLIC "-//W3C//DTD SVG 1.1//EN"
"http://www.w3.org/Graphics/SVG/1.1/DTD/svg11.dtd">
<svg xmlns="http://www.w3.org/2000/svg" xmlns:xlink="http://www.w3.org/1999/xlink" width="29.7002cm" height="21.0007cm" viewBox="0 0 11693 8268" font-family="Verdana, sans-serif" style="stroke-opacity:1.000000;fill-opacity:1.000000;"><rect fill="#FFFFFF" width="11693" height="8268" style="stroke-opacity:1.0;fill-opacity:1.0;"></rect><polyline points="1750, 2250 1850, 2250" stroke-width="10px" stroke="#800000"></polyline><polyline points="1500, 3100 1600, 3100" stroke-width="10px" stroke="#800000"></polyline><polyline points="1500, 2950 1500, 3100" stroke-width="10px" stroke="#800000"></polyline><polyline points="1450, 2950 1500, 2950" stroke-width="10px" stroke="#800000"></polyline><polyline points="1450, 3100 1450, 2950" stroke-width="10px" stroke="#800000"></polyline><polyline points="1300, 3100 1450, 3100" stroke-width="10px" stroke="#800000"></polyline><polyline points="2900, 2250 2950, 2250" stroke-width="10px" stroke="#800000"></polyline><text x="2700" y="1998" font-size="50.000000" text-anchor="middle" transform="rotate(0 2700 1998)" fill="#000000">C3</text><polyline points="2660, 2250 2550, 2250" stroke-width="10px" stroke="#000000"></polyline><polyline points="2740, 2250 2850, 2250" stroke-width="10px" stroke="#000000"></polyline><polyline points="2730, 2170 2730, 2330" stroke-width="10px" stroke="#000000"></polyline><polyline points="2670, 2170 2670, 2330" stroke-width="10px" stroke="#000000"></polyline><polyline points="3250, 1600 3250, 1700" stroke-width="10px" stroke="#800000"></polyline><polyline points="2150, 1600 2150, 1700" stroke-width="10px" stroke="#800000"></polyline><polyline points="4050, 1600 4050, 1700" stroke-width="10px" stroke="#800000"></polyline><text x="4067" y="1427" font-size="50.000000" text-anchor="middle" transform="rotate(0 4067 1427)" fill="#000000">VCC</text><polyline points="4050, 1600 4050, 1550" stroke-width="10px" stroke="#000000"></polyline><circle r="25" cx="4050" cy="1525" fill="none" stroke-width="10px" stroke="#000000"></circle><text x="3267" y="1427" font-size="50.000000" text-anchor="middle" transform="rotate(0 3267 1427)" fill="#000000">VCC</text><polyline points="3250, 1600 3250, 1550" stroke-width="10px" stroke="#000000"></polyline><circle r="25" cx="3250" cy="1525" fill="none" stroke-width="10px" stroke="#000000"></circle><text x="2167" y="1427" font-size="50.000000" text-anchor="middle" transform="rotate(0 2167 1427)" fill="#000000">VCC</text><polyline points="2150, 1600 2150, 1550" stroke-width="10px" stroke="#000000"></polyline><circle r="25" cx="2150" cy="1525" fill="none" stroke-width="10px" stroke="#000000"></circle><polyline points="3100, 2250 3150, 2250" stroke-width="10px" stroke="#800000"></polyline><polyline points="3000, 2250 3050, 2250" stroke-width="10px" stroke="#800000"></polyline><polyline points="1300, 3000 1400, 3000" stroke-width="10px" stroke="#800000"></polyline><polyline points="1300, 2900 1300, 3000" stroke-width="10px" stroke="#800000"></polyline><circle r="10" cx="1650" cy="2550" fill="#000000" stroke-width="10px" stroke="#000000"></circle><polyline points="1650, 3000 1550, 3000" stroke-width="10px" stroke="#800000"></polyline><polyline points="1650, 2550 1650, 3000" stroke-width="10px" stroke="#800000"></polyline><polyline points="4450, 2250 4550, 2250" stroke-width="10px" stroke="#800000"></polyline><polyline points="4550, 2600 4550, 2250" stroke-width="10px" stroke="#800000"></polyline><polyline points="4550, 2950 4550, 2900" stroke-width="10px" stroke="#800000"></polyline><circle r="10" cx="4050" cy="2250" fill="#000000" stroke-width="10px" stroke="#000000"></circle><polyline points="4000, 2250 4050, 2250" stroke-width="10px" stroke="#800000"></polyline><polyline points="4050, 2000 4050, 2250" stroke-width="10px" stroke="#800000"></polyline><text x="4120" y="1850" font-size="50.000000" text-anchor="start" transform="rotate(0 4120 1850)" fill="#000000">R15</text><polyline points="4050, 1750 4050, 1700" stroke-width="10px" stroke="#000000"></polyline><polyline points="4050, 1950 4050, 2000" stroke-width="10px" stroke="#000000"></polyline><polyline points="4010, 1750 4090, 1750" stroke-width="10px" stroke="#000000"></polyline><polyline points="4010, 1950 4010, 1750" stroke-width="10px" stroke="#000000"></polyline><polyline points="4090, 1950 4010, 1950" stroke-width="10px" stroke="#000000"></polyline><polyline points="4090, 1750 4090, 1950" stroke-width="10px" stroke="#000000"></polyline><circle r="10" cx="4450" cy="2250" fill="#000000" stroke-width="10px" stroke="#000000"></circle><polyline points="4450, 2550 4450, 2250" stroke-width="10px" stroke="#800000"></polyline><polyline points="4250, 2550 4450, 2550" stroke-width="10px" stroke="#800000"></polyline><text x="4620" y="2704" font-size="50.000000" text-anchor="start" transform="rotate(0 4620 2704)" fill="#000000">RL</text><polyline points="4550, 2650 4550, 2600" stroke-width="10px" stroke="#000000"></polyline><polyline points="4550, 2850 4550, 2900" stroke-width="10px" stroke="#000000"></polyline><polyline points="4510, 2650 4590, 2650" stroke-width="10px" stroke="#000000"></polyline><polyline points="4510, 2850 4510, 2650" stroke-width="10px" stroke="#000000"></polyline><polyline points="4590, 2850 4510, 2850" stroke-width="10px" stroke="#000000"></polyline><polyline points="4590, 2650 4590, 2850" stroke-width="10px" stroke="#000000"></polyline><text x="4450" y="2250" font-size="50.000000" text-anchor="end" transform="rotate(0 4450 2250)" fill="#000000">3</text><polyline points="4350, 2250 4450, 2250" stroke-width="10px" stroke="#000000"></polyline><text x="4250" y="2550" font-size="50.000000" text-anchor="start" transform="rotate(-90 4250 2550)" fill="#000000">2</text><polyline points="4250, 2325 4250, 2550" stroke-width="10px" stroke="#000000"></polyline><text x="4050" y="2250" font-size="50.000000" text-anchor="start" transform="rotate(0 4050 2250)" fill="#000000">1</text><polyline points="4150, 2250 4050, 2250" stroke-width="10px" stroke="#000000"></polyline><polyline points="4320, 2300 4320, 2300" stroke-width="10px" stroke="#000000"></polyline><polyline points="4340, 2260 4320, 2300" stroke-width="10px" stroke="#000000"></polyline><polyline points="4300, 2280 4340, 2260" stroke-width="10px" stroke="#000000"></polyline><polyline points="4320, 2300 4300, 2280" stroke-width="10px" stroke="#000000"></polyline><polyline points="4320, 2300 4320, 2300" stroke-width="10px" stroke="#000000"></polyline><polyline points="4325, 2325 4325, 2325" stroke-width="10px" stroke="#000000"></polyline><polyline points="4175, 2325 4325, 2325" stroke-width="10px" stroke="#000000"></polyline><polyline points="4350, 2250 4350, 2250" stroke-width="10px" stroke="#000000"></polyline><polyline points="4275, 2325 4350, 2250" stroke-width="10px" stroke="#000000"></polyline><polyline points="4225, 2325 4150, 2250" stroke-width="10px" stroke="#000000"></polyline><circle r="111" cx="4250" cy="2300" fill="none" stroke-width="10px" stroke="#000000"></circle><text x="4555" y="3123" font-size="50.000000" text-anchor="middle" transform="rotate(0 4555 3123)" fill="#000000">GND</text><polyline points="4500, 3000 4550, 3000" stroke-width="10px" stroke="#000000"></polyline><polyline points="4550, 3050 4500, 3000" stroke-width="10px" stroke="#000000"></polyline><polyline points="4600, 3000 4550, 3050" stroke-width="10px" stroke="#000000"></polyline><polyline points="4550, 3000 4600, 3000" stroke-width="10px" stroke="#000000"></polyline><polyline points="4550, 2950 4550, 3000" stroke-width="10px" stroke="#000000"></polyline><circle r="10" cx="3250" cy="2250" fill="#000000" stroke-width="10px" stroke="#000000"></circle><polyline points="3200, 2250 3250, 2250" stroke-width="10px" stroke="#800000"></polyline><polyline points="3250, 2000 3250, 2250" stroke-width="10px" stroke="#800000"></polyline><text x="3320" y="1850" font-size="50.000000" text-anchor="start" transform="rotate(0 3320 1850)" fill="#000000">R14</text><polyline points="3250, 1750 3250, 1700" stroke-width="10px" stroke="#000000"></polyline><polyline points="3250, 1950 3250, 2000" stroke-width="10px" stroke="#000000"></polyline><polyline points="3210, 1750 3290, 1750" stroke-width="10px" stroke="#000000"></polyline><polyline points="3210, 1950 3210, 1750" stroke-width="10px" stroke="#000000"></polyline><polyline points="3290, 1950 3210, 1950" stroke-width="10px" stroke="#000000"></polyline><polyline points="3290, 1750 3290, 1950" stroke-width="10px" stroke="#000000"></polyline><circle r="10" cx="3650" cy="2250" fill="#000000" stroke-width="10px" stroke="#000000"></circle><circle r="10" cx="3450" cy="2550" fill="#000000" stroke-width="10px" stroke="#000000"></circle><polyline points="3650, 2550 3650, 2250" stroke-width="10px" stroke="#800000"></polyline><polyline points="3450, 2550 3650, 2550" stroke-width="10px" stroke="#800000"></polyline><polyline points="3650, 2250 3700, 2250" stroke-width="10px" stroke="#800000"></polyline><polyline points="3450, 2550 3450, 2600" stroke-width="10px" stroke="#800000"></polyline><polyline points="3450, 2900 3450, 2950" stroke-width="10px" stroke="#800000"></polyline><text x="3520" y="2704" font-size="50.000000" text-anchor="start" transform="rotate(0 3520 2704)" fill="#000000">R29</text><polyline points="3450, 2650 3450, 2600" stroke-width="10px" stroke="#000000"></polyline><polyline points="3450, 2850 3450, 2900" stroke-width="10px" stroke="#000000"></polyline><polyline points="3410, 2650 3490, 2650" stroke-width="10px" stroke="#000000"></polyline><polyline points="3410, 2850 3410, 2650" stroke-width="10px" stroke="#000000"></polyline><polyline points="3490, 2850 3410, 2850" stroke-width="10px" stroke="#000000"></polyline><polyline points="3490, 2650 3490, 2850" stroke-width="10px" stroke="#000000"></polyline><text x="3650" y="2250" font-size="50.000000" text-anchor="end" transform="rotate(0 3650 2250)" fill="#000000">3</text><polyline points="3550, 2250 3650, 2250" stroke-width="10px" stroke="#000000"></polyline><text x="3450" y="2550" font-size="50.000000" text-anchor="start" transform="rotate(-90 3450 2550)" fill="#000000">2</text><polyline points="3450, 2325 3450, 2550" stroke-width="10px" stroke="#000000"></polyline><text x="3250" y="2250" font-size="50.000000" text-anchor="start" transform="rotate(0 3250 2250)" fill="#000000">1</text><polyline points="3350, 2250 3250, 2250" stroke-width="10px" stroke="#000000"></polyline><polyline points="3520, 2300 3520, 2300" stroke-width="10px" stroke="#000000"></polyline><polyline points="3540, 2260 3520, 2300" stroke-width="10px" stroke="#000000"></polyline><polyline points="3500, 2280 3540, 2260" stroke-width="10px" stroke="#000000"></polyline><polyline points="3520, 2300 3500, 2280" stroke-width="10px" stroke="#000000"></polyline><polyline points="3520, 2300 3520, 2300" stroke-width="10px" stroke="#000000"></polyline><polyline points="3525, 2325 3525, 2325" stroke-width="10px" stroke="#000000"></polyline><polyline points="3375, 2325 3525, 2325" stroke-width="10px" stroke="#000000"></polyline><polyline points="3550, 2250 3550, 2250" stroke-width="10px" stroke="#000000"></polyline><polyline points="3475, 2325 3550, 2250" stroke-width="10px" stroke="#000000"></polyline><polyline points="3425, 2325 3350, 2250" stroke-width="10px" stroke="#000000"></polyline><circle r="111" cx="3450" cy="2300" fill="none" stroke-width="10px" stroke="#000000"></circle><text x="3455" y="3123" font-size="50.000000" text-anchor="middle" transform="rotate(0 3455 3123)" fill="#000000">GND</text><polyline points="3400, 3000 3450, 3000" stroke-width="10px" stroke="#000000"></polyline><polyline points="3450, 3050 3400, 3000" stroke-width="10px" stroke="#000000"></polyline><polyline points="3500, 3000 3450, 3050" stroke-width="10px" stroke="#000000"></polyline><polyline points="3450, 3000 3500, 3000" stroke-width="10px" stroke="#000000"></polyline><polyline points="3450, 2950 3450, 3000" stroke-width="10px" stroke="#000000"></polyline><text x="3850" y="1998" font-size="50.000000" text-anchor="middle" transform="rotate(0 3850 1998)" fill="#000000">C15</text><text x="3850" y="2089" font-size="50.000000" text-anchor="middle" transform="rotate(0 3850 2089)" fill="#000000">C</text><polyline points="3810, 2250 3700, 2250" stroke-width="10px" stroke="#000000"></polyline><polyline points="3890, 2250 4000, 2250" stroke-width="10px" stroke="#000000"></polyline><polyline points="3880, 2170 3880, 2330" stroke-width="10px" stroke="#000000"></polyline><polyline points="3820, 2170 3820, 2330" stroke-width="10px" stroke="#000000"></polyline><circle r="10" cx="1750" cy="2250" fill="#000000" stroke-width="10px" stroke="#000000"></circle><circle r="10" cx="1650" cy="2250" fill="#000000" stroke-width="10px" stroke="#000000"></circle><polyline points="1650, 2250 1750, 2250" stroke-width="10px" stroke="#800000"></polyline><polyline points="1650, 2250 1500, 2250" stroke-width="10px" stroke="#800000"></polyline><polyline points="1650, 2550 1650, 2250" stroke-width="10px" stroke="#800000"></polyline><circle r="10" cx="1300" cy="2550" fill="#000000" stroke-width="10px" stroke="#000000"></circle><polyline points="1300, 2550 1300, 2600" stroke-width="10px" stroke="#800000"></polyline><polyline points="1350, 2550 1300, 2550" stroke-width="10px" stroke="#800000"></polyline><circle r="10" cx="2150" cy="2250" fill="#000000" stroke-width="10px" stroke="#000000"></circle><polyline points="2100, 2250 2150, 2250" stroke-width="10px" stroke="#800000"></polyline><polyline points="2150, 2000 2150, 2250" stroke-width="10px" stroke="#800000"></polyline><text x="2220" y="1850" font-size="50.000000" text-anchor="start" transform="rotate(0 2220 1850)" fill="#000000">R2</text><polyline points="2150, 1750 2150, 1700" stroke-width="10px" stroke="#000000"></polyline><polyline points="2150, 1950 2150, 2000" stroke-width="10px" stroke="#000000"></polyline><polyline points="2110, 1750 2190, 1750" stroke-width="10px" stroke="#000000"></polyline><polyline points="2110, 1950 2110, 1750" stroke-width="10px" stroke="#000000"></polyline><polyline points="2190, 1950 2110, 1950" stroke-width="10px" stroke="#000000"></polyline><polyline points="2190, 1750 2190, 1950" stroke-width="10px" stroke="#000000"></polyline><polyline points="1050, 1600 1050, 1700" stroke-width="10px" stroke="#800000"></polyline><circle r="10" cx="1050" cy="2250" fill="#000000" stroke-width="10px" stroke="#000000"></circle><polyline points="1050, 2250 1100, 2250" stroke-width="10px" stroke="#800000"></polyline><polyline points="1050, 2000 1050, 2250" stroke-width="10px" stroke="#800000"></polyline><polyline points="750, 2900 750, 2950" stroke-width="10px" stroke="#800000"></polyline><polyline points="750, 2600 750, 2250" stroke-width="10px" stroke="#800000"></polyline><text x="820" y="2750" font-size="50.000000" text-anchor="start" transform="rotate(0 820 2750)" fill="#000000">RM</text><polyline points="750, 2650 750, 2600" stroke-width="10px" stroke="#000000"></polyline><polyline points="750, 2850 750, 2900" stroke-width="10px" stroke="#000000"></polyline><polyline points="710, 2650 790, 2650" stroke-width="10px" stroke="#000000"></polyline><polyline points="710, 2850 710, 2650" stroke-width="10px" stroke="#000000"></polyline><polyline points="790, 2850 710, 2850" stroke-width="10px" stroke="#000000"></polyline><polyline points="790, 2650 790, 2850" stroke-width="10px" stroke="#000000"></polyline><polyline points="1750, 2900 1750, 2950" stroke-width="10px" stroke="#800000"></polyline><polyline points="1750, 2600 1750, 2250" stroke-width="10px" stroke="#800000"></polyline><circle r="10" cx="2550" cy="2250" fill="#000000" stroke-width="10px" stroke="#000000"></circle><circle r="10" cx="2350" cy="2550" fill="#000000" stroke-width="10px" stroke="#000000"></circle><polyline points="2550, 2550 2550, 2250" stroke-width="10px" stroke="#800000"></polyline><polyline points="2350, 2550 2550, 2550" stroke-width="10px" stroke="#800000"></polyline><polyline points="2550, 2250 2600, 2250" stroke-width="10px" stroke="#800000"></polyline><polyline points="2350, 2550 2350, 2600" stroke-width="10px" stroke="#800000"></polyline><polyline points="2350, 2900 2350, 2950" stroke-width="10px" stroke="#800000"></polyline><text x="2420" y="2704" font-size="50.000000" text-anchor="start" transform="rotate(0 2420 2704)" fill="#000000">R17</text><polyline points="2350, 2650 2350, 2600" stroke-width="10px" stroke="#000000"></polyline><polyline points="2350, 2850 2350, 2900" stroke-width="10px" stroke="#000000"></polyline><polyline points="2310, 2650 2390, 2650" stroke-width="10px" stroke="#000000"></polyline><polyline points="2310, 2850 2310, 2650" stroke-width="10px" stroke="#000000"></polyline><polyline points="2390, 2850 2310, 2850" stroke-width="10px" stroke="#000000"></polyline><polyline points="2390, 2650 2390, 2850" stroke-width="10px" stroke="#000000"></polyline><text x="2550" y="2250" font-size="50.000000" text-anchor="end" transform="rotate(0 2550 2250)" fill="#000000">3</text><polyline points="2450, 2250 2550, 2250" stroke-width="10px" stroke="#000000"></polyline><text x="2350" y="2550" font-size="50.000000" text-anchor="start" transform="rotate(-90 2350 2550)" fill="#000000">2</text><polyline points="2350, 2325 2350, 2550" stroke-width="10px" stroke="#000000"></polyline><text x="2150" y="2250" font-size="50.000000" text-anchor="start" transform="rotate(0 2150 2250)" fill="#000000">1</text><polyline points="2250, 2250 2150, 2250" stroke-width="10px" stroke="#000000"></polyline><polyline points="2420, 2300 2420, 2300" stroke-width="10px" stroke="#000000"></polyline><polyline points="2440, 2260 2420, 2300" stroke-width="10px" stroke="#000000"></polyline><polyline points="2400, 2280 2440, 2260" stroke-width="10px" stroke="#000000"></polyline><polyline points="2420, 2300 2400, 2280" stroke-width="10px" stroke="#000000"></polyline><polyline points="2420, 2300 2420, 2300" stroke-width="10px" stroke="#000000"></polyline><polyline points="2425, 2325 2425, 2325" stroke-width="10px" stroke="#000000"></polyline><polyline points="2275, 2325 2425, 2325" stroke-width="10px" stroke="#000000"></polyline><polyline points="2450, 2250 2450, 2250" stroke-width="10px" stroke="#000000"></polyline><polyline points="2375, 2325 2450, 2250" stroke-width="10px" stroke="#000000"></polyline><polyline points="2325, 2325 2250, 2250" stroke-width="10px" stroke="#000000"></polyline><circle r="111" cx="2350" cy="2300" fill="none" stroke-width="10px" stroke="#000000"></circle><text x="1820" y="2704" font-size="50.000000" text-anchor="start" transform="rotate(0 1820 2704)" fill="#000000">R16</text><polyline points="1750, 2650 1750, 2600" stroke-width="10px" stroke="#000000"></polyline><polyline points="1750, 2850 1750, 2900" stroke-width="10px" stroke="#000000"></polyline><polyline points="1710, 2650 1790, 2650" stroke-width="10px" stroke="#000000"></polyline><polyline points="1710, 2850 1710, 2650" stroke-width="10px" stroke="#000000"></polyline><polyline points="1790, 2850 1710, 2850" stroke-width="10px" stroke="#000000"></polyline><polyline points="1790, 2650 1790, 2850" stroke-width="10px" stroke="#000000"></polyline><text x="2355" y="3123" font-size="50.000000" text-anchor="middle" transform="rotate(0 2355 3123)" fill="#000000">GND</text><polyline points="2300, 3000 2350, 3000" stroke-width="10px" stroke="#000000"></polyline><polyline points="2350, 3050 2300, 3000" stroke-width="10px" stroke="#000000"></polyline><polyline points="2400, 3000 2350, 3050" stroke-width="10px" stroke="#000000"></polyline><polyline points="2350, 3000 2400, 3000" stroke-width="10px" stroke="#000000"></polyline><polyline points="2350, 2950 2350, 3000" stroke-width="10px" stroke="#000000"></polyline><text x="1755" y="3123" font-size="50.000000" text-anchor="middle" transform="rotate(0 1755 3123)" fill="#000000">GND</text><polyline points="1700, 3000 1750, 3000" stroke-width="10px" stroke="#000000"></polyline><polyline points="1750, 3050 1700, 3000" stroke-width="10px" stroke="#000000"></polyline><polyline points="1800, 3000 1750, 3050" stroke-width="10px" stroke="#000000"></polyline><polyline points="1750, 3000 1800, 3000" stroke-width="10px" stroke="#000000"></polyline><polyline points="1750, 2950 1750, 3000" stroke-width="10px" stroke="#000000"></polyline><text x="755" y="3123" font-size="50.000000" text-anchor="middle" transform="rotate(0 755 3123)" fill="#000000">GND</text><polyline points="700, 3000 750, 3000" stroke-width="10px" stroke="#000000"></polyline><polyline points="750, 3050 700, 3000" stroke-width="10px" stroke="#000000"></polyline><polyline points="800, 3000 750, 3050" stroke-width="10px" stroke="#000000"></polyline><polyline points="750, 3000 800, 3000" stroke-width="10px" stroke="#000000"></polyline><polyline points="750, 2950 750, 3000" stroke-width="10px" stroke="#000000"></polyline><text x="1067" y="1427" font-size="50.000000" text-anchor="middle" transform="rotate(0 1067 1427)" fill="#000000">VCC</text><polyline points="1050, 1600 1050, 1550" stroke-width="10px" stroke="#000000"></polyline><circle r="25" cx="1050" cy="1525" fill="none" stroke-width="10px" stroke="#000000"></circle><text x="1120" y="1804" font-size="50.000000" text-anchor="start" transform="rotate(0 1120 1804)" fill="#000000">R1</text><text x="1120" y="1895" font-size="50.000000" text-anchor="start" transform="rotate(0 1120 1895)" fill="#000000">R</text><polyline points="1050, 1750 1050, 1700" stroke-width="10px" stroke="#000000"></polyline><polyline points="1050, 1950 1050, 2000" stroke-width="10px" stroke="#000000"></polyline><polyline points="1010, 1750 1090, 1750" stroke-width="10px" stroke="#000000"></polyline><polyline points="1010, 1950 1010, 1750" stroke-width="10px" stroke="#000000"></polyline><polyline points="1090, 1950 1010, 1950" stroke-width="10px" stroke="#000000"></polyline><polyline points="1090, 1750 1090, 1950" stroke-width="10px" stroke="#000000"></polyline><text x="1500" y="2435" font-size="50.000000" text-anchor="middle" transform="rotate(0 1500 2435)" fill="#000000">R0</text><polyline points="1400, 2550 1350, 2550" stroke-width="10px" stroke="#000000"></polyline><polyline points="1600, 2550 1650, 2550" stroke-width="10px" stroke="#000000"></polyline><polyline points="1400, 2590 1400, 2510" stroke-width="10px" stroke="#000000"></polyline><polyline points="1600, 2590 1400, 2590" stroke-width="10px" stroke="#000000"></polyline><polyline points="1600, 2510 1600, 2590" stroke-width="10px" stroke="#000000"></polyline><polyline points="1400, 2510 1600, 2510" stroke-width="10px" stroke="#000000"></polyline><text x="1415" y="2704" font-size="50.000000" text-anchor="start" transform="rotate(0 1415 2704)" fill="#000000">C0</text><text x="1415" y="2795" font-size="50.000000" text-anchor="start" transform="rotate(0 1415 2795)" fill="#000000">C</text><polyline points="1300, 2710 1300, 2600" stroke-width="10px" stroke="#000000"></polyline><polyline points="1300, 2790 1300, 2900" stroke-width="10px" stroke="#000000"></polyline><polyline points="1380, 2780 1220, 2780" stroke-width="10px" stroke="#000000"></polyline><polyline points="1380, 2720 1220, 2720" stroke-width="10px" stroke="#000000"></polyline><text x="1500" y="2250" font-size="50.000000" text-anchor="end" transform="rotate(0 1500 2250)" fill="#000000">3</text><polyline points="1400, 2250 1500, 2250" stroke-width="10px" stroke="#000000"></polyline><text x="1300" y="2550" font-size="50.000000" text-anchor="start" transform="rotate(-90 1300 2550)" fill="#000000">2</text><polyline points="1300, 2325 1300, 2550" stroke-width="10px" stroke="#000000"></polyline><text x="1100" y="2250" font-size="50.000000" text-anchor="start" transform="rotate(0 1100 2250)" fill="#000000">1</text><polyline points="1200, 2250 1100, 2250" stroke-width="10px" stroke="#000000"></polyline><polyline points="1370, 2300 1370, 2300" stroke-width="10px" stroke="#000000"></polyline><polyline points="1390, 2260 1370, 2300" stroke-width="10px" stroke="#000000"></polyline><polyline points="1350, 2280 1390, 2260" stroke-width="10px" stroke="#000000"></polyline><polyline points="1370, 2300 1350, 2280" stroke-width="10px" stroke="#000000"></polyline><polyline points="1370, 2300 1370, 2300" stroke-width="10px" stroke="#000000"></polyline><polyline points="1375, 2325 1375, 2325" stroke-width="10px" stroke="#000000"></polyline><polyline points="1225, 2325 1375, 2325" stroke-width="10px" stroke="#000000"></polyline><polyline points="1400, 2250 1400, 2250" stroke-width="10px" stroke="#000000"></polyline><polyline points="1325, 2325 1400, 2250" stroke-width="10px" stroke="#000000"></polyline><polyline points="1275, 2325 1200, 2250" stroke-width="10px" stroke="#000000"></polyline><circle r="111" cx="1300" cy="2300" fill="none" stroke-width="10px" stroke="#000000"></circle><text x="1950" y="1998" font-size="50.000000" text-anchor="middle" transform="rotate(0 1950 1998)" fill="#000000">C2</text><polyline points="1910, 2250 1800, 2250" stroke-width="10px" stroke="#000000"></polyline><polyline points="1990, 2250 2100, 2250" stroke-width="10px" stroke="#000000"></polyline><polyline points="1980, 2170 1980, 2330" stroke-width="10px" stroke="#000000"></polyline><polyline points="1920, 2170 1920, 2330" stroke-width="10px" stroke="#000000"></polyline><text x="900" y="1998" font-size="50.000000" text-anchor="middle" transform="rotate(0 900 1998)" fill="#000000">C1</text><text x="900" y="2089" font-size="50.000000" text-anchor="middle" transform="rotate(0 900 2089)" fill="#000000">C</text><polyline points="860, 2250 750, 2250" stroke-width="10px" stroke="#000000"></polyline><polyline points="940, 2250 1050, 2250" stroke-width="10px" stroke="#000000"></polyline><polyline points="930, 2170 930, 2330" stroke-width="10px" stroke="#000000"></polyline><polyline points="870, 2170 870, 2330" stroke-width="10px" stroke="#000000"></polyline><text x="7693" y="7968" font-size="50.000000" text-anchor="start" transform="rotate(0 7693 7968)" fill="#000000">Page: 1 1</text><rect x="7593" y="7618" width="4000" height="400" fill="none" stroke-width="5px" stroke="#000000"></rect><rect x="7593" y="7918" width="4000" height="100" fill="none" stroke-width="5px" stroke="#000000"></rect><rect x="7593" y="8018" width="4000" height="150" fill="none" stroke-width="5px" stroke="#000000"></rect><rect x="100" y="100" width="11493" height="8068" fill="none" stroke-width="5px" stroke="#000000"></rect></svg>