<!DOCTYPE svg PUBLIC "-//W3C//DTD SVG 1.1//EN"
"http://www.w3.org/Graphics/SVG/1.1/DTD/svg11.dtd">
<svg xmlns="http://www.w3.org/2000/svg" xmlns:xlink="http://www.w3.org/1999/xlink" width="29.7002cm" height="21.0007cm" viewBox="0 0 11693 8268" font-family="Verdana, sans-serif" style="stroke-opacity:1.000000;fill-opacity:1.000000;"><rect fill="#FFFFFF" width="11693" height="8268" style="stroke-opacity:1.0;fill-opacity:1.0;"></rect><polyline points="4750, 2100 5100, 2100" stroke-width="10px" stroke="#800000"></polyline><circle r="10" cx="4750" cy="2100" fill="#000000" stroke-width="10px" stroke="#000000"></circle><polyline points="4050, 2200 4100, 2200" stroke-width="10px" stroke="#800000"></polyline><circle r="10" cx="4050" cy="2200" fill="#000000" stroke-width="10px" stroke="#000000"></circle><polyline points="4750, 2600 4750, 2100" stroke-width="10px" stroke="#800000"></polyline><polyline points="4500, 2600 4750, 2600" stroke-width="10px" stroke="#800000"></polyline><polyline points="4050, 2600 4200, 2600" stroke-width="10px" stroke="#800000"></polyline><polyline points="4050, 2200 4050, 2600" stroke-width="10px" stroke="#800000"></polyline><polyline points="3800, 2200 4050, 2200" stroke-width="10px" stroke="#800000"></polyline><text x="4350" y="2700" font-size="50.000000" text-anchor="middle" transform="rotate(0 4350 2700)" fill="#000000">R2</text><polyline points="4250, 2600 4200, 2600" stroke-width="10px" stroke="#000000"></polyline><polyline points="4450, 2600 4500, 2600" stroke-width="10px" stroke="#000000"></polyline><polyline points="4250, 2640 4250, 2560" stroke-width="10px" stroke="#000000"></polyline><polyline points="4450, 2640 4250, 2640" stroke-width="10px" stroke="#000000"></polyline><polyline points="4450, 2560 4450, 2640" stroke-width="10px" stroke="#000000"></polyline><polyline points="4250, 2560 4450, 2560" stroke-width="10px" stroke="#000000"></polyline><polyline points="4250, 2450 4300, 2450" stroke-width="10px" stroke="#000000"></polyline><polyline points="4300, 2500 4250, 2450" stroke-width="10px" stroke="#000000"></polyline><polyline points="4350, 2450 4300, 2500" stroke-width="10px" stroke="#000000"></polyline><polyline points="4300, 2450 4350, 2450" stroke-width="10px" stroke="#000000"></polyline><polyline points="4300, 2400 4300, 2450" stroke-width="10px" stroke="#000000"></polyline><polyline points="4300, 1800 4300, 1750" stroke-width="10px" stroke="#000000"></polyline><circle r="25" cx="4300" cy="1725" fill="none" stroke-width="10px" stroke="#000000"></circle><polyline points="4050, 2000 4100, 2000" stroke-width="10px" stroke="#800000"></polyline><text x="4950" y="2100" font-size="50.000000" text-anchor="start" transform="rotate(0 4950 2100)" fill="#FF0000">VOUT</text><text x="3400" y="2200" font-size="50.000000" text-anchor="start" transform="rotate(0 3400 2200)" fill="#FF0000">VIN</text><polyline points="3400, 2200 3500, 2200" stroke-width="10px" stroke="#800000"></polyline><text x="3650" y="2300" font-size="50.000000" text-anchor="middle" transform="rotate(0 3650 2300)" fill="#000000">R1</text><polyline points="3550, 2200 3500, 2200" stroke-width="10px" stroke="#000000"></polyline><polyline points="3750, 2200 3800, 2200" stroke-width="10px" stroke="#000000"></polyline><polyline points="3550, 2240 3550, 2160" stroke-width="10px" stroke="#000000"></polyline><polyline points="3750, 2240 3550, 2240" stroke-width="10px" stroke="#000000"></polyline><polyline points="3750, 2160 3750, 2240" stroke-width="10px" stroke="#000000"></polyline><polyline points="3550, 2160 3750, 2160" stroke-width="10px" stroke="#000000"></polyline><text x="4400" y="2250" font-size="50.000000" text-anchor="start" transform="rotate(0 4400 2250)" fill="#000000">Amplifier</text><text x="4700" y="2100" font-size="50.000000" text-anchor="end" transform="rotate(0 4700 2100)" fill="#000000">6</text><polyline points="4600, 2100 4700, 2100" stroke-width="10px" stroke="#000000"></polyline><text x="4100" y="2200" font-size="50.000000" text-anchor="start" transform="rotate(0 4100 2200)" fill="#000000">5</text><text x="4200" y="2200" font-size="50.000000" text-anchor="start" transform="rotate(0 4200 2200)" fill="#000000">-</text><polyline points="4200, 2200 4100, 2200" stroke-width="10px" stroke="#000000"></polyline><text x="4100" y="2000" font-size="50.000000" text-anchor="start" transform="rotate(0 4100 2000)" fill="#000000">4</text><text x="4200" y="2000" font-size="50.000000" text-anchor="start" transform="rotate(0 4200 2000)" fill="#000000">+</text><polyline points="4200, 2000 4100, 2000" stroke-width="10px" stroke="#000000"></polyline><text x="4300" y="1800" font-size="50.000000" text-anchor="end" transform="rotate(-90 4300 1800)" fill="#000000">3</text><text x="4300" y="1950" font-size="50.000000" text-anchor="end" transform="rotate(-90 4300 1950)" fill="#000000">V+</text><polyline points="4300, 1950 4300, 1800" stroke-width="10px" stroke="#000000"></polyline><text x="4300" y="2400" font-size="50.000000" text-anchor="start" transform="rotate(-90 4300 2400)" fill="#000000">2</text><text x="4300" y="2250" font-size="50.000000" text-anchor="start" transform="rotate(-90 4300 2250)" fill="#000000">GND</text><polyline points="4300, 2250 4300, 2400" stroke-width="10px" stroke="#000000"></polyline><polyline points="4200, 2300 4600, 2100" stroke-width="10px" stroke="#000000"></polyline><polyline points="4200, 1900 4200, 2300" stroke-width="10px" stroke="#000000"></polyline><polyline points="4600, 2100 4200, 1900" stroke-width="10px" stroke="#000000"></polyline><polyline points="4700, 2100 4750, 2100" stroke-width="10px" stroke="#800000"></polyline><polyline points="4100, 2050 4000, 2050" stroke-width="10px" stroke="#000000"></polyline><polyline points="4050, 2050 4050, 2000" stroke-width="10px" stroke="#000000"></polyline><polyline points="4045, 2100 4055, 2100" stroke-width="10px" stroke="#000000"></polyline><polyline points="4025, 2075 4075, 2075" stroke-width="10px" stroke="#000000"></polyline><text x="7693" y="7968" font-size="50.000000" text-anchor="start" transform="rotate(0 7693 7968)" fill="#000000">Page: 1 1</text><rect x="7593" y="7618" width="4000" height="400" fill="none" stroke-width="5px" stroke="#000000"></rect><rect x="7593" y="7918" width="4000" height="100" fill="none" stroke-width="5px" stroke="#000000"></rect><rect x="7593" y="8018" width="4000" height="150" fill="none" stroke-width="5px" stroke="#000000"></rect><rect x="100" y="100" width="11493" height="8068" fill="none" stroke-width="5px" stroke="#000000"></rect></svg>