<!DOCTYPE svg PUBLIC "-//W3C//DTD SVG 1.1//EN"
"http://www.w3.org/Graphics/SVG/1.1/DTD/svg11.dtd">
<svg xmlns="http://www.w3.org/2000/svg" xmlns:xlink="http://www.w3.org/1999/xlink" width="29.7002cm" height="21.0007cm" viewBox="0 0 11693 8268" font-family="Verdana, sans-serif" style="stroke-opacity:1.000000;fill-opacity:1.000000;"><rect fill="#FFFFFF" width="11693" height="8268" style="stroke-opacity:1.0;fill-opacity:1.0;"></rect><text x="5850" y="2100" font-size="50.000000" text-anchor="start" transform="rotate(0 5850 2100)" fill="#00FF00">Ns=N*Np</text><text x="5350" y="2350" font-size="50.000000" text-anchor="start" transform="rotate(0 5350 2350)" fill="#00FF00">Np</text><text x="5350" y="1900" font-size="50.000000" text-anchor="start" transform="rotate(0 5350 1900)" fill="#00FF00">Nr</text><circle r="10" cx="6450" cy="1900" fill="#000000" stroke-width="10px" stroke="#000000"></circle><polyline points="6500, 1900 6450, 1900" stroke-width="10px" stroke="#800000"></polyline><circle r="10" cx="6450" cy="2300" fill="#000000" stroke-width="10px" stroke="#000000"></circle><polyline points="6450, 2300 6850, 2300" stroke-width="10px" stroke="#800000"></polyline><polyline points="6850, 1900 6900, 1900" stroke-width="10px" stroke="#800000"></polyline><circle r="10" cx="6850" cy="1900" fill="#000000" stroke-width="10px" stroke="#000000"></circle><polyline points="6850, 1950 6850, 1900" stroke-width="10px" stroke="#800000"></polyline><polyline points="6800, 1900 6850, 1900" stroke-width="10px" stroke="#800000"></polyline><text x="6650" y="1801" font-size="50.000000" text-anchor="middle" transform="rotate(0 6650 1801)" fill="#000000">L1</text><polyline points="6750, 1900 6800, 1900" stroke-width="10px" stroke="#000000"></polyline><polyline points="6550, 1900 6500, 1900" stroke-width="10px" stroke="#000000"></polyline><path d="M6600,1900 A25,25 0 0,0 6550,1900" fill="none" stroke-width="10px" stroke="#000000"></path><path d="M6650,1900 A25,25 0 0,0 6600,1900" fill="none" stroke-width="10px" stroke="#000000"></path><path d="M6700,1900 A25,25 0 0,0 6650,1900" fill="none" stroke-width="10px" stroke="#000000"></path><path d="M6750,1900 A25,25 0 0,0 6700,1900" fill="none" stroke-width="10px" stroke="#000000"></path><polyline points="6450, 2300 6450, 1900" stroke-width="10px" stroke="#800000"></polyline><polyline points="6100, 1900 6150, 1900" stroke-width="10px" stroke="#800000"></polyline><text x="6350" y="1800" font-size="50.000000" text-anchor="end" transform="rotate(0 6350 1800)" fill="#000000">D?</text><polyline points="6250, 1900 6150, 1900" stroke-width="10px" stroke="#000000"></polyline><polyline points="6350, 1900 6450, 1900" stroke-width="10px" stroke="#000000"></polyline><polyline points="6350, 1900 6250, 1950" stroke-width="10px" stroke="#000000"></polyline><polyline points="6250, 1850 6350, 1900" stroke-width="10px" stroke="#000000"></polyline><polyline points="6250, 1950 6250, 1850" stroke-width="10px" stroke="#000000"></polyline><polyline points="6250, 1900 6350, 1900" stroke-width="10px" stroke="#000000"></polyline><polyline points="6350, 1950 6350, 1850" stroke-width="10px" stroke="#000000"></polyline><polyline points="5250, 3050 5250, 3100" stroke-width="10px" stroke="#800000"></polyline><circle r="10" cx="5250" cy="3050" fill="#000000" stroke-width="10px" stroke="#000000"></circle><polyline points="4000, 3050 5250, 3050" stroke-width="10px" stroke="#800000"></polyline><polyline points="4000, 2950 4000, 3050" stroke-width="10px" stroke="#800000"></polyline><circle r="10" cx="5300" cy="2200" fill="#000000" stroke-width="10px" stroke="#000000"></circle><polyline points="5250, 2900 5250, 3050" stroke-width="10px" stroke="#800000"></polyline><polyline points="5200, 1700 5300, 1700" stroke-width="10px" stroke="#800000"></polyline><polyline points="4850, 1700 4900, 1700" stroke-width="10px" stroke="#800000"></polyline><polyline points="4850, 1800 4850, 1700" stroke-width="10px" stroke="#800000"></polyline><text x="4855" y="1973" font-size="50.000000" text-anchor="middle" transform="rotate(0 4855 1973)" fill="#000000">GND</text><polyline points="4800, 1850 4850, 1850" stroke-width="10px" stroke="#000000"></polyline><polyline points="4850, 1900 4800, 1850" stroke-width="10px" stroke="#000000"></polyline><polyline points="4900, 1850 4850, 1900" stroke-width="10px" stroke="#000000"></polyline><polyline points="4850, 1850 4900, 1850" stroke-width="10px" stroke="#000000"></polyline><polyline points="4850, 1800 4850, 1850" stroke-width="10px" stroke="#000000"></polyline><text x="5100" y="1600" font-size="50.000000" text-anchor="end" transform="rotate(0 5100 1600)" fill="#000000">D1</text><polyline points="5000, 1700 4900, 1700" stroke-width="10px" stroke="#000000"></polyline><polyline points="5100, 1700 5200, 1700" stroke-width="10px" stroke="#000000"></polyline><polyline points="5100, 1700 5000, 1750" stroke-width="10px" stroke="#000000"></polyline><polyline points="5000, 1650 5100, 1700" stroke-width="10px" stroke="#000000"></polyline><polyline points="5000, 1750 5000, 1650" stroke-width="10px" stroke="#000000"></polyline><polyline points="5000, 1700 5100, 1700" stroke-width="10px" stroke="#000000"></polyline><polyline points="5100, 1750 5100, 1650" stroke-width="10px" stroke="#000000"></polyline><polyline points="5300, 2000 5300, 2200" stroke-width="10px" stroke="#800000"></polyline><text x="5401" y="2700" font-size="50.000000" text-anchor="middle" transform="rotate(0 5401 2700)" fill="#000000">Q1</text><text x="5250" y="2500" font-size="50.000000" text-anchor="end" transform="rotate(-90 5250 2500)" fill="#000000">3</text><polyline points="5250, 2600 5250, 2500" stroke-width="10px" stroke="#000000"></polyline><text x="4950" y="2700" font-size="50.000000" text-anchor="start" transform="rotate(0 4950 2700)" fill="#000000">2</text><polyline points="5150, 2700 4950, 2700" stroke-width="10px" stroke="#000000"></polyline><text x="5250" y="2900" font-size="50.000000" text-anchor="start" transform="rotate(-90 5250 2900)" fill="#000000">1</text><polyline points="5250, 2800 5250, 2900" stroke-width="10px" stroke="#000000"></polyline><polyline points="5295, 2710 5280, 2685" stroke-width="10px" stroke="#000000"></polyline><polyline points="5265, 2710 5295, 2710" stroke-width="10px" stroke="#000000"></polyline><polyline points="5280, 2685 5265, 2710" stroke-width="10px" stroke="#000000"></polyline><polyline points="5295, 2685 5300, 2690" stroke-width="10px" stroke="#000000"></polyline><polyline points="5265, 2685 5295, 2685" stroke-width="10px" stroke="#000000"></polyline><polyline points="5260, 2680 5265, 2685" stroke-width="10px" stroke="#000000"></polyline><polyline points="5280, 2770 5250, 2770" stroke-width="10px" stroke="#000000"></polyline><polyline points="5280, 2630 5280, 2770" stroke-width="10px" stroke="#000000"></polyline><polyline points="5250, 2630 5280, 2630" stroke-width="10px" stroke="#000000"></polyline><polyline points="5200, 2715 5240, 2700" stroke-width="10px" stroke="#000000"></polyline><polyline points="5200, 2685 5200, 2715" stroke-width="10px" stroke="#000000"></polyline><polyline points="5240, 2700 5200, 2685" stroke-width="10px" stroke="#000000"></polyline><polyline points="5240, 2700 5240, 2700" stroke-width="10px" stroke="#000000"></polyline><polyline points="5160, 2625 5160, 2625" stroke-width="10px" stroke="#000000"></polyline><polyline points="5160, 2775 5160, 2625" stroke-width="10px" stroke="#000000"></polyline><polyline points="5250, 2800 5250, 2770" stroke-width="10px" stroke="#000000"></polyline><polyline points="5250, 2630 5250, 2700" stroke-width="10px" stroke="#000000"></polyline><polyline points="5250, 2630 5250, 2600" stroke-width="10px" stroke="#000000"></polyline><polyline points="5180, 2790 5180, 2750" stroke-width="10px" stroke="#000000"></polyline><polyline points="5180, 2770 5250, 2770" stroke-width="10px" stroke="#000000"></polyline><polyline points="5180, 2720 5180, 2680" stroke-width="10px" stroke="#000000"></polyline><polyline points="5180, 2700 5250, 2700" stroke-width="10px" stroke="#000000"></polyline><polyline points="5180, 2650 5180, 2610" stroke-width="10px" stroke="#000000"></polyline><polyline points="5180, 2630 5250, 2630" stroke-width="10px" stroke="#000000"></polyline><polyline points="5152, 2700 5160, 2700" stroke-width="10px" stroke="#000000"></polyline><circle r="11" cx="5250" cy="2770" fill="none" stroke-width="10px" stroke="#000000"></circle><circle r="11" cx="5250" cy="2630" fill="none" stroke-width="10px" stroke="#000000"></circle><circle r="111" cx="5215" cy="2700" fill="none" stroke-width="10px" stroke="#000000"></circle><text x="5255" y="3273" font-size="50.000000" text-anchor="middle" transform="rotate(0 5255 3273)" fill="#000000">GND</text><polyline points="5200, 3150 5250, 3150" stroke-width="10px" stroke="#000000"></polyline><polyline points="5250, 3200 5200, 3150" stroke-width="10px" stroke="#000000"></polyline><polyline points="5300, 3150 5250, 3200" stroke-width="10px" stroke="#000000"></polyline><polyline points="5250, 3150 5300, 3150" stroke-width="10px" stroke="#000000"></polyline><polyline points="5250, 3100 5250, 3150" stroke-width="10px" stroke="#000000"></polyline><polyline points="4650, 2950 4700, 2950" stroke-width="10px" stroke="#800000"></polyline><polyline points="4700, 2950 4700, 2800" stroke-width="10px" stroke="#800000"></polyline><polyline points="4700, 2800 4750, 2800" stroke-width="10px" stroke="#800000"></polyline><polyline points="4750, 2800 4750, 2950" stroke-width="10px" stroke="#800000"></polyline><polyline points="4750, 2950 4950, 2950" stroke-width="10px" stroke="#800000"></polyline><polyline points="4950, 2950 4950, 2800" stroke-width="10px" stroke="#800000"></polyline><polyline points="4950, 2800 5000, 2800" stroke-width="10px" stroke="#800000"></polyline><polyline points="5000, 2950 5050, 2950" stroke-width="10px" stroke="#800000"></polyline><text x="4800" y="2700" font-size="50.000000" text-anchor="start" transform="rotate(0 4800 2700)" fill="#FF0000">CMD</text><text x="4700" y="2800" font-size="50.000000" text-anchor="start" transform="rotate(0 4700 2800)" fill="#FF0000">ton</text><text x="4750" y="2950" font-size="50.000000" text-anchor="start" transform="rotate(0 4750 2950)" fill="#FF0000">toff</text><polyline points="5000, 2800 5000, 2950" stroke-width="10px" stroke="#800000"></polyline><polyline points="4950, 2700 4750, 2700" stroke-width="10px" stroke="#800000"></polyline><polyline points="5300, 2500 5250, 2500" stroke-width="10px" stroke="#800000"></polyline><text x="5700" y="1475" font-size="50.000000" text-anchor="middle" transform="rotate(0 5700 1475)" fill="#000000">T1</text><text x="5300" y="1700" font-size="50.000000" text-anchor="start" transform="rotate(0 5300 1700)" fill="#000000">6</text><polyline points="5600, 1700 5300, 1700" stroke-width="10px" stroke="#000000"></polyline><text x="5300" y="2000" font-size="50.000000" text-anchor="start" transform="rotate(0 5300 2000)" fill="#000000">5</text><polyline points="5600, 2000 5300, 2000" stroke-width="10px" stroke="#000000"></polyline><text x="5300" y="2200" font-size="50.000000" text-anchor="start" transform="rotate(0 5300 2200)" fill="#000000">4</text><polyline points="5600, 2200 5300, 2200" stroke-width="10px" stroke="#000000"></polyline><text x="5300" y="2500" font-size="50.000000" text-anchor="start" transform="rotate(0 5300 2500)" fill="#000000">3</text><polyline points="5600, 2500 5300, 2500" stroke-width="10px" stroke="#000000"></polyline><text x="6100" y="1900" font-size="50.000000" text-anchor="end" transform="rotate(0 6100 1900)" fill="#000000">2</text><polyline points="5800, 1900 6100, 1900" stroke-width="10px" stroke="#000000"></polyline><text x="6100" y="2300" font-size="50.000000" text-anchor="end" transform="rotate(0 6100 2300)" fill="#000000">1</text><polyline points="5800, 2300 6100, 2300" stroke-width="10px" stroke="#000000"></polyline><polyline points="5680, 2500 5680, 1700" stroke-width="10px" stroke="#000000"></polyline><polyline points="5720, 1700 5720, 2500" stroke-width="10px" stroke="#000000"></polyline><path d="M5649,2450 A50,50 0 0,0 5600,2401" fill="none" stroke-width="10px" stroke="#000000"></path><path d="M5600,2500 A50,50 0 0,0 5649,2450" fill="none" stroke-width="10px" stroke="#000000"></path><path d="M5649,2350 A50,50 0 0,0 5600,2301" fill="none" stroke-width="10px" stroke="#000000"></path><path d="M5600,2400 A50,50 0 0,0 5649,2350" fill="none" stroke-width="10px" stroke="#000000"></path><path d="M5649,2250 A50,50 0 0,0 5600,2201" fill="none" stroke-width="10px" stroke="#000000"></path><path d="M5600,2300 A50,50 0 0,0 5649,2250" fill="none" stroke-width="10px" stroke="#000000"></path><path d="M5649,1950 A50,50 0 0,0 5600,1901" fill="none" stroke-width="10px" stroke="#000000"></path><path d="M5600,2000 A50,50 0 0,0 5649,1950" fill="none" stroke-width="10px" stroke="#000000"></path><path d="M5649,1850 A50,50 0 0,0 5600,1801" fill="none" stroke-width="10px" stroke="#000000"></path><path d="M5600,1900 A50,50 0 0,0 5649,1850" fill="none" stroke-width="10px" stroke="#000000"></path><path d="M5649,1750 A50,50 0 0,0 5600,1701" fill="none" stroke-width="10px" stroke="#000000"></path><path d="M5600,1800 A50,50 0 0,0 5649,1750" fill="none" stroke-width="10px" stroke="#000000"></path><path d="M5750,2250 A50,50 0 0,1 5800,2201" fill="none" stroke-width="10px" stroke="#000000"></path><path d="M5800,2300 A50,50 0 0,1 5750,2250" fill="none" stroke-width="10px" stroke="#000000"></path><path d="M5750,2150 A50,50 0 0,1 5800,2101" fill="none" stroke-width="10px" stroke="#000000"></path><path d="M5800,2200 A50,50 0 0,1 5750,2150" fill="none" stroke-width="10px" stroke="#000000"></path><path d="M5750,2050 A50,50 0 0,1 5800,2001" fill="none" stroke-width="10px" stroke="#000000"></path><path d="M5800,2100 A50,50 0 0,1 5750,2050" fill="none" stroke-width="10px" stroke="#000000"></path><path d="M5750,1950 A50,50 0 0,1 5800,1901" fill="none" stroke-width="10px" stroke="#000000"></path><path d="M5800,2000 A50,50 0 0,1 5750,1950" fill="none" stroke-width="10px" stroke="#000000"></path><circle r="10" cx="4000" cy="2200" fill="#000000" stroke-width="10px" stroke="#000000"></circle><polyline points="3850, 2200 4000, 2200" stroke-width="10px" stroke="#800000"></polyline><polyline points="4000, 2200 5300, 2200" stroke-width="10px" stroke="#800000"></polyline><circle r="10" cx="6850" cy="2300" fill="#000000" stroke-width="10px" stroke="#000000"></circle><polyline points="6850, 2300 6900, 2300" stroke-width="10px" stroke="#800000"></polyline><polyline points="6100, 2300 6150, 2300" stroke-width="10px" stroke="#800000"></polyline><text x="6900" y="1900" font-size="50.000000" text-anchor="start" transform="rotate(0 6900 1900)" fill="#FF0000">VOUT+</text><polyline points="4000, 2200 4000, 2650" stroke-width="10px" stroke="#800000"></polyline><polyline points="6850, 2250 6850, 2300" stroke-width="10px" stroke="#800000"></polyline><text x="3750" y="2800" font-size="50.000000" text-anchor="start" transform="rotate(0 3750 2800)" fill="#000000">Ci</text><polyline points="4000, 2840 4000, 2950" stroke-width="10px" stroke="#000000"></polyline><polyline points="4000, 2760 4000, 2650" stroke-width="10px" stroke="#000000"></polyline><polyline points="3920, 2770 4080, 2770" stroke-width="10px" stroke="#000000"></polyline><polyline points="3920, 2830 4080, 2830" stroke-width="10px" stroke="#000000"></polyline><text x="6900" y="2300" font-size="50.000000" text-anchor="start" transform="rotate(0 6900 2300)" fill="#FF0000">VOUT-</text><text x="3850" y="2200" font-size="50.000000" text-anchor="start" transform="rotate(0 3850 2200)" fill="#FF0000">VIN</text><text x="6965" y="2100" font-size="50.000000" text-anchor="start" transform="rotate(0 6965 2100)" fill="#000000">Co</text><polyline points="6850, 2140 6850, 2250" stroke-width="10px" stroke="#000000"></polyline><polyline points="6850, 2060 6850, 1950" stroke-width="10px" stroke="#000000"></polyline><polyline points="6770, 2070 6930, 2070" stroke-width="10px" stroke="#000000"></polyline><polyline points="6770, 2130 6930, 2130" stroke-width="10px" stroke="#000000"></polyline><text x="6350" y="2200" font-size="50.000000" text-anchor="end" transform="rotate(0 6350 2200)" fill="#000000">D2</text><polyline points="6250, 2300 6150, 2300" stroke-width="10px" stroke="#000000"></polyline><polyline points="6350, 2300 6450, 2300" stroke-width="10px" stroke="#000000"></polyline><polyline points="6350, 2300 6250, 2350" stroke-width="10px" stroke="#000000"></polyline><polyline points="6250, 2250 6350, 2300" stroke-width="10px" stroke="#000000"></polyline><polyline points="6250, 2350 6250, 2250" stroke-width="10px" stroke="#000000"></polyline><polyline points="6250, 2300 6350, 2300" stroke-width="10px" stroke="#000000"></polyline><polyline points="6350, 2350 6350, 2250" stroke-width="10px" stroke="#000000"></polyline><text x="7693" y="7968" font-size="50.000000" text-anchor="start" transform="rotate(0 7693 7968)" fill="#000000">Page: 1 1</text><rect x="7593" y="7618" width="4000" height="400" fill="none" stroke-width="5px" stroke="#000000"></rect><rect x="7593" y="7918" width="4000" height="100" fill="none" stroke-width="5px" stroke="#000000"></rect><rect x="7593" y="8018" width="4000" height="150" fill="none" stroke-width="5px" stroke="#000000"></rect><rect x="100" y="100" width="11493" height="8068" fill="none" stroke-width="5px" stroke="#000000"></rect></svg>