<!DOCTYPE svg PUBLIC "-//W3C//DTD SVG 1.1//EN"
"http://www.w3.org/Graphics/SVG/1.1/DTD/svg11.dtd">
<svg xmlns="http://www.w3.org/2000/svg" xmlns:xlink="http://www.w3.org/1999/xlink" width="29.7002cm" height="21.0007cm" viewBox="0 0 11693 8268" font-family="Verdana, sans-serif" style="stroke-opacity:1.000000;fill-opacity:1.000000;"><rect fill="#FFFFFF" width="11693" height="8268" style="stroke-opacity:1.0;fill-opacity:1.0;"></rect><polyline points="6800, 4800 7150, 4800" stroke-width="10px" stroke="#800000"></polyline><circle r="10" cx="6800" cy="4800" fill="#000000" stroke-width="10px" stroke="#000000"></circle><polyline points="6800, 4950 6800, 4800" stroke-width="10px" stroke="#800000"></polyline><polyline points="6500, 4800 6800, 4800" stroke-width="10px" stroke="#800000"></polyline><text x="7150" y="3750" font-size="50.000000" text-anchor="end" transform="rotate(-90 7150 3750)" fill="#FF0000">IOUT</text><polyline points="7150, 3500 7150, 4000" stroke-width="10px" stroke="#800000"></polyline><text x="7150" y="3350" font-size="50.000000" text-anchor="middle" transform="rotate(0 7150 3350)" fill="#000000">VOUT</text><polyline points="7150, 3500 7150, 3450" stroke-width="10px" stroke="#000000"></polyline><circle r="25" cx="7150" cy="3425" fill="none" stroke-width="10px" stroke="#000000"></circle><polyline points="7150, 4400 7150, 4800" stroke-width="10px" stroke="#800000"></polyline><polyline points="6500, 4400 6500, 4800" stroke-width="10px" stroke="#800000"></polyline><circle r="10" cx="6800" cy="4200" fill="#000000" stroke-width="10px" stroke="#000000"></circle><polyline points="6800, 4200 6850, 4200" stroke-width="10px" stroke="#800000"></polyline><circle r="10" cx="6500" cy="4000" fill="#000000" stroke-width="10px" stroke="#000000"></circle><polyline points="6800, 4000 6800, 4200" stroke-width="10px" stroke="#800000"></polyline><polyline points="6500, 4000 6800, 4000" stroke-width="10px" stroke="#800000"></polyline><polyline points="6500, 3900 6500, 4000" stroke-width="10px" stroke="#800000"></polyline><polyline points="6500, 3500 6500, 3600" stroke-width="10px" stroke="#800000"></polyline><text x="6410" y="4200" font-size="50.000000" text-anchor="end" transform="rotate(0 6410 4200)" fill="#000000">Q1</text><text x="6500" y="4400" font-size="50.000000" text-anchor="start" transform="rotate(-90 6500 4400)" fill="#000000">3</text><polyline points="6500, 4300 6500, 4400" stroke-width="10px" stroke="#000000"></polyline><text x="6500" y="4000" font-size="50.000000" text-anchor="end" transform="rotate(-90 6500 4000)" fill="#000000">2</text><polyline points="6500, 4100 6500, 4000" stroke-width="10px" stroke="#000000"></polyline><text x="6800" y="4200" font-size="50.000000" text-anchor="end" transform="rotate(0 6800 4200)" fill="#000000">1</text><polyline points="6575, 4200 6800, 4200" stroke-width="10px" stroke="#000000"></polyline><polyline points="6550, 4270 6550, 4270" stroke-width="10px" stroke="#000000"></polyline><polyline points="6510, 4290 6550, 4270" stroke-width="10px" stroke="#000000"></polyline><polyline points="6530, 4250 6510, 4290" stroke-width="10px" stroke="#000000"></polyline><polyline points="6550, 4270 6530, 4250" stroke-width="10px" stroke="#000000"></polyline><polyline points="6550, 4270 6550, 4270" stroke-width="10px" stroke="#000000"></polyline><polyline points="6575, 4275 6575, 4275" stroke-width="10px" stroke="#000000"></polyline><polyline points="6575, 4125 6575, 4275" stroke-width="10px" stroke="#000000"></polyline><polyline points="6500, 4300 6500, 4300" stroke-width="10px" stroke="#000000"></polyline><polyline points="6575, 4225 6500, 4300" stroke-width="10px" stroke="#000000"></polyline><polyline points="6575, 4175 6500, 4100" stroke-width="10px" stroke="#000000"></polyline><circle r="111" cx="6550" cy="4200" fill="none" stroke-width="10px" stroke="#000000"></circle><text x="6500" y="3350" font-size="50.000000" text-anchor="middle" transform="rotate(0 6500 3350)" fill="#000000">VIN</text><polyline points="6500, 3500 6500, 3450" stroke-width="10px" stroke="#000000"></polyline><circle r="25" cx="6500" cy="3425" fill="none" stroke-width="10px" stroke="#000000"></circle><text x="6805" y="5123" font-size="50.000000" text-anchor="middle" transform="rotate(0 6805 5123)" fill="#000000">GND</text><polyline points="6750, 5000 6800, 5000" stroke-width="10px" stroke="#000000"></polyline><polyline points="6800, 5050 6750, 5000" stroke-width="10px" stroke="#000000"></polyline><polyline points="6850, 5000 6800, 5050" stroke-width="10px" stroke="#000000"></polyline><polyline points="6800, 5000 6850, 5000" stroke-width="10px" stroke="#000000"></polyline><polyline points="6800, 4950 6800, 5000" stroke-width="10px" stroke="#000000"></polyline><text x="6570" y="3750" font-size="50.000000" text-anchor="start" transform="rotate(0 6570 3750)" fill="#000000">R1</text><polyline points="6500, 3850 6500, 3900" stroke-width="10px" stroke="#000000"></polyline><polyline points="6500, 3650 6500, 3600" stroke-width="10px" stroke="#000000"></polyline><polyline points="6540, 3850 6460, 3850" stroke-width="10px" stroke="#000000"></polyline><polyline points="6540, 3650 6540, 3850" stroke-width="10px" stroke="#000000"></polyline><polyline points="6460, 3650 6540, 3650" stroke-width="10px" stroke="#000000"></polyline><polyline points="6460, 3850 6460, 3650" stroke-width="10px" stroke="#000000"></polyline><text x="7240" y="4200" font-size="50.000000" text-anchor="start" transform="rotate(0 7240 4200)" fill="#000000">Q2</text><text x="7150" y="4400" font-size="50.000000" text-anchor="start" transform="rotate(-90 7150 4400)" fill="#000000">3</text><polyline points="7150, 4300 7150, 4400" stroke-width="10px" stroke="#000000"></polyline><text x="7150" y="4000" font-size="50.000000" text-anchor="end" transform="rotate(-90 7150 4000)" fill="#000000">2</text><polyline points="7150, 4100 7150, 4000" stroke-width="10px" stroke="#000000"></polyline><text x="6850" y="4200" font-size="50.000000" text-anchor="start" transform="rotate(0 6850 4200)" fill="#000000">1</text><polyline points="7075, 4200 6850, 4200" stroke-width="10px" stroke="#000000"></polyline><polyline points="7100, 4270 7100, 4270" stroke-width="10px" stroke="#000000"></polyline><polyline points="7140, 4290 7100, 4270" stroke-width="10px" stroke="#000000"></polyline><polyline points="7120, 4250 7140, 4290" stroke-width="10px" stroke="#000000"></polyline><polyline points="7100, 4270 7120, 4250" stroke-width="10px" stroke="#000000"></polyline><polyline points="7100, 4270 7100, 4270" stroke-width="10px" stroke="#000000"></polyline><polyline points="7075, 4275 7075, 4275" stroke-width="10px" stroke="#000000"></polyline><polyline points="7075, 4125 7075, 4275" stroke-width="10px" stroke="#000000"></polyline><polyline points="7150, 4300 7150, 4300" stroke-width="10px" stroke="#000000"></polyline><polyline points="7075, 4225 7150, 4300" stroke-width="10px" stroke="#000000"></polyline><polyline points="7075, 4175 7150, 4100" stroke-width="10px" stroke="#000000"></polyline><circle r="111" cx="7100" cy="4200" fill="none" stroke-width="10px" stroke="#000000"></circle><text x="7693" y="7968" font-size="50.000000" text-anchor="start" transform="rotate(0 7693 7968)" fill="#000000">Page: 1 1</text><rect x="7593" y="7618" width="4000" height="400" fill="none" stroke-width="5px" stroke="#000000"></rect><rect x="7593" y="7918" width="4000" height="100" fill="none" stroke-width="5px" stroke="#000000"></rect><rect x="7593" y="8018" width="4000" height="150" fill="none" stroke-width="5px" stroke="#000000"></rect><rect x="100" y="100" width="11493" height="8068" fill="none" stroke-width="5px" stroke="#000000"></rect></svg>