<!DOCTYPE svg PUBLIC "-//W3C//DTD SVG 1.1//EN"
"http://www.w3.org/Graphics/SVG/1.1/DTD/svg11.dtd">
<svg xmlns="http://www.w3.org/2000/svg" xmlns:xlink="http://www.w3.org/1999/xlink" width="29.7002cm" height="21.0007cm" viewBox="0 0 11693 8268" font-family="Verdana, sans-serif" style="stroke-opacity:1.000000;fill-opacity:1.000000;"><rect fill="#FFFFFF" width="11693" height="8268" style="stroke-opacity:1.0;fill-opacity:1.0;"></rect><polyline points="4800, 3900 5200, 3900" stroke-width="10px" stroke="#800000"></polyline><polyline points="5500, 4200 5500, 4600" stroke-width="10px" stroke="#800000"></polyline><polyline points="5800, 3900 6100, 3900" stroke-width="10px" stroke="#800000"></polyline><text x="5600" y="4200" font-size="59.000000" text-anchor="start" transform="rotate(0 5600 4200)" fill="#000000">U1</text><text x="5600" y="4300" font-size="59.000000" text-anchor="start" transform="rotate(0 5600 4300)" fill="#000000">V_REG_317DPACK</text><text x="5800" y="3900" font-size="0.000000" text-anchor="end" transform="rotate(0 5800 3900)" fill="#000000">4</text><text x="5700" y="3900" font-size="0.000000" text-anchor="end" transform="rotate(0 5700 3900)" fill="#000000">OUT</text><polyline points="5700, 3900 5800, 3900" stroke-width="10px" stroke="#000000"></polyline><text x="5200" y="3900" font-size="0.000000" text-anchor="start" transform="rotate(0 5200 3900)" fill="#000000">3</text><text x="5300" y="3900" font-size="0.000000" text-anchor="start" transform="rotate(0 5300 3900)" fill="#000000">IN</text><polyline points="5300, 3900 5200, 3900" stroke-width="10px" stroke="#000000"></polyline><text x="5500" y="4200" font-size="0.000000" text-anchor="start" transform="rotate(-90 5500 4200)" fill="#000000">1</text><text x="5500" y="4100" font-size="0.000000" text-anchor="start" transform="rotate(-90 5500 4100)" fill="#000000">ADJ</text><polyline points="5500, 4100 5500, 4200" stroke-width="10px" stroke="#000000"></polyline><polyline points="5700, 3800 5300, 3800" stroke-width="10px" stroke="#000000"></polyline><polyline points="5700, 4100 5700, 3800" stroke-width="10px" stroke="#000000"></polyline><polyline points="5300, 3800 5300, 4100" stroke-width="10px" stroke="#000000"></polyline><polyline points="5300, 4100 5700, 4100" stroke-width="10px" stroke="#000000"></polyline><text x="5525" y="3925" font-size="51.000000" text-anchor="start" transform="rotate(0 5525 3925)" fill="#000000">OUT</text><text x="5325" y="3925" font-size="51.000000" text-anchor="start" transform="rotate(0 5325 3925)" fill="#000000">IN</text><text x="5420" y="4070" font-size="51.000000" text-anchor="start" transform="rotate(0 5420 4070)" fill="#000000">ADJ</text><text x="4700" y="4700" font-size="59.000000" text-anchor="start" transform="rotate(0 4700 4700)" fill="#000000">GND</text><text x="4800" y="4500" font-size="0.000000" text-anchor="end" transform="rotate(-90 4800 4500)" fill="#000000">1</text><text x="4800" y="4600" font-size="0.000000" text-anchor="end" transform="rotate(-90 4800 4600)" fill="#000000">GND</text><polyline points="4800, 4600 4800, 4500" stroke-width="10px" stroke="#000000"></polyline><polyline points="4725, 4600 4875, 4600" stroke-width="10px" stroke="#000000"></polyline><text x="6150" y="3841" font-size="59.000000" text-anchor="start" transform="rotate(0 6150 3841)" fill="#000000">R1</text><text x="6150" y="4030" font-size="59.000000" text-anchor="start" transform="rotate(0 6150 4030)" fill="#000000">1.2</text><text x="6500" y="3900" font-size="0.000000" text-anchor="end" transform="rotate(0 6500 3900)" fill="#000000">2</text><text x="6400" y="3900" font-size="0.000000" text-anchor="end" transform="rotate(0 6400 3900)" fill="#000000">2</text><polyline points="6400, 3900 6500, 3900" stroke-width="10px" stroke="#000000"></polyline><text x="6100" y="3900" font-size="0.000000" text-anchor="start" transform="rotate(0 6100 3900)" fill="#000000">1</text><text x="6200" y="3900" font-size="0.000000" text-anchor="start" transform="rotate(0 6200 3900)" fill="#000000">1</text><polyline points="6200, 3900 6100, 3900" stroke-width="10px" stroke="#000000"></polyline><polyline points="6390, 3940 6400, 3900" stroke-width="10px" stroke="#000000"></polyline><polyline points="6365, 3860 6390, 3940" stroke-width="10px" stroke="#000000"></polyline><polyline points="6340, 3940 6365, 3860" stroke-width="10px" stroke="#000000"></polyline><polyline points="6315, 3860 6340, 3940" stroke-width="10px" stroke="#000000"></polyline><polyline points="6290, 3940 6315, 3860" stroke-width="10px" stroke="#000000"></polyline><polyline points="6265, 3860 6290, 3940" stroke-width="10px" stroke="#000000"></polyline><polyline points="6240, 3940 6265, 3860" stroke-width="10px" stroke="#000000"></polyline><polyline points="6215, 3860 6240, 3940" stroke-width="10px" stroke="#000000"></polyline><polyline points="6200, 3900 6215, 3860" stroke-width="10px" stroke="#000000"></polyline><text x="4800" y="4300" font-size="0.000000" text-anchor="start" transform="rotate(-90 4800 4300)" fill="#000000">2</text><text x="4800" y="4200" font-size="0.000000" text-anchor="start" transform="rotate(-90 4800 4200)" fill="#000000">2</text><polyline points="4800, 4200 4800, 4300" stroke-width="10px" stroke="#000000"></polyline><text x="4800" y="4000" font-size="0.000000" text-anchor="end" transform="rotate(-90 4800 4000)" fill="#000000">1</text><text x="4800" y="4100" font-size="0.000000" text-anchor="end" transform="rotate(-90 4800 4100)" fill="#000000">1</text><polyline points="4800, 4100 4800, 4000" stroke-width="10px" stroke="#000000"></polyline><polyline points="4800, 4100 4800, 4120" stroke-width="10px" stroke="#000000"></polyline><polyline points="4800, 4200 4800, 4180" stroke-width="10px" stroke="#000000"></polyline><polyline points="4880, 4140 4720, 4140" stroke-width="10px" stroke="#000000"></polyline><polyline points="4880, 4120 4880, 4140" stroke-width="10px" stroke="#000000"></polyline><polyline points="4720, 4120 4880, 4120" stroke-width="10px" stroke="#000000"></polyline><polyline points="4720, 4140 4720, 4120" stroke-width="10px" stroke="#000000"></polyline><polyline points="4880, 4180 4720, 4180" stroke-width="10px" stroke="#000000"></polyline><polyline points="4880, 4160 4880, 4180" stroke-width="10px" stroke="#000000"></polyline><polyline points="4720, 4160 4880, 4160" stroke-width="10px" stroke="#000000"></polyline><polyline points="4720, 4180 4720, 4160" stroke-width="10px" stroke="#000000"></polyline><text x="4725" y="3575" font-size="59.000000" text-anchor="start" transform="rotate(0 4725 3575)" fill="#000000">+9V</text><text x="4800" y="3800" font-size="0.000000" text-anchor="start" transform="rotate(-90 4800 3800)" fill="#000000">1</text><text x="4800" y="3700" font-size="0.000000" text-anchor="start" transform="rotate(-90 4800 3700)" fill="#000000">+9V</text><polyline points="4800, 3700 4800, 3800" stroke-width="10px" stroke="#000000"></polyline><polyline points="4800, 3675 4800, 3625" stroke-width="10px" stroke="#000000"></polyline><polyline points="4775, 3650 4825, 3650" stroke-width="10px" stroke="#000000"></polyline><circle r="50" cx="4800" cy="3650" fill="none" stroke-width="10px" stroke="#000000"></circle><polyline points="4800, 4500 4800, 4300" stroke-width="10px" stroke="#800000"></polyline><circle r="10" cx="4800" cy="3900" fill="#000000" stroke-width="10px" stroke="#000000"></circle><polyline points="4800, 3900 4800, 4000" stroke-width="10px" stroke="#800000"></polyline><polyline points="4800, 3900 4800, 3800" stroke-width="10px" stroke="#800000"></polyline><text x="6700" y="3900" font-size="70.000000" text-anchor="start" transform="rotate(0 6700 3900)" fill="#FF0000">OUT</text><circle r="10" cx="6600" cy="3900" fill="#000000" stroke-width="10px" stroke="#000000"></circle><polyline points="6600, 4600 5500, 4600" stroke-width="10px" stroke="#800000"></polyline><polyline points="6600, 3900 6600, 4600" stroke-width="10px" stroke="#800000"></polyline><polyline points="6600, 3900 6900, 3900" stroke-width="10px" stroke="#800000"></polyline><polyline points="6500, 3900 6600, 3900" stroke-width="10px" stroke="#800000"></polyline><text x="7693" y="7968" font-size="50.000000" text-anchor="start" transform="rotate(0 7693 7968)" fill="#000000">Page: 1 1</text><rect x="7593" y="7618" width="4000" height="400" fill="none" stroke-width="5px" stroke="#000000"></rect><rect x="7593" y="7918" width="4000" height="100" fill="none" stroke-width="5px" stroke="#000000"></rect><rect x="7593" y="8018" width="4000" height="150" fill="none" stroke-width="5px" stroke="#000000"></rect><rect x="100" y="100" width="11493" height="8068" fill="none" stroke-width="5px" stroke="#000000"></rect></svg>