<!DOCTYPE svg PUBLIC "-//W3C//DTD SVG 1.1//EN"
"http://www.w3.org/Graphics/SVG/1.1/DTD/svg11.dtd">
<svg xmlns="http://www.w3.org/2000/svg" xmlns:xlink="http://www.w3.org/1999/xlink" width="29.7002cm" height="21.0007cm" viewBox="0 0 11693 8268" font-family="Verdana, sans-serif" style="stroke-opacity:1.000000;fill-opacity:1.000000;"><rect fill="#FFFFFF" width="11693" height="8268" style="stroke-opacity:1.0;fill-opacity:1.0;"></rect><text x="4450" y="2700" font-size="50.000000" text-anchor="start" transform="rotate(0 4450 2700)" fill="#FF0000">IN</text><text x="5000" y="2700" font-size="50.000000" text-anchor="start" transform="rotate(0 5000 2700)" fill="#FF0000">OUT</text><polyline points="4600, 2700 4600, 2850" stroke-width="10px" stroke="#800000"></polyline><circle r="10" cx="4600" cy="2700" fill="#000000" stroke-width="10px" stroke="#000000"></circle><polyline points="4450, 2700 4600, 2700" stroke-width="10px" stroke="#800000"></polyline><polyline points="4900, 2700 4900, 2850" stroke-width="10px" stroke="#800000"></polyline><circle r="10" cx="4900" cy="2700" fill="#000000" stroke-width="10px" stroke="#000000"></circle><polyline points="5050, 2700 4900, 2700" stroke-width="10px" stroke="#800000"></polyline><polyline points="4900, 2550 4900, 2700" stroke-width="10px" stroke="#800000"></polyline><polyline points="4600, 2550 4600, 2700" stroke-width="10px" stroke="#800000"></polyline><text x="4750" y="2726" font-size="50.000000" text-anchor="middle" transform="rotate(0 4750 2726)" fill="#000000">D2</text><polyline points="4700, 2850 4600, 2850" stroke-width="10px" stroke="#000000"></polyline><polyline points="4800, 2850 4900, 2850" stroke-width="10px" stroke="#000000"></polyline><polyline points="4800, 2850 4700, 2800" stroke-width="10px" stroke="#000000"></polyline><polyline points="4700, 2900 4800, 2850" stroke-width="10px" stroke="#000000"></polyline><polyline points="4700, 2800 4700, 2900" stroke-width="10px" stroke="#000000"></polyline><polyline points="4700, 2850 4800, 2850" stroke-width="10px" stroke="#000000"></polyline><polyline points="4800, 2800 4800, 2900" stroke-width="10px" stroke="#000000"></polyline><text x="4750" y="2426" font-size="50.000000" text-anchor="middle" transform="rotate(0 4750 2426)" fill="#000000">D1</text><polyline points="4700, 2550 4600, 2550" stroke-width="10px" stroke="#000000"></polyline><polyline points="4800, 2550 4900, 2550" stroke-width="10px" stroke="#000000"></polyline><polyline points="4800, 2550 4700, 2500" stroke-width="10px" stroke="#000000"></polyline><polyline points="4700, 2600 4800, 2550" stroke-width="10px" stroke="#000000"></polyline><polyline points="4700, 2500 4700, 2600" stroke-width="10px" stroke="#000000"></polyline><polyline points="4700, 2550 4800, 2550" stroke-width="10px" stroke="#000000"></polyline><polyline points="4800, 2500 4800, 2600" stroke-width="10px" stroke="#000000"></polyline><text x="7693" y="7968" font-size="50.000000" text-anchor="start" transform="rotate(0 7693 7968)" fill="#000000">Page: 1 1</text><rect x="7593" y="7618" width="4000" height="400" fill="none" stroke-width="5px" stroke="#000000"></rect><rect x="7593" y="7918" width="4000" height="100" fill="none" stroke-width="5px" stroke="#000000"></rect><rect x="7593" y="8018" width="4000" height="150" fill="none" stroke-width="5px" stroke="#000000"></rect><rect x="100" y="100" width="11493" height="8068" fill="none" stroke-width="5px" stroke="#000000"></rect></svg>