<!DOCTYPE svg PUBLIC "-//W3C//DTD SVG 1.1//EN"
"http://www.w3.org/Graphics/SVG/1.1/DTD/svg11.dtd">
<svg xmlns="http://www.w3.org/2000/svg" xmlns:xlink="http://www.w3.org/1999/xlink" width="29.7002cm" height="21.0007cm" viewBox="0 0 11693 8268" font-family="Verdana, sans-serif" style="stroke-opacity:1.000000;fill-opacity:1.000000;"><rect fill="#FFFFFF" width="11693" height="8268" style="stroke-opacity:1.0;fill-opacity:1.0;"></rect><polyline points="5950, 3200 5950, 3450" stroke-width="10px" stroke="#800000"></polyline><text x="5955" y="3623" font-size="50.000000" text-anchor="middle" transform="rotate(0 5955 3623)" fill="#000000">GND</text><polyline points="5900, 3500 5950, 3500" stroke-width="10px" stroke="#000000"></polyline><polyline points="5950, 3550 5900, 3500" stroke-width="10px" stroke="#000000"></polyline><polyline points="6000, 3500 5950, 3550" stroke-width="10px" stroke="#000000"></polyline><polyline points="5950, 3500 6000, 3500" stroke-width="10px" stroke="#000000"></polyline><polyline points="5950, 3450 5950, 3500" stroke-width="10px" stroke="#000000"></polyline><text x="5350" y="2700" font-size="50.000000" text-anchor="start" transform="rotate(0 5350 2700)" fill="#FF0000">VIN</text><text x="6200" y="2700" font-size="50.000000" text-anchor="start" transform="rotate(0 6200 2700)" fill="#FF0000">VOUT</text><polyline points="5950, 2700 5950, 2800" stroke-width="10px" stroke="#800000"></polyline><circle r="10" cx="5950" cy="2700" fill="#000000" stroke-width="10px" stroke="#000000"></circle><polyline points="6250, 2700 5950, 2700" stroke-width="10px" stroke="#800000"></polyline><polyline points="5650, 2700 5650, 3000" stroke-width="10px" stroke="#800000"></polyline><circle r="10" cx="5650" cy="2700" fill="#000000" stroke-width="10px" stroke="#000000"></circle><polyline points="5300, 2700 5650, 2700" stroke-width="10px" stroke="#800000"></polyline><polyline points="5650, 2400 5650, 2700" stroke-width="10px" stroke="#800000"></polyline><polyline points="5950, 2050 5950, 2200" stroke-width="10px" stroke="#800000"></polyline><text x="6038" y="2013" font-size="50.000000" text-anchor="start" transform="rotate(0 6038 2013)" fill="#000000">VCC</text><polyline points="5950, 1950 5980, 2000" stroke-width="10px" stroke="#000000"></polyline><polyline points="5950, 2050 5950, 1950" stroke-width="10px" stroke="#000000"></polyline><polyline points="5920, 2000 5950, 1950" stroke-width="10px" stroke="#000000"></polyline><polyline points="5950, 2600 5950, 2700" stroke-width="10px" stroke="#800000"></polyline><text x="6056" y="2400" font-size="50.000000" text-anchor="start" transform="rotate(0 6056 2400)" fill="#000000">Q1</text><text x="5950" y="2200" font-size="50.000000" text-anchor="end" transform="rotate(-90 5950 2200)" fill="#000000">3</text><polyline points="5950, 2300 5950, 2200" stroke-width="10px" stroke="#000000"></polyline><text x="5950" y="2600" font-size="50.000000" text-anchor="start" transform="rotate(-90 5950 2600)" fill="#000000">2</text><polyline points="5950, 2500 5950, 2600" stroke-width="10px" stroke="#000000"></polyline><text x="5650" y="2400" font-size="50.000000" text-anchor="start" transform="rotate(0 5650 2400)" fill="#000000">1</text><polyline points="5850, 2400 5650, 2400" stroke-width="10px" stroke="#000000"></polyline><polyline points="5995, 2410 5980, 2385" stroke-width="10px" stroke="#000000"></polyline><polyline points="5965, 2410 5995, 2410" stroke-width="10px" stroke="#000000"></polyline><polyline points="5980, 2385 5965, 2410" stroke-width="10px" stroke="#000000"></polyline><polyline points="5995, 2385 6000, 2390" stroke-width="10px" stroke="#000000"></polyline><polyline points="5965, 2385 5995, 2385" stroke-width="10px" stroke="#000000"></polyline><polyline points="5960, 2380 5965, 2385" stroke-width="10px" stroke="#000000"></polyline><polyline points="5980, 2470 5950, 2470" stroke-width="10px" stroke="#000000"></polyline><polyline points="5980, 2330 5980, 2470" stroke-width="10px" stroke="#000000"></polyline><polyline points="5950, 2330 5980, 2330" stroke-width="10px" stroke="#000000"></polyline><polyline points="5900, 2415 5940, 2400" stroke-width="10px" stroke="#000000"></polyline><polyline points="5900, 2385 5900, 2415" stroke-width="10px" stroke="#000000"></polyline><polyline points="5940, 2400 5900, 2385" stroke-width="10px" stroke="#000000"></polyline><polyline points="5940, 2400 5940, 2400" stroke-width="10px" stroke="#000000"></polyline><polyline points="5860, 2325 5860, 2325" stroke-width="10px" stroke="#000000"></polyline><polyline points="5860, 2475 5860, 2325" stroke-width="10px" stroke="#000000"></polyline><polyline points="5950, 2500 5950, 2470" stroke-width="10px" stroke="#000000"></polyline><polyline points="5950, 2330 5950, 2400" stroke-width="10px" stroke="#000000"></polyline><polyline points="5950, 2330 5950, 2300" stroke-width="10px" stroke="#000000"></polyline><polyline points="5880, 2490 5880, 2450" stroke-width="10px" stroke="#000000"></polyline><polyline points="5880, 2470 5950, 2470" stroke-width="10px" stroke="#000000"></polyline><polyline points="5880, 2420 5880, 2380" stroke-width="10px" stroke="#000000"></polyline><polyline points="5880, 2400 5950, 2400" stroke-width="10px" stroke="#000000"></polyline><polyline points="5880, 2350 5880, 2310" stroke-width="10px" stroke="#000000"></polyline><polyline points="5880, 2330 5950, 2330" stroke-width="10px" stroke="#000000"></polyline><polyline points="5852, 2400 5860, 2400" stroke-width="10px" stroke="#000000"></polyline><circle r="11" cx="5950" cy="2470" fill="none" stroke-width="10px" stroke="#000000"></circle><circle r="11" cx="5950" cy="2330" fill="none" stroke-width="10px" stroke="#000000"></circle><circle r="111" cx="5915" cy="2400" fill="none" stroke-width="10px" stroke="#000000"></circle><text x="6056" y="3000" font-size="50.000000" text-anchor="start" transform="rotate(0 6056 3000)" fill="#000000">Q2</text><text x="5950" y="2800" font-size="50.000000" text-anchor="end" transform="rotate(-90 5950 2800)" fill="#000000">3</text><polyline points="5950, 2900 5950, 2800" stroke-width="10px" stroke="#000000"></polyline><text x="5650" y="3000" font-size="50.000000" text-anchor="start" transform="rotate(0 5650 3000)" fill="#000000">2</text><polyline points="5850, 3000 5650, 3000" stroke-width="10px" stroke="#000000"></polyline><text x="5950" y="3200" font-size="50.000000" text-anchor="start" transform="rotate(-90 5950 3200)" fill="#000000">1</text><polyline points="5950, 3100 5950, 3200" stroke-width="10px" stroke="#000000"></polyline><polyline points="5995, 3010 5980, 2985" stroke-width="10px" stroke="#000000"></polyline><polyline points="5965, 3010 5995, 3010" stroke-width="10px" stroke="#000000"></polyline><polyline points="5980, 2985 5965, 3010" stroke-width="10px" stroke="#000000"></polyline><polyline points="5995, 2985 6000, 2990" stroke-width="10px" stroke="#000000"></polyline><polyline points="5965, 2985 5995, 2985" stroke-width="10px" stroke="#000000"></polyline><polyline points="5960, 2980 5965, 2985" stroke-width="10px" stroke="#000000"></polyline><polyline points="5980, 2930 5950, 2930" stroke-width="10px" stroke="#000000"></polyline><polyline points="5980, 3070 5980, 2930" stroke-width="10px" stroke="#000000"></polyline><polyline points="5950, 3070 5980, 3070" stroke-width="10px" stroke="#000000"></polyline><polyline points="5930, 3015 5890, 3000" stroke-width="10px" stroke="#000000"></polyline><polyline points="5930, 2985 5930, 3015" stroke-width="10px" stroke="#000000"></polyline><polyline points="5890, 3000 5930, 2985" stroke-width="10px" stroke="#000000"></polyline><polyline points="5890, 3000 5890, 3000" stroke-width="10px" stroke="#000000"></polyline><polyline points="5860, 3075 5860, 3075" stroke-width="10px" stroke="#000000"></polyline><polyline points="5860, 2925 5860, 3075" stroke-width="10px" stroke="#000000"></polyline><polyline points="5950, 2900 5950, 2930" stroke-width="10px" stroke="#000000"></polyline><polyline points="5950, 3070 5950, 3000" stroke-width="10px" stroke="#000000"></polyline><polyline points="5950, 3070 5950, 3100" stroke-width="10px" stroke="#000000"></polyline><polyline points="5880, 2910 5880, 2950" stroke-width="10px" stroke="#000000"></polyline><polyline points="5880, 2930 5950, 2930" stroke-width="10px" stroke="#000000"></polyline><polyline points="5880, 2980 5880, 3020" stroke-width="10px" stroke="#000000"></polyline><polyline points="5880, 3000 5950, 3000" stroke-width="10px" stroke="#000000"></polyline><polyline points="5880, 3050 5880, 3090" stroke-width="10px" stroke="#000000"></polyline><polyline points="5880, 3070 5950, 3070" stroke-width="10px" stroke="#000000"></polyline><polyline points="5852, 3000 5860, 3000" stroke-width="10px" stroke="#000000"></polyline><circle r="11" cx="5950" cy="2930" fill="none" stroke-width="10px" stroke="#000000"></circle><circle r="11" cx="5950" cy="3070" fill="none" stroke-width="10px" stroke="#000000"></circle><circle r="111" cx="5915" cy="3000" fill="none" stroke-width="10px" stroke="#000000"></circle><text x="7693" y="7968" font-size="50.000000" text-anchor="start" transform="rotate(0 7693 7968)" fill="#000000">Page: 1 1</text><rect x="7593" y="7618" width="4000" height="400" fill="none" stroke-width="5px" stroke="#000000"></rect><rect x="7593" y="7918" width="4000" height="100" fill="none" stroke-width="5px" stroke="#000000"></rect><rect x="7593" y="8018" width="4000" height="150" fill="none" stroke-width="5px" stroke="#000000"></rect><rect x="100" y="100" width="11493" height="8068" fill="none" stroke-width="5px" stroke="#000000"></rect></svg>