<svg xmlns="http://www.w3.org/2000/svg" xmlns:xlink="http://www.w3.org/1999/xlink" viewBox="5570.0 2975.24 1800.0 2247.6" font-family="Verdana, sans-serif" style="stroke-opacity:1.000000;fill-opacity:1.000000;">
  <text x="6800" y="4250" font-size="50.000000" text-anchor="start" transform="rotate(0 6800 4250)" fill="#000000">S</text>
  <text x="6350" y="4250" font-size="50.000000" text-anchor="start" transform="rotate(0 6350 4250)" fill="#000000">R</text>
  <circle r="10" cx="6450" cy="4850" fill="#000000" stroke-width="10px" stroke="#000000"/>
  <polyline points="6150, 4450 6150, 4850" stroke-width="10px" stroke="#000000"/>
  <polyline points="6150, 4850 6450, 4850" stroke-width="10px" stroke="#000000"/>
  <circle r="10" cx="6750" cy="4850" fill="#000000" stroke-width="10px" stroke="#000000"/>
  <polyline points="7050, 4450 7050, 4850" stroke-width="10px" stroke="#000000"/>
  <polyline points="7050, 4850 6750, 4850" stroke-width="10px" stroke="#000000"/>
  <polyline points="6600, 4850 6450, 4850" stroke-width="10px" stroke="#000000"/>
  <circle r="10" cx="6600" cy="4850" fill="#000000" stroke-width="10px" stroke="#000000"/>
  <polyline points="6600, 4900 6600, 4850" stroke-width="10px" stroke="#000000"/>
  <polyline points="6750, 4850 6600, 4850" stroke-width="10px" stroke="#000000"/>
  <circle r="10" cx="6750" cy="4250" fill="#000000" stroke-width="10px" stroke="#000000"/>
  <text x="6750" y="4850" font-size="50.000000" text-anchor="start" transform="rotate(-90 6750 4850)" fill="#000000">2</text>
  <polyline points="6750, 4650 6750, 4850" stroke-width="10px" stroke="#000000"/>
  <text x="6750" y="4250" font-size="50.000000" text-anchor="end" transform="rotate(-90 6750 4250)" fill="#000000">1</text>
  <polyline points="6750, 4450 6750, 4250" stroke-width="10px" stroke="#000000"/>
  <polyline points="6745, 4490 6704, 4643" stroke-width="10px" stroke="#000000"/>
  <polyline points="6650, 4700 6650, 4400" stroke-width="10px" stroke="#000000"/>
  <polyline points="6850, 4700 6650, 4700" stroke-width="10px" stroke="#000000"/>
  <polyline points="6850, 4400 6850, 4700" stroke-width="10px" stroke="#000000"/>
  <polyline points="6650, 4400 6850, 4400" stroke-width="10px" stroke="#000000"/>
  <circle r="20" cx="6750" cy="4630" fill="none" stroke-width="10px" stroke="#000000"/>
  <circle r="20" cx="6750" cy="4470" fill="none" stroke-width="10px" stroke="#000000"/>
  <circle r="10" cx="6450" cy="4250" fill="#000000" stroke-width="10px" stroke="#000000"/>
  <text x="6450" y="4850" font-size="50.000000" text-anchor="start" transform="rotate(-90 6450 4850)" fill="#000000">2</text>
  <polyline points="6450, 4650 6450, 4850" stroke-width="10px" stroke="#000000"/>
  <text x="6450" y="4250" font-size="50.000000" text-anchor="end" transform="rotate(-90 6450 4250)" fill="#000000">1</text>
  <polyline points="6450, 4450 6450, 4250" stroke-width="10px" stroke="#000000"/>
  <polyline points="6455, 4490 6496, 4643" stroke-width="10px" stroke="#000000"/>
  <polyline points="6550, 4700 6550, 4400" stroke-width="10px" stroke="#000000"/>
  <polyline points="6350, 4700 6550, 4700" stroke-width="10px" stroke="#000000"/>
  <polyline points="6350, 4400 6350, 4700" stroke-width="10px" stroke="#000000"/>
  <polyline points="6550, 4400 6350, 4400" stroke-width="10px" stroke="#000000"/>
  <circle r="20" cx="6450" cy="4630" fill="none" stroke-width="10px" stroke="#000000"/>
  <circle r="20" cx="6450" cy="4470" fill="none" stroke-width="10px" stroke="#000000"/>
  <polyline points="6150, 3350 7050, 3350" stroke-width="10px" stroke="#000000"/>
  <polyline points="7050, 3900 7050, 4000" stroke-width="10px" stroke="#000000"/>
  <circle r="10" cx="7050" cy="3900" fill="#000000" stroke-width="10px" stroke="#000000"/>
  <polyline points="7050, 3750 7050, 3900" stroke-width="10px" stroke="#000000"/>
  <polyline points="6500, 3900 6750, 4250" stroke-width="10px" stroke="#000000"/>
  <polyline points="6450, 4250 6750, 3900" stroke-width="10px" stroke="#000000"/>
  <text x="6000" y="4000" font-size="50.000000" text-anchor="start" transform="rotate(0 6000 4000)" fill="#000000">~Q</text>
  <polyline points="6150, 4000 6150, 3900" stroke-width="10px" stroke="#000000"/>
  <circle r="10" cx="6150" cy="4000" fill="#000000" stroke-width="10px" stroke="#000000"/>
  <polyline points="6150, 4000 5950, 4000" stroke-width="10px" stroke="#000000"/>
  <text x="7150" y="4000" font-size="50.000000" text-anchor="start" transform="rotate(0 7150 4000)" fill="#000000">Q</text>
  <circle r="10" cx="7050" cy="4000" fill="#000000" stroke-width="10px" stroke="#000000"/>
  <polyline points="7050, 4000 7250, 4000" stroke-width="10px" stroke="#000000"/>
  <polyline points="7050, 4050 7050, 4000" stroke-width="10px" stroke="#000000"/>
  <circle r="10" cx="6150" cy="3900" fill="#000000" stroke-width="10px" stroke="#000000"/>
  <polyline points="6150, 4050 6150, 4000" stroke-width="10px" stroke="#000000"/>
  <polyline points="6150, 3900 6200, 3900" stroke-width="10px" stroke="#000000"/>
  <polyline points="6150, 3750 6150, 3900" stroke-width="10px" stroke="#000000"/>
  <polyline points="6150, 3350 5750, 3350" stroke-width="10px" stroke="#000000"/>
  <circle r="10" cx="6150" cy="3350" fill="#000000" stroke-width="10px" stroke="#000000"/>
  <polyline points="6150, 3450 6150, 3350" stroke-width="10px" stroke="#000000"/>
  <polyline points="7050, 3450 7050, 3350" stroke-width="10px" stroke="#000000"/>
  <text x="6950" y="3550" font-size="50.000000" text-anchor="start" transform="rotate(-90 6950 3550)" fill="#000000">R4</text>
  <polyline points="7050, 3500 7050, 3450" stroke-width="10px" stroke="#000000"/>
  <polyline points="7050, 3700 7050, 3750" stroke-width="10px" stroke="#000000"/>
  <polyline points="7010, 3500 7090, 3500" stroke-width="10px" stroke="#000000"/>
  <polyline points="7010, 3700 7010, 3500" stroke-width="10px" stroke="#000000"/>
  <polyline points="7090, 3700 7010, 3700" stroke-width="10px" stroke="#000000"/>
  <polyline points="7090, 3500 7090, 3700" stroke-width="10px" stroke="#000000"/>
  <text x="6950" y="3800" font-size="50.000000" text-anchor="end" transform="rotate(0 6950 3800)" fill="#000000">R3</text>
  <polyline points="7000, 3900 7050, 3900" stroke-width="10px" stroke="#000000"/>
  <polyline points="6800, 3900 6750, 3900" stroke-width="10px" stroke="#000000"/>
  <polyline points="7000, 3860 7000, 3940" stroke-width="10px" stroke="#000000"/>
  <polyline points="6800, 3860 7000, 3860" stroke-width="10px" stroke="#000000"/>
  <polyline points="6800, 3940 6800, 3860" stroke-width="10px" stroke="#000000"/>
  <polyline points="7000, 3940 6800, 3940" stroke-width="10px" stroke="#000000"/>
  <text x="6400" y="3800" font-size="50.000000" text-anchor="end" transform="rotate(0 6400 3800)" fill="#000000">R2</text>
  <polyline points="6450, 3900 6500, 3900" stroke-width="10px" stroke="#000000"/>
  <polyline points="6250, 3900 6200, 3900" stroke-width="10px" stroke="#000000"/>
  <polyline points="6450, 3860 6450, 3940" stroke-width="10px" stroke="#000000"/>
  <polyline points="6250, 3860 6450, 3860" stroke-width="10px" stroke="#000000"/>
  <polyline points="6250, 3940 6250, 3860" stroke-width="10px" stroke="#000000"/>
  <polyline points="6450, 3940 6250, 3940" stroke-width="10px" stroke="#000000"/>
  <text x="6050" y="3550" font-size="50.000000" text-anchor="start" transform="rotate(-90 6050 3550)" fill="#000000">R1</text>
  <polyline points="6150, 3500 6150, 3450" stroke-width="10px" stroke="#000000"/>
  <polyline points="6150, 3700 6150, 3750" stroke-width="10px" stroke="#000000"/>
  <polyline points="6110, 3500 6190, 3500" stroke-width="10px" stroke="#000000"/>
  <polyline points="6110, 3700 6110, 3500" stroke-width="10px" stroke="#000000"/>
  <polyline points="6190, 3700 6110, 3700" stroke-width="10px" stroke="#000000"/>
  <polyline points="6190, 3500 6190, 3700" stroke-width="10px" stroke="#000000"/>
  <text x="5750" y="3200" font-size="50.000000" text-anchor="middle" transform="rotate(0 5750 3200)" fill="#000000">VCC</text>
  <polyline points="5750, 3350 5750, 3300" stroke-width="10px" stroke="#000000"/>
  <circle r="25" cx="5750" cy="3275" fill="none" stroke-width="10px" stroke="#000000"/>
  <text x="6050" y="4200" font-size="50.000000" text-anchor="end" transform="rotate(0 6050 4200)" fill="#000000">Q1</text>
  <text x="6150" y="4450" font-size="50.000000" text-anchor="start" transform="rotate(-90 6150 4450)" fill="#000000">3</text>
  <polyline points="6150, 4350 6150, 4450" stroke-width="10px" stroke="#000000"/>
  <text x="6150" y="4050" font-size="50.000000" text-anchor="end" transform="rotate(-90 6150 4050)" fill="#000000">2</text>
  <polyline points="6150, 4150 6150, 4050" stroke-width="10px" stroke="#000000"/>
  <text x="6450" y="4250" font-size="50.000000" text-anchor="end" transform="rotate(0 6450 4250)" fill="#000000">1</text>
  <polyline points="6225, 4250 6450, 4250" stroke-width="10px" stroke="#000000"/>
  <polyline points="6200, 4320 6200, 4320" stroke-width="10px" stroke="#000000"/>
  <polyline points="6160, 4340 6200, 4320" stroke-width="10px" stroke="#000000"/>
  <polyline points="6180, 4300 6160, 4340" stroke-width="10px" stroke="#000000"/>
  <polyline points="6200, 4320 6180, 4300" stroke-width="10px" stroke="#000000"/>
  <polyline points="6200, 4320 6200, 4320" stroke-width="10px" stroke="#000000"/>
  <polyline points="6225, 4325 6225, 4325" stroke-width="10px" stroke="#000000"/>
  <polyline points="6225, 4175 6225, 4325" stroke-width="10px" stroke="#000000"/>
  <polyline points="6150, 4350 6150, 4350" stroke-width="10px" stroke="#000000"/>
  <polyline points="6225, 4275 6150, 4350" stroke-width="10px" stroke="#000000"/>
  <polyline points="6225, 4225 6150, 4150" stroke-width="10px" stroke="#000000"/>
  <circle r="111" cx="6200" cy="4250" fill="none" stroke-width="10px" stroke="#000000"/>
  <text x="6605" y="5073" font-size="50.000000" text-anchor="middle" transform="rotate(0 6605 5073)" fill="#000000">GND</text>
  <polyline points="6550, 4950 6600, 4950" stroke-width="10px" stroke="#000000"/>
  <polyline points="6600, 5000 6550, 4950" stroke-width="10px" stroke="#000000"/>
  <polyline points="6650, 4950 6600, 5000" stroke-width="10px" stroke="#000000"/>
  <polyline points="6600, 4950 6650, 4950" stroke-width="10px" stroke="#000000"/>
  <polyline points="6600, 4900 6600, 4950" stroke-width="10px" stroke="#000000"/>
  <text x="7150" y="4200" font-size="50.000000" text-anchor="start" transform="rotate(0 7150 4200)" fill="#000000">Q2</text>
  <text x="7050" y="4450" font-size="50.000000" text-anchor="start" transform="rotate(-90 7050 4450)" fill="#000000">3</text>
  <polyline points="7050, 4350 7050, 4450" stroke-width="10px" stroke="#000000"/>
  <text x="7050" y="4050" font-size="50.000000" text-anchor="end" transform="rotate(-90 7050 4050)" fill="#000000">2</text>
  <polyline points="7050, 4150 7050, 4050" stroke-width="10px" stroke="#000000"/>
  <text x="6750" y="4250" font-size="50.000000" text-anchor="start" transform="rotate(0 6750 4250)" fill="#000000">1</text>
  <polyline points="6975, 4250 6750, 4250" stroke-width="10px" stroke="#000000"/>
  <polyline points="7000, 4320 7000, 4320" stroke-width="10px" stroke="#000000"/>
  <polyline points="7040, 4340 7000, 4320" stroke-width="10px" stroke="#000000"/>
  <polyline points="7020, 4300 7040, 4340" stroke-width="10px" stroke="#000000"/>
  <polyline points="7000, 4320 7020, 4300" stroke-width="10px" stroke="#000000"/>
  <polyline points="7000, 4320 7000, 4320" stroke-width="10px" stroke="#000000"/>
  <polyline points="6975, 4325 6975, 4325" stroke-width="10px" stroke="#000000"/>
  <polyline points="6975, 4175 6975, 4325" stroke-width="10px" stroke="#000000"/>
  <polyline points="7050, 4350 7050, 4350" stroke-width="10px" stroke="#000000"/>
  <polyline points="6975, 4275 7050, 4350" stroke-width="10px" stroke="#000000"/>
  <polyline points="6975, 4225 7050, 4150" stroke-width="10px" stroke="#000000"/>
  <circle r="111" cx="7000" cy="4250" fill="none" stroke-width="10px" stroke="#000000"/>
</svg>
