<svg xmlns="http://www.w3.org/2000/svg" xmlns:xlink="http://www.w3.org/1999/xlink" viewBox="3154.0 2127.24 2460.0 1227.6" font-family="Verdana, sans-serif" style="stroke-opacity:1.000000;fill-opacity:1.000000;">
  <polyline points="3650, 3000 4450, 3000" stroke-width="10px" stroke="#000000"/>
  <circle r="10" cx="4450" cy="3000" fill="#000000" stroke-width="10px" stroke="#000000"/>
  <polyline points="4450, 2900 4450, 3000" stroke-width="10px" stroke="#000000"/>
  <polyline points="3650, 2350 3650, 2550" stroke-width="10px" stroke="#000000"/>
  <polyline points="3650, 2850 3650, 3000" stroke-width="10px" stroke="#000000"/>
  <text x="3400" y="2700" font-size="50.000000" text-anchor="start" transform="rotate(0 3400 2700)" fill="#000000">Ci</text>
  <polyline points="3650, 2740 3650, 2850" stroke-width="10px" stroke="#000000"/>
  <polyline points="3650, 2660 3650, 2550" stroke-width="10px" stroke="#000000"/>
  <polyline points="3570, 2670 3730, 2670" stroke-width="10px" stroke="#000000"/>
  <polyline points="3570, 2730 3730, 2730" stroke-width="10px" stroke="#000000"/>
  <polyline points="4150, 2700 3950, 2700" stroke-width="10px" stroke="#000000"/>
  <polyline points="4200, 2800 4200, 2950" stroke-width="10px" stroke="#000000"/>
  <polyline points="4450, 2350 4450, 2500" stroke-width="10px" stroke="#000000"/>
  <polyline points="5250, 2350 5250, 2550" stroke-width="10px" stroke="#000000"/>
  <polyline points="4450, 3100 4450, 3000" stroke-width="10px" stroke="#000000"/>
  <polyline points="4450, 2350 4700, 2350" stroke-width="10px" stroke="#000000"/>
  <polyline points="4450, 3000 5250, 3000" stroke-width="10px" stroke="#000000"/>
  <circle r="10" cx="4450" cy="2350" fill="#000000" stroke-width="10px" stroke="#000000"/>
  <text x="3950" y="2950" font-size="50.000000" text-anchor="start" transform="rotate(0 3950 2950)" fill="#000000">toff</text>
  <text x="3900" y="2800" font-size="50.000000" text-anchor="start" transform="rotate(0 3900 2800)" fill="#000000">ton</text>
  <text x="4000" y="2700" font-size="50.000000" text-anchor="start" transform="rotate(0 4000 2700)" fill="#000000">CMD</text>
  <polyline points="4200, 2950 4250, 2950" stroke-width="10px" stroke="#000000"/>
  <polyline points="4150, 2800 4200, 2800" stroke-width="10px" stroke="#000000"/>
  <polyline points="4150, 2950 4150, 2800" stroke-width="10px" stroke="#000000"/>
  <polyline points="3950, 2950 4150, 2950" stroke-width="10px" stroke="#000000"/>
  <polyline points="3950, 2800 3950, 2950" stroke-width="10px" stroke="#000000"/>
  <polyline points="3900, 2800 3950, 2800" stroke-width="10px" stroke="#000000"/>
  <polyline points="3900, 2950 3900, 2800" stroke-width="10px" stroke="#000000"/>
  <polyline points="3850, 2950 3900, 2950" stroke-width="10px" stroke="#000000"/>
  <text x="4455" y="3273" font-size="50.000000" text-anchor="middle" transform="rotate(0 4455 3273)" fill="#000000">GND</text>
  <polyline points="4400, 3150 4450, 3150" stroke-width="10px" stroke="#000000"/>
  <polyline points="4450, 3200 4400, 3150" stroke-width="10px" stroke="#000000"/>
  <polyline points="4500, 3150 4450, 3200" stroke-width="10px" stroke="#000000"/>
  <polyline points="4450, 3150 4500, 3150" stroke-width="10px" stroke="#000000"/>
  <polyline points="4450, 3100 4450, 3150" stroke-width="10px" stroke="#000000"/>
  <text x="5300" y="2350" font-size="50.000000" text-anchor="start" transform="rotate(0 5300 2350)" fill="#000000">OUT</text>
  <text x="3650" y="2350" font-size="50.000000" text-anchor="start" transform="rotate(0 3650 2350)" fill="#000000">IN</text>
  <polyline points="4000, 2350 3550, 2350" stroke-width="10px" stroke="#000000"/>
  <polyline points="5250, 2850 5250, 3000" stroke-width="10px" stroke="#000000"/>
  <circle r="10" cx="5250" cy="2350" fill="#000000" stroke-width="10px" stroke="#000000"/>
  <polyline points="5450, 2350 5250, 2350" stroke-width="10px" stroke="#000000"/>
  <polyline points="5000, 2350 5250, 2350" stroke-width="10px" stroke="#000000"/>
  <polyline points="4300, 2350 4450, 2350" stroke-width="10px" stroke="#000000"/>
  <text x="5365" y="2700" font-size="50.000000" text-anchor="start" transform="rotate(0 5365 2700)" fill="#000000">Co</text>
  <polyline points="5250, 2740 5250, 2850" stroke-width="10px" stroke="#000000"/>
  <polyline points="5250, 2660 5250, 2550" stroke-width="10px" stroke="#000000"/>
  <polyline points="5170, 2670 5330, 2670" stroke-width="10px" stroke="#000000"/>
  <polyline points="5170, 2730 5330, 2730" stroke-width="10px" stroke="#000000"/>
  <text x="4150" y="2251" font-size="50.000000" text-anchor="middle" transform="rotate(0 4150 2251)" fill="#000000">L1</text>
  <polyline points="4250, 2350 4300, 2350" stroke-width="10px" stroke="#000000"/>
  <polyline points="4050, 2350 4000, 2350" stroke-width="10px" stroke="#000000"/>
  <path d="M4100,2350 A25,25 0 0,0 4050,2350" fill="none" stroke-width="10px" stroke="#000000"/>
  <path d="M4150,2350 A25,25 0 0,0 4100,2350" fill="none" stroke-width="10px" stroke="#000000"/>
  <path d="M4200,2350 A25,25 0 0,0 4150,2350" fill="none" stroke-width="10px" stroke="#000000"/>
  <path d="M4250,2350 A25,25 0 0,0 4200,2350" fill="none" stroke-width="10px" stroke="#000000"/>
  <text x="4900" y="2250" font-size="50.000000" text-anchor="end" transform="rotate(0 4900 2250)" fill="#000000">D1</text>
  <polyline points="4800, 2350 4700, 2350" stroke-width="10px" stroke="#000000"/>
  <polyline points="4900, 2350 5000, 2350" stroke-width="10px" stroke="#000000"/>
  <polyline points="4900, 2350 4800, 2400" stroke-width="10px" stroke="#000000"/>
  <polyline points="4800, 2300 4900, 2350" stroke-width="10px" stroke="#000000"/>
  <polyline points="4800, 2400 4800, 2300" stroke-width="10px" stroke="#000000"/>
  <polyline points="4800, 2350 4900, 2350" stroke-width="10px" stroke="#000000"/>
  <polyline points="4900, 2400 4900, 2300" stroke-width="10px" stroke="#000000"/>
  <text x="4601" y="2700" font-size="50.000000" text-anchor="middle" transform="rotate(0 4601 2700)" fill="#000000">Q1</text>
  <text x="4450" y="2500" font-size="50.000000" text-anchor="end" transform="rotate(-90 4450 2500)" fill="#000000">3</text>
  <polyline points="4450, 2600 4450, 2500" stroke-width="10px" stroke="#000000"/>
  <text x="4150" y="2700" font-size="50.000000" text-anchor="start" transform="rotate(0 4150 2700)" fill="#000000">2</text>
  <polyline points="4350, 2700 4150, 2700" stroke-width="10px" stroke="#000000"/>
  <text x="4450" y="2900" font-size="50.000000" text-anchor="start" transform="rotate(-90 4450 2900)" fill="#000000">1</text>
  <polyline points="4450, 2800 4450, 2900" stroke-width="10px" stroke="#000000"/>
  <polyline points="4495, 2710 4480, 2685" stroke-width="10px" stroke="#000000"/>
  <polyline points="4465, 2710 4495, 2710" stroke-width="10px" stroke="#000000"/>
  <polyline points="4480, 2685 4465, 2710" stroke-width="10px" stroke="#000000"/>
  <polyline points="4495, 2685 4500, 2690" stroke-width="10px" stroke="#000000"/>
  <polyline points="4465, 2685 4495, 2685" stroke-width="10px" stroke="#000000"/>
  <polyline points="4460, 2680 4465, 2685" stroke-width="10px" stroke="#000000"/>
  <polyline points="4480, 2770 4450, 2770" stroke-width="10px" stroke="#000000"/>
  <polyline points="4480, 2630 4480, 2770" stroke-width="10px" stroke="#000000"/>
  <polyline points="4450, 2630 4480, 2630" stroke-width="10px" stroke="#000000"/>
  <polyline points="4400, 2715 4440, 2700" stroke-width="10px" stroke="#000000"/>
  <polyline points="4400, 2685 4400, 2715" stroke-width="10px" stroke="#000000"/>
  <polyline points="4440, 2700 4400, 2685" stroke-width="10px" stroke="#000000"/>
  <polyline points="4440, 2700 4440, 2700" stroke-width="10px" stroke="#000000"/>
  <polyline points="4360, 2625 4360, 2625" stroke-width="10px" stroke="#000000"/>
  <polyline points="4360, 2775 4360, 2625" stroke-width="10px" stroke="#000000"/>
  <polyline points="4450, 2800 4450, 2770" stroke-width="10px" stroke="#000000"/>
  <polyline points="4450, 2630 4450, 2700" stroke-width="10px" stroke="#000000"/>
  <polyline points="4450, 2630 4450, 2600" stroke-width="10px" stroke="#000000"/>
  <polyline points="4380, 2790 4380, 2750" stroke-width="10px" stroke="#000000"/>
  <polyline points="4380, 2770 4450, 2770" stroke-width="10px" stroke="#000000"/>
  <polyline points="4380, 2720 4380, 2680" stroke-width="10px" stroke="#000000"/>
  <polyline points="4380, 2700 4450, 2700" stroke-width="10px" stroke="#000000"/>
  <polyline points="4380, 2650 4380, 2610" stroke-width="10px" stroke="#000000"/>
  <polyline points="4380, 2630 4450, 2630" stroke-width="10px" stroke="#000000"/>
  <polyline points="4352, 2700 4360, 2700" stroke-width="10px" stroke="#000000"/>
  <circle r="11" cx="4450" cy="2770" fill="none" stroke-width="10px" stroke="#000000"/>
  <circle r="11" cx="4450" cy="2630" fill="none" stroke-width="10px" stroke="#000000"/>
  <circle r="111" cx="4415" cy="2700" fill="none" stroke-width="10px" stroke="#000000"/>
</svg>
