<svg xmlns="http://www.w3.org/2000/svg" xmlns:xlink="http://www.w3.org/1999/xlink" viewBox="3378.0 2094.12 2220.0 1048.8" font-family="Verdana, sans-serif" style="stroke-opacity:1.000000;fill-opacity:1.000000;">
  <text x="3700" y="3000" font-size="50.000000" text-anchor="start" transform="rotate(0 3700 3000)" fill="#000000">toff</text>
  <text x="3650" y="2850" font-size="50.000000" text-anchor="start" transform="rotate(0 3650 2850)" fill="#000000">ton</text>
  <text x="3650" y="2750" font-size="50.000000" text-anchor="start" transform="rotate(0 3650 2750)" fill="#000000">CMD</text>
  <polyline points="3950, 3000 4000, 3000" stroke-width="10px" stroke="#000000"/>
  <polyline points="3950, 2850 3950, 3000" stroke-width="10px" stroke="#000000"/>
  <polyline points="3900, 2850 3950, 2850" stroke-width="10px" stroke="#000000"/>
  <polyline points="3900, 3000 3900, 2850" stroke-width="10px" stroke="#000000"/>
  <polyline points="3700, 3000 3900, 3000" stroke-width="10px" stroke="#000000"/>
  <polyline points="3700, 2850 3700, 3000" stroke-width="10px" stroke="#000000"/>
  <polyline points="3650, 2850 3700, 2850" stroke-width="10px" stroke="#000000"/>
  <polyline points="3650, 3000 3650, 2850" stroke-width="10px" stroke="#000000"/>
  <polyline points="3600, 3000 3650, 3000" stroke-width="10px" stroke="#000000"/>
  <circle r="10" cx="4550" cy="2850" fill="#000000" stroke-width="10px" stroke="#000000"/>
  <polyline points="4400, 2850 4550, 2850" stroke-width="10px" stroke="#000000"/>
  <polyline points="4400, 2900 4400, 2850" stroke-width="10px" stroke="#000000"/>
  <text x="4405" y="3073" font-size="50.000000" text-anchor="middle" transform="rotate(0 4405 3073)" fill="#000000">GND</text>
  <polyline points="4350, 2950 4400, 2950" stroke-width="10px" stroke="#000000"/>
  <polyline points="4400, 3000 4350, 2950" stroke-width="10px" stroke="#000000"/>
  <polyline points="4450, 2950 4400, 3000" stroke-width="10px" stroke="#000000"/>
  <polyline points="4400, 2950 4450, 2950" stroke-width="10px" stroke="#000000"/>
  <polyline points="4400, 2900 4400, 2950" stroke-width="10px" stroke="#000000"/>
  <text x="5300" y="2350" font-size="50.000000" text-anchor="start" transform="rotate(0 5300 2350)" fill="#000000">OUT</text>
  <text x="3650" y="2350" font-size="50.000000" text-anchor="start" transform="rotate(0 3650 2350)" fill="#000000">IN</text>
  <polyline points="3950, 2350 3650, 2350" stroke-width="10px" stroke="#000000"/>
  <polyline points="4150, 2750 3650, 2750" stroke-width="10px" stroke="#000000"/>
  <polyline points="4150, 2650 4150, 2750" stroke-width="10px" stroke="#000000"/>
  <polyline points="4550, 2850 4550, 2750" stroke-width="10px" stroke="#000000"/>
  <polyline points="5250, 2850 4550, 2850" stroke-width="10px" stroke="#000000"/>
  <polyline points="5250, 2750 5250, 2850" stroke-width="10px" stroke="#000000"/>
  <circle r="10" cx="5250" cy="2350" fill="#000000" stroke-width="10px" stroke="#000000"/>
  <polyline points="5450, 2350 5250, 2350" stroke-width="10px" stroke="#000000"/>
  <polyline points="5250, 2350 5250, 2450" stroke-width="10px" stroke="#000000"/>
  <polyline points="5000, 2350 5250, 2350" stroke-width="10px" stroke="#000000"/>
  <circle r="10" cx="4550" cy="2350" fill="#000000" stroke-width="10px" stroke="#000000"/>
  <polyline points="4700, 2350 4550, 2350" stroke-width="10px" stroke="#000000"/>
  <polyline points="4550, 2350 4550, 2450" stroke-width="10px" stroke="#000000"/>
  <polyline points="4350, 2350 4550, 2350" stroke-width="10px" stroke="#000000"/>
  <text x="5365" y="2600" font-size="50.000000" text-anchor="start" transform="rotate(0 5365 2600)" fill="#000000">C1</text>
  <polyline points="5250, 2640 5250, 2750" stroke-width="10px" stroke="#000000"/>
  <polyline points="5250, 2560 5250, 2450" stroke-width="10px" stroke="#000000"/>
  <polyline points="5170, 2570 5330, 2570" stroke-width="10px" stroke="#000000"/>
  <polyline points="5170, 2630 5330, 2630" stroke-width="10px" stroke="#000000"/>
  <text x="4850" y="2251" font-size="50.000000" text-anchor="middle" transform="rotate(0 4850 2251)" fill="#000000">L1</text>
  <polyline points="4950, 2350 5000, 2350" stroke-width="10px" stroke="#000000"/>
  <polyline points="4750, 2350 4700, 2350" stroke-width="10px" stroke="#000000"/>
  <path d="M4800,2350 A25,25 0 0,0 4750,2350" fill="none" stroke-width="10px" stroke="#000000"/>
  <path d="M4850,2350 A25,25 0 0,0 4800,2350" fill="none" stroke-width="10px" stroke="#000000"/>
  <path d="M4900,2350 A25,25 0 0,0 4850,2350" fill="none" stroke-width="10px" stroke="#000000"/>
  <path d="M4950,2350 A25,25 0 0,0 4900,2350" fill="none" stroke-width="10px" stroke="#000000"/>
  <text x="4629" y="2600" font-size="50.000000" text-anchor="start" transform="rotate(0 4629 2600)" fill="#000000">D1</text>
  <polyline points="4550, 2650 4550, 2750" stroke-width="10px" stroke="#000000"/>
  <polyline points="4550, 2550 4550, 2450" stroke-width="10px" stroke="#000000"/>
  <polyline points="4550, 2550 4600, 2650" stroke-width="10px" stroke="#000000"/>
  <polyline points="4500, 2650 4550, 2550" stroke-width="10px" stroke="#000000"/>
  <polyline points="4600, 2650 4500, 2650" stroke-width="10px" stroke="#000000"/>
  <polyline points="4550, 2650 4550, 2550" stroke-width="10px" stroke="#000000"/>
  <polyline points="4600, 2550 4500, 2550" stroke-width="10px" stroke="#000000"/>
  <text x="4150" y="2199" font-size="50.000000" text-anchor="middle" transform="rotate(0 4150 2199)" fill="#000000">Q1</text>
  <text x="3950" y="2350" font-size="50.000000" text-anchor="start" transform="rotate(0 3950 2350)" fill="#000000">3</text>
  <polyline points="4050, 2350 3950, 2350" stroke-width="10px" stroke="#000000"/>
  <text x="4150" y="2650" font-size="50.000000" text-anchor="start" transform="rotate(-90 4150 2650)" fill="#000000">2</text>
  <polyline points="4150, 2450 4150, 2650" stroke-width="10px" stroke="#000000"/>
  <text x="4350" y="2350" font-size="50.000000" text-anchor="end" transform="rotate(0 4350 2350)" fill="#000000">1</text>
  <polyline points="4250, 2350 4350, 2350" stroke-width="10px" stroke="#000000"/>
  <polyline points="4160, 2305 4135, 2320" stroke-width="10px" stroke="#000000"/>
  <polyline points="4160, 2335 4160, 2305" stroke-width="10px" stroke="#000000"/>
  <polyline points="4135, 2320 4160, 2335" stroke-width="10px" stroke="#000000"/>
  <polyline points="4135, 2305 4140, 2300" stroke-width="10px" stroke="#000000"/>
  <polyline points="4135, 2335 4135, 2305" stroke-width="10px" stroke="#000000"/>
  <polyline points="4130, 2340 4135, 2335" stroke-width="10px" stroke="#000000"/>
  <polyline points="4220, 2320 4220, 2350" stroke-width="10px" stroke="#000000"/>
  <polyline points="4080, 2320 4220, 2320" stroke-width="10px" stroke="#000000"/>
  <polyline points="4080, 2350 4080, 2320" stroke-width="10px" stroke="#000000"/>
  <polyline points="4165, 2400 4150, 2360" stroke-width="10px" stroke="#000000"/>
  <polyline points="4135, 2400 4165, 2400" stroke-width="10px" stroke="#000000"/>
  <polyline points="4150, 2360 4135, 2400" stroke-width="10px" stroke="#000000"/>
  <polyline points="4150, 2360 4150, 2360" stroke-width="10px" stroke="#000000"/>
  <polyline points="4075, 2440 4075, 2440" stroke-width="10px" stroke="#000000"/>
  <polyline points="4225, 2440 4075, 2440" stroke-width="10px" stroke="#000000"/>
  <polyline points="4250, 2350 4220, 2350" stroke-width="10px" stroke="#000000"/>
  <polyline points="4080, 2350 4150, 2350" stroke-width="10px" stroke="#000000"/>
  <polyline points="4080, 2350 4050, 2350" stroke-width="10px" stroke="#000000"/>
  <polyline points="4240, 2420 4200, 2420" stroke-width="10px" stroke="#000000"/>
  <polyline points="4220, 2420 4220, 2350" stroke-width="10px" stroke="#000000"/>
  <polyline points="4170, 2420 4130, 2420" stroke-width="10px" stroke="#000000"/>
  <polyline points="4150, 2420 4150, 2350" stroke-width="10px" stroke="#000000"/>
  <polyline points="4100, 2420 4060, 2420" stroke-width="10px" stroke="#000000"/>
  <polyline points="4080, 2420 4080, 2350" stroke-width="10px" stroke="#000000"/>
  <polyline points="4150, 2448 4150, 2440" stroke-width="10px" stroke="#000000"/>
  <circle r="11" cx="4220" cy="2350" fill="none" stroke-width="10px" stroke="#000000"/>
  <circle r="11" cx="4080" cy="2350" fill="none" stroke-width="10px" stroke="#000000"/>
  <circle r="111" cx="4150" cy="2385" fill="none" stroke-width="10px" stroke="#000000"/>
</svg>
