<svg xmlns="http://www.w3.org/2000/svg" xmlns:xlink="http://www.w3.org/1999/xlink" viewBox="5180.0 3701.64 1200.0 933.5999999999999" font-family="Verdana, sans-serif" style="stroke-opacity:1.000000;fill-opacity:1.000000;">
  <polyline points="5900, 3900 6150, 3900" stroke-width="10px" stroke="#000000"/>
  <polyline points="5300, 3900 5600, 3900" stroke-width="10px" stroke="#000000"/>
  <text x="5750" y="3795" font-size="50.000000" text-anchor="middle" transform="rotate(0 5750 3795)" fill="#000000">F1</text>
  <polyline points="5650, 3900 5600, 3900" stroke-width="10px" stroke="#000000"/>
  <polyline points="5850, 3900 5900, 3900" stroke-width="10px" stroke="#000000"/>
  <polyline points="5850, 3900 5650, 3900" stroke-width="10px" stroke="#000000"/>
  <polyline points="5650, 3930 5650, 3870" stroke-width="10px" stroke="#000000"/>
  <polyline points="5850, 3930 5650, 3930" stroke-width="10px" stroke="#000000"/>
  <polyline points="5850, 3870 5850, 3930" stroke-width="10px" stroke="#000000"/>
  <polyline points="5650, 3870 5850, 3870" stroke-width="10px" stroke="#000000"/>
  <polyline points="6150, 4400 6150, 4300" stroke-width="10px" stroke="#000000"/>
  <text x="6155" y="4573" font-size="50.000000" text-anchor="middle" transform="rotate(0 6155 4573)" fill="#000000">GND</text>
  <polyline points="6100, 4450 6150, 4450" stroke-width="10px" stroke="#000000"/>
  <polyline points="6150, 4500 6100, 4450" stroke-width="10px" stroke="#000000"/>
  <polyline points="6200, 4450 6150, 4500" stroke-width="10px" stroke="#000000"/>
  <polyline points="6150, 4450 6200, 4450" stroke-width="10px" stroke="#000000"/>
  <polyline points="6150, 4400 6150, 4450" stroke-width="10px" stroke="#000000"/>
  <polyline points="6150, 3900 6300, 3900" stroke-width="10px" stroke="#000000"/>
  <circle r="10" cx="6150" cy="3900" fill="#000000" stroke-width="10px" stroke="#000000"/>
  <polyline points="6150, 4000 6150, 3900" stroke-width="10px" stroke="#000000"/>
  <text x="6229" y="4150" font-size="50.000000" text-anchor="start" transform="rotate(0 6229 4150)" fill="#000000">D1</text>
  <polyline points="6150, 4200 6150, 4300" stroke-width="10px" stroke="#000000"/>
  <polyline points="6150, 4100 6150, 4000" stroke-width="10px" stroke="#000000"/>
  <polyline points="6150, 4100 6100, 4200" stroke-width="10px" stroke="#000000"/>
  <polyline points="6200, 4200 6150, 4100" stroke-width="10px" stroke="#000000"/>
  <polyline points="6100, 4200 6200, 4200" stroke-width="10px" stroke="#000000"/>
  <polyline points="6200, 4100 6200, 4120" stroke-width="10px" stroke="#000000"/>
  <polyline points="6100, 4100 6200, 4100" stroke-width="10px" stroke="#000000"/>
  <polyline points="6150, 4200 6150, 4100" stroke-width="10px" stroke="#000000"/>
  <text x="5300" y="3900" font-size="50.000000" text-anchor="start" transform="rotate(0 5300 3900)" fill="#000000">VIN</text>
  <text x="6200" y="3900" font-size="50.000000" text-anchor="start" transform="rotate(0 6200 3900)" fill="#000000">VOUT</text>
</svg>
