<svg xmlns="http://www.w3.org/2000/svg" xmlns:xlink="http://www.w3.org/1999/xlink" viewBox="6448.0 3215.48 1020.0 1615.2" font-family="Verdana, sans-serif" style="stroke-opacity:1.000000;fill-opacity:1.000000;">
  <polyline points="7000, 3650 7000, 3550" stroke-width="10px" stroke="#000000"/>
  <text x="7250" y="4100" font-size="50.000000" text-anchor="start" transform="rotate(0 7250 4100)" fill="#000000">VOUT</text>
  <polyline points="7000, 4100 7000, 4150" stroke-width="10px" stroke="#000000"/>
  <circle r="10" cx="7000" cy="4100" fill="#000000" stroke-width="10px" stroke="#000000"/>
  <polyline points="7000, 4100 7400, 4100" stroke-width="10px" stroke="#000000"/>
  <polyline points="7000, 4450 7000, 4550" stroke-width="10px" stroke="#000000"/>
  <polyline points="7000, 4050 7000, 4100" stroke-width="10px" stroke="#000000"/>
  <text x="6600" y="3850" font-size="50.000000" text-anchor="start" transform="rotate(0 6600 3850)" fill="#000000">VIN</text>
  <polyline points="6550, 3850 6700, 3850" stroke-width="10px" stroke="#000000"/>
  <text x="7005" y="4723" font-size="50.000000" text-anchor="middle" transform="rotate(0 7005 4723)" fill="#000000">GND</text>
  <polyline points="6950, 4600 7000, 4600" stroke-width="10px" stroke="#000000"/>
  <polyline points="7000, 4650 6950, 4600" stroke-width="10px" stroke="#000000"/>
  <polyline points="7050, 4600 7000, 4650" stroke-width="10px" stroke="#000000"/>
  <polyline points="7000, 4600 7050, 4600" stroke-width="10px" stroke="#000000"/>
  <polyline points="7000, 4550 7000, 4600" stroke-width="10px" stroke="#000000"/>
  <text x="7070" y="4300" font-size="50.000000" text-anchor="start" transform="rotate(0 7070 4300)" fill="#000000">R1</text>
  <polyline points="7000, 4400 7000, 4450" stroke-width="10px" stroke="#000000"/>
  <polyline points="7000, 4200 7000, 4150" stroke-width="10px" stroke="#000000"/>
  <polyline points="7040, 4400 6960, 4400" stroke-width="10px" stroke="#000000"/>
  <polyline points="7040, 4200 7040, 4400" stroke-width="10px" stroke="#000000"/>
  <polyline points="6960, 4200 7040, 4200" stroke-width="10px" stroke="#000000"/>
  <polyline points="6960, 4400 6960, 4200" stroke-width="10px" stroke="#000000"/>
  <text x="7017" y="3377" font-size="50.000000" text-anchor="middle" transform="rotate(0 7017 3377)" fill="#000000">VCC</text>
  <polyline points="7000, 3550 7000, 3500" stroke-width="10px" stroke="#000000"/>
  <circle r="25" cx="7000" cy="3475" fill="none" stroke-width="10px" stroke="#000000"/>
  <text x="7091" y="3850" font-size="50.000000" text-anchor="start" transform="rotate(0 7091 3850)" fill="#000000">Q1</text>
  <text x="7000" y="4050" font-size="50.000000" text-anchor="start" transform="rotate(-90 7000 4050)" fill="#000000">3</text>
  <polyline points="7000, 3950 7000, 4050" stroke-width="10px" stroke="#000000"/>
  <text x="7000" y="3650" font-size="50.000000" text-anchor="end" transform="rotate(-90 7000 3650)" fill="#000000">2</text>
  <polyline points="7000, 3750 7000, 3650" stroke-width="10px" stroke="#000000"/>
  <text x="6700" y="3850" font-size="50.000000" text-anchor="start" transform="rotate(0 6700 3850)" fill="#000000">1</text>
  <polyline points="6925, 3850 6700, 3850" stroke-width="10px" stroke="#000000"/>
  <polyline points="6950, 3920 6950, 3920" stroke-width="10px" stroke="#000000"/>
  <polyline points="6990, 3940 6950, 3920" stroke-width="10px" stroke="#000000"/>
  <polyline points="6970, 3900 6990, 3940" stroke-width="10px" stroke="#000000"/>
  <polyline points="6950, 3920 6970, 3900" stroke-width="10px" stroke="#000000"/>
  <polyline points="6950, 3920 6950, 3920" stroke-width="10px" stroke="#000000"/>
  <polyline points="6925, 3925 6925, 3925" stroke-width="10px" stroke="#000000"/>
  <polyline points="6925, 3775 6925, 3925" stroke-width="10px" stroke="#000000"/>
  <polyline points="7000, 3950 7000, 3950" stroke-width="10px" stroke="#000000"/>
  <polyline points="6925, 3875 7000, 3950" stroke-width="10px" stroke="#000000"/>
  <polyline points="6925, 3825 7000, 3750" stroke-width="10px" stroke="#000000"/>
  <circle r="111" cx="6950" cy="3850" fill="none" stroke-width="10px" stroke="#000000"/>
</svg>
