<svg xmlns="http://www.w3.org/2000/svg" xmlns:xlink="http://www.w3.org/1999/xlink" viewBox="3110.2 1859.56 2898.0 1514.3999999999999" font-family="Verdana, sans-serif" style="stroke-opacity:1.000000;fill-opacity:1.000000;">
  <polyline points="4500, 2500 4450, 2500" stroke-width="10px" stroke="#800000"/>
  <circle r="10" cx="5700" cy="2500" fill="#000000" stroke-width="10px" stroke="#000000"/>
  <polyline points="5650, 2500 5700, 2500" stroke-width="10px" stroke="#800000"/>
  <polyline points="5700, 2500 5800, 2500" stroke-width="10px" stroke="#800000"/>
  <polyline points="5300, 2500 5350, 2500" stroke-width="10px" stroke="#800000"/>
  <polyline points="5300, 2100 5700, 2100" stroke-width="10px" stroke="#800000"/>
  <text x="4900" y="2011" font-size="50.000000" text-anchor="middle" transform="rotate(0 4900 2011)" fill="#000000">1::N</text>
  <text x="5300" y="2100" font-size="50.000000" text-anchor="end" transform="rotate(0 5300 2100)" fill="#000000">4</text>
  <polyline points="5000, 2100 5300, 2100" stroke-width="10px" stroke="#000000"/>
  <text x="5300" y="2500" font-size="50.000000" text-anchor="end" transform="rotate(0 5300 2500)" fill="#000000">3</text>
  <polyline points="5000, 2500 5300, 2500" stroke-width="10px" stroke="#000000"/>
  <text x="4500" y="2500" font-size="50.000000" text-anchor="start" transform="rotate(0 4500 2500)" fill="#000000">2</text>
  <polyline points="4800, 2500 4500, 2500" stroke-width="10px" stroke="#000000"/>
  <text x="4500" y="2100" font-size="50.000000" text-anchor="start" transform="rotate(0 4500 2100)" fill="#000000">1</text>
  <polyline points="4800, 2100 4500, 2100" stroke-width="10px" stroke="#000000"/>
  <polyline points="4925, 2500 4925, 2100" stroke-width="10px" stroke="#000000"/>
  <polyline points="4875, 2100 4875, 2500" stroke-width="10px" stroke="#000000"/>
  <path d="M5001,2499 A50,50 0 0,1 4952,2450" fill="none" stroke-width="10px" stroke="#000000"/>
  <path d="M5001,2400 A50,50 0 0,0 4952,2450" fill="none" stroke-width="10px" stroke="#000000"/>
  <path d="M4951,2150 A50,50 0 0,0 5000,2199" fill="none" stroke-width="10px" stroke="#000000"/>
  <path d="M5000,2100 A50,50 0 0,0 4951,2150" fill="none" stroke-width="10px" stroke="#000000"/>
  <path d="M4951,2250 A50,50 0 0,0 5000,2299" fill="none" stroke-width="10px" stroke="#000000"/>
  <path d="M5000,2200 A50,50 0 0,0 4951,2250" fill="none" stroke-width="10px" stroke="#000000"/>
  <path d="M4951,2350 A50,50 0 0,0 5000,2399" fill="none" stroke-width="10px" stroke="#000000"/>
  <path d="M5000,2300 A50,50 0 0,0 4951,2350" fill="none" stroke-width="10px" stroke="#000000"/>
  <path d="M4850,2150 A50,50 0 0,1 4800,2199" fill="none" stroke-width="10px" stroke="#000000"/>
  <path d="M4800,2100 A50,50 0 0,1 4850,2150" fill="none" stroke-width="10px" stroke="#000000"/>
  <path d="M4850,2250 A50,50 0 0,1 4800,2299" fill="none" stroke-width="10px" stroke="#000000"/>
  <path d="M4800,2200 A50,50 0 0,1 4850,2250" fill="none" stroke-width="10px" stroke="#000000"/>
  <path d="M4850,2350 A50,50 0 0,1 4800,2399" fill="none" stroke-width="10px" stroke="#000000"/>
  <path d="M4800,2300 A50,50 0 0,1 4850,2350" fill="none" stroke-width="10px" stroke="#000000"/>
  <path d="M4850,2450 A50,50 0 0,1 4800,2499" fill="none" stroke-width="10px" stroke="#000000"/>
  <path d="M4800,2400 A50,50 0 0,1 4850,2450" fill="none" stroke-width="10px" stroke="#000000"/>
  <text x="5800" y="2100" font-size="50.000000" text-anchor="start" transform="rotate(0 5800 2100)" fill="#FF0000">OUT-</text>
  <circle r="10" cx="5700" cy="2100" fill="#000000" stroke-width="10px" stroke="#000000"/>
  <polyline points="5800, 2100 5700, 2100" stroke-width="10px" stroke="#800000"/>
  <circle r="10" cx="3650" cy="2100" fill="#000000" stroke-width="10px" stroke="#000000"/>
  <polyline points="3650, 2100 3500, 2100" stroke-width="10px" stroke="#800000"/>
  <polyline points="3650, 2100 3650, 2550" stroke-width="10px" stroke="#800000"/>
  <polyline points="5700, 2450 5700, 2500" stroke-width="10px" stroke="#800000"/>
  <polyline points="5700, 2100 5700, 2150" stroke-width="10px" stroke="#800000"/>
  <polyline points="3650, 3000 4450, 3000" stroke-width="10px" stroke="#800000"/>
  <circle r="10" cx="4450" cy="3000" fill="#000000" stroke-width="10px" stroke="#000000"/>
  <polyline points="4450, 2900 4450, 3000" stroke-width="10px" stroke="#800000"/>
  <polyline points="3650, 2850 3650, 3000" stroke-width="10px" stroke="#800000"/>
  <text x="3400" y="2700" font-size="50.000000" text-anchor="start" transform="rotate(0 3400 2700)" fill="#000000">Ci</text>
  <polyline points="3650, 2740 3650, 2850" stroke-width="10px" stroke="#000000"/>
  <polyline points="3650, 2660 3650, 2550" stroke-width="10px" stroke="#000000"/>
  <polyline points="3570, 2670 3730, 2670" stroke-width="10px" stroke="#000000"/>
  <polyline points="3570, 2730 3730, 2730" stroke-width="10px" stroke="#000000"/>
  <polyline points="4150, 2700 3950, 2700" stroke-width="10px" stroke="#800000"/>
  <polyline points="4200, 2800 4200, 2950" stroke-width="10px" stroke="#800000"/>
  <polyline points="4450, 3100 4450, 3000" stroke-width="10px" stroke="#800000"/>
  <text x="3950" y="2950" font-size="50.000000" text-anchor="start" transform="rotate(0 3950 2950)" fill="#FF0000">toff</text>
  <text x="3900" y="2800" font-size="50.000000" text-anchor="start" transform="rotate(0 3900 2800)" fill="#FF0000">ton</text>
  <text x="4000" y="2700" font-size="50.000000" text-anchor="start" transform="rotate(0 4000 2700)" fill="#FF0000">CMD</text>
  <polyline points="4200, 2950 4250, 2950" stroke-width="10px" stroke="#800000"/>
  <polyline points="4150, 2800 4200, 2800" stroke-width="10px" stroke="#800000"/>
  <polyline points="4150, 2950 4150, 2800" stroke-width="10px" stroke="#800000"/>
  <polyline points="3950, 2950 4150, 2950" stroke-width="10px" stroke="#800000"/>
  <polyline points="3950, 2800 3950, 2950" stroke-width="10px" stroke="#800000"/>
  <polyline points="3900, 2800 3950, 2800" stroke-width="10px" stroke="#800000"/>
  <polyline points="3900, 2950 3900, 2800" stroke-width="10px" stroke="#800000"/>
  <polyline points="3850, 2950 3900, 2950" stroke-width="10px" stroke="#800000"/>
  <text x="4455" y="3273" font-size="50.000000" text-anchor="middle" transform="rotate(0 4455 3273)" fill="#000000">GND</text>
  <polyline points="4400, 3150 4450, 3150" stroke-width="10px" stroke="#000000"/>
  <polyline points="4450, 3200 4400, 3150" stroke-width="10px" stroke="#000000"/>
  <polyline points="4500, 3150 4450, 3200" stroke-width="10px" stroke="#000000"/>
  <polyline points="4450, 3150 4500, 3150" stroke-width="10px" stroke="#000000"/>
  <polyline points="4450, 3100 4450, 3150" stroke-width="10px" stroke="#000000"/>
  <text x="5800" y="2500" font-size="50.000000" text-anchor="start" transform="rotate(0 5800 2500)" fill="#FF0000">OUT+</text>
  <text x="3500" y="2100" font-size="50.000000" text-anchor="start" transform="rotate(0 3500 2100)" fill="#FF0000">IN</text>
  <polyline points="4500, 2100 3650, 2100" stroke-width="10px" stroke="#800000"/>
  <text x="5815" y="2300" font-size="50.000000" text-anchor="start" transform="rotate(0 5815 2300)" fill="#000000">Co</text>
  <polyline points="5700, 2340 5700, 2450" stroke-width="10px" stroke="#000000"/>
  <polyline points="5700, 2260 5700, 2150" stroke-width="10px" stroke="#000000"/>
  <polyline points="5620, 2270 5780, 2270" stroke-width="10px" stroke="#000000"/>
  <polyline points="5620, 2330 5780, 2330" stroke-width="10px" stroke="#000000"/>
  <text x="5550" y="2400" font-size="50.000000" text-anchor="end" transform="rotate(0 5550 2400)" fill="#000000">D1</text>
  <polyline points="5450, 2500 5350, 2500" stroke-width="10px" stroke="#000000"/>
  <polyline points="5550, 2500 5650, 2500" stroke-width="10px" stroke="#000000"/>
  <polyline points="5550, 2500 5450, 2550" stroke-width="10px" stroke="#000000"/>
  <polyline points="5450, 2450 5550, 2500" stroke-width="10px" stroke="#000000"/>
  <polyline points="5450, 2550 5450, 2450" stroke-width="10px" stroke="#000000"/>
  <polyline points="5450, 2500 5550, 2500" stroke-width="10px" stroke="#000000"/>
  <polyline points="5550, 2550 5550, 2450" stroke-width="10px" stroke="#000000"/>
  <text x="4601" y="2700" font-size="50.000000" text-anchor="middle" transform="rotate(0 4601 2700)" fill="#000000">Q1</text>
  <text x="4450" y="2500" font-size="50.000000" text-anchor="end" transform="rotate(-90 4450 2500)" fill="#000000">3</text>
  <polyline points="4450, 2600 4450, 2500" stroke-width="10px" stroke="#000000"/>
  <text x="4150" y="2700" font-size="50.000000" text-anchor="start" transform="rotate(0 4150 2700)" fill="#000000">2</text>
  <polyline points="4350, 2700 4150, 2700" stroke-width="10px" stroke="#000000"/>
  <text x="4450" y="2900" font-size="50.000000" text-anchor="start" transform="rotate(-90 4450 2900)" fill="#000000">1</text>
  <polyline points="4450, 2800 4450, 2900" stroke-width="10px" stroke="#000000"/>
  <polyline points="4495, 2710 4480, 2685" stroke-width="10px" stroke="#000000"/>
  <polyline points="4465, 2710 4495, 2710" stroke-width="10px" stroke="#000000"/>
  <polyline points="4480, 2685 4465, 2710" stroke-width="10px" stroke="#000000"/>
  <polyline points="4495, 2685 4500, 2690" stroke-width="10px" stroke="#000000"/>
  <polyline points="4465, 2685 4495, 2685" stroke-width="10px" stroke="#000000"/>
  <polyline points="4460, 2680 4465, 2685" stroke-width="10px" stroke="#000000"/>
  <polyline points="4480, 2770 4450, 2770" stroke-width="10px" stroke="#000000"/>
  <polyline points="4480, 2630 4480, 2770" stroke-width="10px" stroke="#000000"/>
  <polyline points="4450, 2630 4480, 2630" stroke-width="10px" stroke="#000000"/>
  <polyline points="4400, 2715 4440, 2700" stroke-width="10px" stroke="#000000"/>
  <polyline points="4400, 2685 4400, 2715" stroke-width="10px" stroke="#000000"/>
  <polyline points="4440, 2700 4400, 2685" stroke-width="10px" stroke="#000000"/>
  <polyline points="4440, 2700 4440, 2700" stroke-width="10px" stroke="#000000"/>
  <polyline points="4360, 2625 4360, 2625" stroke-width="10px" stroke="#000000"/>
  <polyline points="4360, 2775 4360, 2625" stroke-width="10px" stroke="#000000"/>
  <polyline points="4450, 2800 4450, 2770" stroke-width="10px" stroke="#000000"/>
  <polyline points="4450, 2630 4450, 2700" stroke-width="10px" stroke="#000000"/>
  <polyline points="4450, 2630 4450, 2600" stroke-width="10px" stroke="#000000"/>
  <polyline points="4380, 2790 4380, 2750" stroke-width="10px" stroke="#000000"/>
  <polyline points="4380, 2770 4450, 2770" stroke-width="10px" stroke="#000000"/>
  <polyline points="4380, 2720 4380, 2680" stroke-width="10px" stroke="#000000"/>
  <polyline points="4380, 2700 4450, 2700" stroke-width="10px" stroke="#000000"/>
  <polyline points="4380, 2650 4380, 2610" stroke-width="10px" stroke="#000000"/>
  <polyline points="4380, 2630 4450, 2630" stroke-width="10px" stroke="#000000"/>
  <polyline points="4352, 2700 4360, 2700" stroke-width="10px" stroke="#000000"/>
  <circle r="11" cx="4450" cy="2770" fill="none" stroke-width="10px" stroke="#000000"/>
  <circle r="11" cx="4450" cy="2630" fill="none" stroke-width="10px" stroke="#000000"/>
  <circle r="111" cx="4415" cy="2700" fill="none" stroke-width="10px" stroke="#000000"/>
</svg>
