<svg xmlns="http://www.w3.org/2000/svg" xmlns:xlink="http://www.w3.org/1999/xlink" viewBox="4320.64 3417.48 1293.6 2095.2" font-family="Verdana, sans-serif" style="stroke-opacity:1.000000;fill-opacity:1.000000;">
  <polyline points="5150, 4000 5300, 4000" stroke-width="10px" stroke="#000000"/>
  <polyline points="5150, 4600 5300, 4600" stroke-width="10px" stroke="#000000"/>
  <polyline points="5150, 4450 5150, 4600" stroke-width="10px" stroke="#000000"/>
  <polyline points="5150, 4150 5150, 4000" stroke-width="10px" stroke="#000000"/>
  <text x="5000" y="4300" font-size="50.000000" text-anchor="start" transform="rotate(0 5000 4300)" fill="#000000">D1</text>
  <polyline points="5150, 4350 5150, 4450" stroke-width="10px" stroke="#000000"/>
  <polyline points="5150, 4250 5150, 4150" stroke-width="10px" stroke="#000000"/>
  <polyline points="5150, 4250 5200, 4350" stroke-width="10px" stroke="#000000"/>
  <polyline points="5100, 4350 5150, 4250" stroke-width="10px" stroke="#000000"/>
  <polyline points="5200, 4350 5100, 4350" stroke-width="10px" stroke="#000000"/>
  <polyline points="5150, 4350 5150, 4250" stroke-width="10px" stroke="#000000"/>
  <polyline points="5200, 4250 5100, 4250" stroke-width="10px" stroke="#000000"/>
  <polyline points="4800, 4900 4850, 4900" stroke-width="10px" stroke="#000000"/>
  <polyline points="4800, 4750 4800, 4900" stroke-width="10px" stroke="#000000"/>
  <polyline points="4750, 4750 4800, 4750" stroke-width="10px" stroke="#000000"/>
  <polyline points="4750, 4900 4750, 4750" stroke-width="10px" stroke="#000000"/>
  <polyline points="4550, 4900 4750, 4900" stroke-width="10px" stroke="#000000"/>
  <polyline points="4550, 4750 4550, 4900" stroke-width="10px" stroke="#000000"/>
  <polyline points="4500, 4750 4550, 4750" stroke-width="10px" stroke="#000000"/>
  <polyline points="4500, 4900 4500, 4750" stroke-width="10px" stroke="#000000"/>
  <polyline points="4450, 4900 4500, 4900" stroke-width="10px" stroke="#000000"/>
  <text x="4800" y="5000" font-size="50.000000" text-anchor="start" transform="rotate(0 4800 5000)" fill="#000000">CTRL</text>
  <polyline points="5000, 5000 4750, 5000" stroke-width="10px" stroke="#000000"/>
  <text x="5317" y="3627" font-size="50.000000" text-anchor="middle" transform="rotate(0 5317 3627)" fill="#000000">VCC</text>
  <polyline points="5300, 3800 5300, 3750" stroke-width="10px" stroke="#000000"/>
  <circle r="25" cx="5300" cy="3725" fill="none" stroke-width="10px" stroke="#000000"/>
  <text x="5305" y="5373" font-size="50.000000" text-anchor="middle" transform="rotate(0 5305 5373)" fill="#000000">GND</text>
  <polyline points="5250, 5250 5300, 5250" stroke-width="10px" stroke="#000000"/>
  <polyline points="5300, 5300 5250, 5250" stroke-width="10px" stroke="#000000"/>
  <polyline points="5350, 5250 5300, 5300" stroke-width="10px" stroke="#000000"/>
  <polyline points="5300, 5250 5350, 5250" stroke-width="10px" stroke="#000000"/>
  <polyline points="5300, 5200 5300, 5250" stroke-width="10px" stroke="#000000"/>
  <text x="5406" y="5000" font-size="50.000000" text-anchor="start" transform="rotate(0 5406 5000)" fill="#000000">Q1</text>
  <text x="5300" y="5200" font-size="50.000000" text-anchor="start" transform="rotate(-90 5300 5200)" fill="#000000">3</text>
  <polyline points="5300, 5100 5300, 5200" stroke-width="10px" stroke="#000000"/>
  <text x="5000" y="5000" font-size="50.000000" text-anchor="start" transform="rotate(0 5000 5000)" fill="#000000">2</text>
  <polyline points="5200, 5000 5000, 5000" stroke-width="10px" stroke="#000000"/>
  <text x="5300" y="4800" font-size="50.000000" text-anchor="end" transform="rotate(-90 5300 4800)" fill="#000000">1</text>
  <polyline points="5300, 4900 5300, 4800" stroke-width="10px" stroke="#000000"/>
  <polyline points="5345, 5010 5330, 4985" stroke-width="10px" stroke="#000000"/>
  <polyline points="5315, 5010 5345, 5010" stroke-width="10px" stroke="#000000"/>
  <polyline points="5330, 4985 5315, 5010" stroke-width="10px" stroke="#000000"/>
  <polyline points="5345, 4985 5350, 4990" stroke-width="10px" stroke="#000000"/>
  <polyline points="5315, 4985 5345, 4985" stroke-width="10px" stroke="#000000"/>
  <polyline points="5310, 4980 5315, 4985" stroke-width="10px" stroke="#000000"/>
  <polyline points="5330, 4930 5300, 4930" stroke-width="10px" stroke="#000000"/>
  <polyline points="5330, 5070 5330, 4930" stroke-width="10px" stroke="#000000"/>
  <polyline points="5300, 5070 5330, 5070" stroke-width="10px" stroke="#000000"/>
  <polyline points="5280, 5015 5240, 5000" stroke-width="10px" stroke="#000000"/>
  <polyline points="5280, 4985 5280, 5015" stroke-width="10px" stroke="#000000"/>
  <polyline points="5240, 5000 5280, 4985" stroke-width="10px" stroke="#000000"/>
  <polyline points="5240, 5000 5240, 5000" stroke-width="10px" stroke="#000000"/>
  <polyline points="5210, 5075 5210, 5075" stroke-width="10px" stroke="#000000"/>
  <polyline points="5210, 4925 5210, 5075" stroke-width="10px" stroke="#000000"/>
  <polyline points="5300, 4900 5300, 4930" stroke-width="10px" stroke="#000000"/>
  <polyline points="5300, 5070 5300, 5000" stroke-width="10px" stroke="#000000"/>
  <polyline points="5300, 5070 5300, 5100" stroke-width="10px" stroke="#000000"/>
  <polyline points="5230, 4910 5230, 4950" stroke-width="10px" stroke="#000000"/>
  <polyline points="5230, 4930 5300, 4930" stroke-width="10px" stroke="#000000"/>
  <polyline points="5230, 4980 5230, 5020" stroke-width="10px" stroke="#000000"/>
  <polyline points="5230, 5000 5300, 5000" stroke-width="10px" stroke="#000000"/>
  <polyline points="5230, 5050 5230, 5090" stroke-width="10px" stroke="#000000"/>
  <polyline points="5230, 5070 5300, 5070" stroke-width="10px" stroke="#000000"/>
  <polyline points="5202, 5000 5210, 5000" stroke-width="10px" stroke="#000000"/>
  <circle r="11" cx="5300" cy="4930" fill="none" stroke-width="10px" stroke="#000000"/>
  <circle r="11" cx="5300" cy="5070" fill="none" stroke-width="10px" stroke="#000000"/>
  <circle r="111" cx="5265" cy="5000" fill="none" stroke-width="10px" stroke="#000000"/>
  <polyline points="5300, 4600 5450, 4600" stroke-width="10px" stroke="#000000"/>
  <polyline points="5450, 4550 5450, 4600" stroke-width="10px" stroke="#000000"/>
  <polyline points="5300, 4000 5450, 4000" stroke-width="10px" stroke="#000000"/>
  <polyline points="5450, 4000 5450, 4050" stroke-width="10px" stroke="#000000"/>
  <text x="5528" y="4254" font-size="50.000000" text-anchor="start" transform="rotate(0 5528 4254)" fill="#000000">L1</text>
  <text x="5528" y="4345" font-size="50.000000" text-anchor="start" transform="rotate(0 5528 4345)" fill="#000000">INDUCTOR</text>
  <text x="5450" y="4500" font-size="30.000000" text-anchor="start" transform="rotate(-90 5450 4500)" fill="#000000">2</text>
  <polyline points="5450, 4500 5450, 4550" stroke-width="10px" stroke="#000000"/>
  <text x="5450" y="4100" font-size="30.000000" text-anchor="end" transform="rotate(-90 5450 4100)" fill="#000000">1</text>
  <polyline points="5450, 4100 5450, 4050" stroke-width="10px" stroke="#000000"/>
  <path d="M5450,4500 A50,50 0 0,0 5450,4400" fill="none" stroke-width="10px" stroke="#000000"/>
  <path d="M5450,4400 A50,50 0 0,0 5450,4300" fill="none" stroke-width="10px" stroke="#000000"/>
  <path d="M5450,4300 A50,50 0 0,0 5450,4200" fill="none" stroke-width="10px" stroke="#000000"/>
  <path d="M5450,4200 A50,50 0 0,0 5450,4100" fill="none" stroke-width="10px" stroke="#000000"/>
  <circle r="10" cx="5300" cy="4600" fill="#000000" stroke-width="10px" stroke="#000000"/>
  <polyline points="5300, 4600 5300, 4800" stroke-width="10px" stroke="#000000"/>
  <circle r="10" cx="5300" cy="4000" fill="#000000" stroke-width="10px" stroke="#000000"/>
  <polyline points="5300, 4000 5300, 3800" stroke-width="10px" stroke="#000000"/>
</svg>
