<svg xmlns="http://www.w3.org/2000/svg" xmlns:xlink="http://www.w3.org/1999/xlink" viewBox="3136.0 2070.12 2640.0 1288.8" font-family="Verdana, sans-serif" style="stroke-opacity:1.000000;fill-opacity:1.000000;">
  <polyline points="4450, 3000 4950, 3000" stroke-width="10px" stroke="#000000"/>
  <polyline points="4950, 3000 5400, 3000" stroke-width="10px" stroke="#000000"/>
  <polyline points="5350, 2350 5400, 2350" stroke-width="10px" stroke="#000000"/>
  <text x="5250" y="2250" font-size="50.000000" text-anchor="end" transform="rotate(0 5250 2250)" fill="#000000">D1</text>
  <polyline points="5150, 2350 5050, 2350" stroke-width="10px" stroke="#000000"/>
  <polyline points="5250, 2350 5350, 2350" stroke-width="10px" stroke="#000000"/>
  <polyline points="5250, 2350 5150, 2400" stroke-width="10px" stroke="#000000"/>
  <polyline points="5150, 2300 5250, 2350" stroke-width="10px" stroke="#000000"/>
  <polyline points="5150, 2400 5150, 2300" stroke-width="10px" stroke="#000000"/>
  <polyline points="5150, 2350 5250, 2350" stroke-width="10px" stroke="#000000"/>
  <polyline points="5250, 2400 5250, 2300" stroke-width="10px" stroke="#000000"/>
  <polyline points="4950, 2350 5050, 2350" stroke-width="10px" stroke="#000000"/>
  <circle r="10" cx="4950" cy="2350" fill="#000000" stroke-width="10px" stroke="#000000"/>
  <circle r="10" cx="4950" cy="3000" fill="#000000" stroke-width="10px" stroke="#000000"/>
  <polyline points="4950, 2850 4950, 3000" stroke-width="10px" stroke="#000000"/>
  <polyline points="4950, 2450 4950, 2350" stroke-width="10px" stroke="#000000"/>
  <polyline points="3650, 3000 4450, 3000" stroke-width="10px" stroke="#000000"/>
  <circle r="10" cx="4450" cy="2350" fill="#000000" stroke-width="10px" stroke="#000000"/>
  <polyline points="4550, 2350 4450, 2350" stroke-width="10px" stroke="#000000"/>
  <polyline points="4850, 2350 4950, 2350" stroke-width="10px" stroke="#000000"/>
  <text x="4350" y="2600" font-size="50.000000" text-anchor="end" transform="rotate(-90 4350 2600)" fill="#000000">D?</text>
  <polyline points="4450, 2700 4450, 2800" stroke-width="10px" stroke="#000000"/>
  <polyline points="4450, 2600 4450, 2500" stroke-width="10px" stroke="#000000"/>
  <polyline points="4450, 2600 4500, 2700" stroke-width="10px" stroke="#000000"/>
  <polyline points="4400, 2700 4450, 2600" stroke-width="10px" stroke="#000000"/>
  <polyline points="4500, 2700 4400, 2700" stroke-width="10px" stroke="#000000"/>
  <polyline points="4450, 2700 4450, 2600" stroke-width="10px" stroke="#000000"/>
  <polyline points="4500, 2600 4400, 2600" stroke-width="10px" stroke="#000000"/>
  <text x="5101" y="2650" font-size="50.000000" text-anchor="middle" transform="rotate(0 5101 2650)" fill="#000000">Q?</text>
  <text x="4950" y="2450" font-size="50.000000" text-anchor="end" transform="rotate(-90 4950 2450)" fill="#000000">3</text>
  <polyline points="4950, 2550 4950, 2450" stroke-width="10px" stroke="#000000"/>
  <text x="4650" y="2650" font-size="50.000000" text-anchor="start" transform="rotate(0 4650 2650)" fill="#000000">2</text>
  <polyline points="4850, 2650 4650, 2650" stroke-width="10px" stroke="#000000"/>
  <text x="4950" y="2850" font-size="50.000000" text-anchor="start" transform="rotate(-90 4950 2850)" fill="#000000">1</text>
  <polyline points="4950, 2750 4950, 2850" stroke-width="10px" stroke="#000000"/>
  <polyline points="4995, 2660 4980, 2635" stroke-width="10px" stroke="#000000"/>
  <polyline points="4965, 2660 4995, 2660" stroke-width="10px" stroke="#000000"/>
  <polyline points="4980, 2635 4965, 2660" stroke-width="10px" stroke="#000000"/>
  <polyline points="4995, 2635 5000, 2640" stroke-width="10px" stroke="#000000"/>
  <polyline points="4965, 2635 4995, 2635" stroke-width="10px" stroke="#000000"/>
  <polyline points="4960, 2630 4965, 2635" stroke-width="10px" stroke="#000000"/>
  <polyline points="4980, 2720 4950, 2720" stroke-width="10px" stroke="#000000"/>
  <polyline points="4980, 2580 4980, 2720" stroke-width="10px" stroke="#000000"/>
  <polyline points="4950, 2580 4980, 2580" stroke-width="10px" stroke="#000000"/>
  <polyline points="4900, 2665 4940, 2650" stroke-width="10px" stroke="#000000"/>
  <polyline points="4900, 2635 4900, 2665" stroke-width="10px" stroke="#000000"/>
  <polyline points="4940, 2650 4900, 2635" stroke-width="10px" stroke="#000000"/>
  <polyline points="4940, 2650 4940, 2650" stroke-width="10px" stroke="#000000"/>
  <polyline points="4860, 2575 4860, 2575" stroke-width="10px" stroke="#000000"/>
  <polyline points="4860, 2725 4860, 2575" stroke-width="10px" stroke="#000000"/>
  <polyline points="4950, 2750 4950, 2720" stroke-width="10px" stroke="#000000"/>
  <polyline points="4950, 2580 4950, 2650" stroke-width="10px" stroke="#000000"/>
  <polyline points="4950, 2580 4950, 2550" stroke-width="10px" stroke="#000000"/>
  <polyline points="4880, 2740 4880, 2700" stroke-width="10px" stroke="#000000"/>
  <polyline points="4880, 2720 4950, 2720" stroke-width="10px" stroke="#000000"/>
  <polyline points="4880, 2670 4880, 2630" stroke-width="10px" stroke="#000000"/>
  <polyline points="4880, 2650 4950, 2650" stroke-width="10px" stroke="#000000"/>
  <polyline points="4880, 2600 4880, 2560" stroke-width="10px" stroke="#000000"/>
  <polyline points="4880, 2580 4950, 2580" stroke-width="10px" stroke="#000000"/>
  <polyline points="4852, 2650 4860, 2650" stroke-width="10px" stroke="#000000"/>
  <circle r="11" cx="4950" cy="2720" fill="none" stroke-width="10px" stroke="#000000"/>
  <circle r="11" cx="4950" cy="2580" fill="none" stroke-width="10px" stroke="#000000"/>
  <circle r="111" cx="4915" cy="2650" fill="none" stroke-width="10px" stroke="#000000"/>
  <polyline points="4450, 2800 4450, 3000" stroke-width="10px" stroke="#000000"/>
  <polyline points="4350, 2350 4450, 2350" stroke-width="10px" stroke="#000000"/>
  <polyline points="3950, 2350 3550, 2350" stroke-width="10px" stroke="#000000"/>
  <text x="4150" y="2199" font-size="50.000000" text-anchor="middle" transform="rotate(-90 4150 2199)" fill="#000000">Q1</text>
  <text x="3950" y="2350" font-size="50.000000" text-anchor="start" transform="rotate(0 3950 2350)" fill="#000000">3</text>
  <polyline points="4050, 2350 3950, 2350" stroke-width="10px" stroke="#000000"/>
  <text x="4150" y="2650" font-size="50.000000" text-anchor="start" transform="rotate(-90 4150 2650)" fill="#000000">2</text>
  <polyline points="4150, 2450 4150, 2650" stroke-width="10px" stroke="#000000"/>
  <text x="4350" y="2350" font-size="50.000000" text-anchor="end" transform="rotate(0 4350 2350)" fill="#000000">1</text>
  <polyline points="4250, 2350 4350, 2350" stroke-width="10px" stroke="#000000"/>
  <polyline points="4160, 2305 4135, 2320" stroke-width="10px" stroke="#000000"/>
  <polyline points="4160, 2335 4160, 2305" stroke-width="10px" stroke="#000000"/>
  <polyline points="4135, 2320 4160, 2335" stroke-width="10px" stroke="#000000"/>
  <polyline points="4135, 2305 4140, 2300" stroke-width="10px" stroke="#000000"/>
  <polyline points="4135, 2335 4135, 2305" stroke-width="10px" stroke="#000000"/>
  <polyline points="4130, 2340 4135, 2335" stroke-width="10px" stroke="#000000"/>
  <polyline points="4220, 2320 4220, 2350" stroke-width="10px" stroke="#000000"/>
  <polyline points="4080, 2320 4220, 2320" stroke-width="10px" stroke="#000000"/>
  <polyline points="4080, 2350 4080, 2320" stroke-width="10px" stroke="#000000"/>
  <polyline points="4165, 2400 4150, 2360" stroke-width="10px" stroke="#000000"/>
  <polyline points="4135, 2400 4165, 2400" stroke-width="10px" stroke="#000000"/>
  <polyline points="4150, 2360 4135, 2400" stroke-width="10px" stroke="#000000"/>
  <polyline points="4150, 2360 4150, 2360" stroke-width="10px" stroke="#000000"/>
  <polyline points="4075, 2440 4075, 2440" stroke-width="10px" stroke="#000000"/>
  <polyline points="4225, 2440 4075, 2440" stroke-width="10px" stroke="#000000"/>
  <polyline points="4250, 2350 4220, 2350" stroke-width="10px" stroke="#000000"/>
  <polyline points="4080, 2350 4150, 2350" stroke-width="10px" stroke="#000000"/>
  <polyline points="4080, 2350 4050, 2350" stroke-width="10px" stroke="#000000"/>
  <polyline points="4240, 2420 4200, 2420" stroke-width="10px" stroke="#000000"/>
  <polyline points="4220, 2420 4220, 2350" stroke-width="10px" stroke="#000000"/>
  <polyline points="4170, 2420 4130, 2420" stroke-width="10px" stroke="#000000"/>
  <polyline points="4150, 2420 4150, 2350" stroke-width="10px" stroke="#000000"/>
  <polyline points="4100, 2420 4060, 2420" stroke-width="10px" stroke="#000000"/>
  <polyline points="4080, 2420 4080, 2350" stroke-width="10px" stroke="#000000"/>
  <polyline points="4150, 2448 4150, 2440" stroke-width="10px" stroke="#000000"/>
  <circle r="11" cx="4220" cy="2350" fill="none" stroke-width="10px" stroke="#000000"/>
  <circle r="11" cx="4080" cy="2350" fill="none" stroke-width="10px" stroke="#000000"/>
  <circle r="111" cx="4150" cy="2385" fill="none" stroke-width="10px" stroke="#000000"/>
  <text x="4700" y="2251" font-size="50.000000" text-anchor="middle" transform="rotate(0 4700 2251)" fill="#000000">L1</text>
  <polyline points="4800, 2350 4850, 2350" stroke-width="10px" stroke="#000000"/>
  <polyline points="4600, 2350 4550, 2350" stroke-width="10px" stroke="#000000"/>
  <path d="M4650,2350 A25,25 0 0,0 4600,2350" fill="none" stroke-width="10px" stroke="#000000"/>
  <path d="M4700,2350 A25,25 0 0,0 4650,2350" fill="none" stroke-width="10px" stroke="#000000"/>
  <path d="M4750,2350 A25,25 0 0,0 4700,2350" fill="none" stroke-width="10px" stroke="#000000"/>
  <path d="M4800,2350 A25,25 0 0,0 4750,2350" fill="none" stroke-width="10px" stroke="#000000"/>
  <text x="3950" y="2650" font-size="50.000000" text-anchor="start" transform="rotate(0 3950 2650)" fill="#000000">CMD</text>
  <polyline points="4150, 2650 3950, 2650" stroke-width="10px" stroke="#000000"/>
  <circle r="10" cx="4450" cy="3000" fill="#000000" stroke-width="10px" stroke="#000000"/>
  <polyline points="3650, 2350 3650, 2550" stroke-width="10px" stroke="#000000"/>
  <polyline points="3650, 2850 3650, 3000" stroke-width="10px" stroke="#000000"/>
  <text x="3400" y="2700" font-size="50.000000" text-anchor="start" transform="rotate(0 3400 2700)" fill="#000000">Ci</text>
  <polyline points="3650, 2740 3650, 2850" stroke-width="10px" stroke="#000000"/>
  <polyline points="3650, 2660 3650, 2550" stroke-width="10px" stroke="#000000"/>
  <polyline points="3570, 2670 3730, 2670" stroke-width="10px" stroke="#000000"/>
  <polyline points="3570, 2730 3730, 2730" stroke-width="10px" stroke="#000000"/>
  <polyline points="4200, 2800 4200, 2950" stroke-width="10px" stroke="#000000"/>
  <polyline points="4450, 2350 4450, 2500" stroke-width="10px" stroke="#000000"/>
  <polyline points="5400, 2350 5400, 2550" stroke-width="10px" stroke="#000000"/>
  <polyline points="4450, 3100 4450, 3000" stroke-width="10px" stroke="#000000"/>
  <text x="3950" y="2950" font-size="50.000000" text-anchor="start" transform="rotate(0 3950 2950)" fill="#000000">toff</text>
  <text x="3900" y="2800" font-size="50.000000" text-anchor="start" transform="rotate(0 3900 2800)" fill="#000000">ton</text>
  <polyline points="4200, 2950 4250, 2950" stroke-width="10px" stroke="#000000"/>
  <polyline points="4150, 2800 4200, 2800" stroke-width="10px" stroke="#000000"/>
  <polyline points="4150, 2950 4150, 2800" stroke-width="10px" stroke="#000000"/>
  <polyline points="3950, 2950 4150, 2950" stroke-width="10px" stroke="#000000"/>
  <polyline points="3950, 2800 3950, 2950" stroke-width="10px" stroke="#000000"/>
  <polyline points="3900, 2800 3950, 2800" stroke-width="10px" stroke="#000000"/>
  <polyline points="3900, 2950 3900, 2800" stroke-width="10px" stroke="#000000"/>
  <polyline points="3850, 2950 3900, 2950" stroke-width="10px" stroke="#000000"/>
  <text x="4455" y="3273" font-size="50.000000" text-anchor="middle" transform="rotate(0 4455 3273)" fill="#000000">GND</text>
  <polyline points="4400, 3150 4450, 3150" stroke-width="10px" stroke="#000000"/>
  <polyline points="4450, 3200 4400, 3150" stroke-width="10px" stroke="#000000"/>
  <polyline points="4500, 3150 4450, 3200" stroke-width="10px" stroke="#000000"/>
  <polyline points="4450, 3150 4500, 3150" stroke-width="10px" stroke="#000000"/>
  <polyline points="4450, 3100 4450, 3150" stroke-width="10px" stroke="#000000"/>
  <text x="5450" y="2350" font-size="50.000000" text-anchor="start" transform="rotate(0 5450 2350)" fill="#000000">OUT</text>
  <text x="3650" y="2350" font-size="50.000000" text-anchor="start" transform="rotate(0 3650 2350)" fill="#000000">IN</text>
  <polyline points="5400, 2850 5400, 3000" stroke-width="10px" stroke="#000000"/>
  <circle r="10" cx="5400" cy="2350" fill="#000000" stroke-width="10px" stroke="#000000"/>
  <polyline points="5600, 2350 5400, 2350" stroke-width="10px" stroke="#000000"/>
  <text x="5515" y="2700" font-size="50.000000" text-anchor="start" transform="rotate(0 5515 2700)" fill="#000000">Co</text>
  <polyline points="5400, 2740 5400, 2850" stroke-width="10px" stroke="#000000"/>
  <polyline points="5400, 2660 5400, 2550" stroke-width="10px" stroke="#000000"/>
  <polyline points="5320, 2670 5480, 2670" stroke-width="10px" stroke="#000000"/>
  <polyline points="5320, 2730 5480, 2730" stroke-width="10px" stroke="#000000"/>
</svg>
