<svg xmlns="http://www.w3.org/2000/svg" xmlns:xlink="http://www.w3.org/1999/xlink" viewBox="4618.0 1810.12 1320.0 1168.8" font-family="Verdana, sans-serif" style="stroke-opacity:1.000000;fill-opacity:1.000000;">
  <text x="5765" y="1927" font-size="50.000000" text-anchor="middle" transform="rotate(0 5765 1927)" fill="#000000">+5V</text>
  <polyline points="5750, 2000 5780, 2050" stroke-width="10px" stroke="#000000"/>
  <polyline points="5750, 2100 5750, 2000" stroke-width="10px" stroke="#000000"/>
  <polyline points="5720, 2050 5750, 2000" stroke-width="10px" stroke="#000000"/>
  <text x="4750" y="2750" font-size="50.000000" text-anchor="start" transform="rotate(0 4750 2750)" fill="#FF0000">IN</text>
  <text x="5850" y="2750" font-size="50.000000" text-anchor="start" transform="rotate(0 5850 2750)" fill="#FF0000">OUT</text>
  <circle r="10" cx="5750" cy="2750" fill="#000000" stroke-width="10px" stroke="#000000"/>
  <polyline points="6000, 2750 5750, 2750" stroke-width="10px" stroke="#800000"/>
  <circle r="10" cx="5000" cy="2750" fill="#000000" stroke-width="10px" stroke="#000000"/>
  <polyline points="4750, 2750 5000, 2750" stroke-width="10px" stroke="#800000"/>
  <polyline points="5000, 2250 5000, 2350" stroke-width="10px" stroke="#800000"/>
  <circle r="10" cx="5000" cy="2250" fill="#000000" stroke-width="10px" stroke="#000000"/>
  <polyline points="5400, 2250 5000, 2250" stroke-width="10px" stroke="#800000"/>
  <polyline points="5400, 2450 5400, 2250" stroke-width="10px" stroke="#800000"/>
  <polyline points="5000, 2750 5000, 2650" stroke-width="10px" stroke="#800000"/>
  <polyline points="5200, 2750 5000, 2750" stroke-width="10px" stroke="#800000"/>
  <polyline points="5750, 2750 5600, 2750" stroke-width="10px" stroke="#800000"/>
  <polyline points="5750, 2650 5750, 2750" stroke-width="10px" stroke="#800000"/>
  <polyline points="5000, 2100 5000, 2250" stroke-width="10px" stroke="#800000"/>
  <polyline points="5750, 2100 5750, 2350" stroke-width="10px" stroke="#800000"/>
  <text x="5015" y="1927" font-size="50.000000" text-anchor="middle" transform="rotate(0 5015 1927)" fill="#000000">+3V3</text>
  <polyline points="5000, 2000 5030, 2050" stroke-width="10px" stroke="#000000"/>
  <polyline points="5000, 2100 5000, 2000" stroke-width="10px" stroke="#000000"/>
  <polyline points="4970, 2050 5000, 2000" stroke-width="10px" stroke="#000000"/>
  <text x="5820" y="2500" font-size="50.000000" text-anchor="start" transform="rotate(0 5820 2500)" fill="#000000">R2</text>
  <polyline points="5750, 2600 5750, 2650" stroke-width="10px" stroke="#000000"/>
  <polyline points="5750, 2400 5750, 2350" stroke-width="10px" stroke="#000000"/>
  <polyline points="5790, 2600 5710, 2600" stroke-width="10px" stroke="#000000"/>
  <polyline points="5790, 2400 5790, 2600" stroke-width="10px" stroke="#000000"/>
  <polyline points="5710, 2400 5790, 2400" stroke-width="10px" stroke="#000000"/>
  <polyline points="5710, 2600 5710, 2400" stroke-width="10px" stroke="#000000"/>
  <text x="5070" y="2500" font-size="50.000000" text-anchor="start" transform="rotate(0 5070 2500)" fill="#000000">R1</text>
  <polyline points="5000, 2600 5000, 2650" stroke-width="10px" stroke="#000000"/>
  <polyline points="5000, 2400 5000, 2350" stroke-width="10px" stroke="#000000"/>
  <polyline points="5040, 2600 4960, 2600" stroke-width="10px" stroke="#000000"/>
  <polyline points="5040, 2400 5040, 2600" stroke-width="10px" stroke="#000000"/>
  <polyline points="4960, 2400 5040, 2400" stroke-width="10px" stroke="#000000"/>
  <polyline points="4960, 2600 4960, 2400" stroke-width="10px" stroke="#000000"/>
  <text x="5400" y="2901" font-size="50.000000" text-anchor="middle" transform="rotate(0 5400 2901)" fill="#000000">Q1</text>
  <text x="5200" y="2750" font-size="50.000000" text-anchor="start" transform="rotate(0 5200 2750)" fill="#000000">3</text>
  <polyline points="5300, 2750 5200, 2750" stroke-width="10px" stroke="#000000"/>
  <text x="5400" y="2450" font-size="50.000000" text-anchor="end" transform="rotate(-90 5400 2450)" fill="#000000">2</text>
  <polyline points="5400, 2650 5400, 2450" stroke-width="10px" stroke="#000000"/>
  <text x="5600" y="2750" font-size="50.000000" text-anchor="end" transform="rotate(0 5600 2750)" fill="#000000">1</text>
  <polyline points="5500, 2750 5600, 2750" stroke-width="10px" stroke="#000000"/>
  <polyline points="5390, 2795 5415, 2780" stroke-width="10px" stroke="#000000"/>
  <polyline points="5390, 2765 5390, 2795" stroke-width="10px" stroke="#000000"/>
  <polyline points="5415, 2780 5390, 2765" stroke-width="10px" stroke="#000000"/>
  <polyline points="5415, 2795 5410, 2800" stroke-width="10px" stroke="#000000"/>
  <polyline points="5415, 2765 5415, 2795" stroke-width="10px" stroke="#000000"/>
  <polyline points="5420, 2760 5415, 2765" stroke-width="10px" stroke="#000000"/>
  <polyline points="5470, 2780 5470, 2750" stroke-width="10px" stroke="#000000"/>
  <polyline points="5330, 2780 5470, 2780" stroke-width="10px" stroke="#000000"/>
  <polyline points="5330, 2750 5330, 2780" stroke-width="10px" stroke="#000000"/>
  <polyline points="5385, 2730 5400, 2690" stroke-width="10px" stroke="#000000"/>
  <polyline points="5415, 2730 5385, 2730" stroke-width="10px" stroke="#000000"/>
  <polyline points="5400, 2690 5415, 2730" stroke-width="10px" stroke="#000000"/>
  <polyline points="5400, 2690 5400, 2690" stroke-width="10px" stroke="#000000"/>
  <polyline points="5325, 2660 5325, 2660" stroke-width="10px" stroke="#000000"/>
  <polyline points="5475, 2660 5325, 2660" stroke-width="10px" stroke="#000000"/>
  <polyline points="5500, 2750 5470, 2750" stroke-width="10px" stroke="#000000"/>
  <polyline points="5330, 2750 5400, 2750" stroke-width="10px" stroke="#000000"/>
  <polyline points="5330, 2750 5300, 2750" stroke-width="10px" stroke="#000000"/>
  <polyline points="5490, 2680 5450, 2680" stroke-width="10px" stroke="#000000"/>
  <polyline points="5470, 2680 5470, 2750" stroke-width="10px" stroke="#000000"/>
  <polyline points="5420, 2680 5380, 2680" stroke-width="10px" stroke="#000000"/>
  <polyline points="5400, 2680 5400, 2750" stroke-width="10px" stroke="#000000"/>
  <polyline points="5350, 2680 5310, 2680" stroke-width="10px" stroke="#000000"/>
  <polyline points="5330, 2680 5330, 2750" stroke-width="10px" stroke="#000000"/>
  <polyline points="5400, 2652 5400, 2660" stroke-width="10px" stroke="#000000"/>
  <circle r="11" cx="5470" cy="2750" fill="none" stroke-width="10px" stroke="#000000"/>
  <circle r="11" cx="5330" cy="2750" fill="none" stroke-width="10px" stroke="#000000"/>
  <circle r="111" cx="5400" cy="2715" fill="none" stroke-width="10px" stroke="#000000"/>
</svg>
