<svg xmlns="http://www.w3.org/2000/svg" xmlns:xlink="http://www.w3.org/1999/xlink" viewBox="4328.0 3305.8 2220.0 1572.0" font-family="Verdana, sans-serif" style="stroke-opacity:1.000000;fill-opacity:1.000000;">
  <polyline points="5250, 3950 5250, 4000" stroke-width="10px" stroke="#000000"/>
  <polyline points="5250, 3600 5400, 3600" stroke-width="10px" stroke="#000000"/>
  <circle r="10" cx="5250" cy="3600" fill="#000000" stroke-width="10px" stroke="#000000"/>
  <polyline points="5250, 3650 5250, 3600" stroke-width="10px" stroke="#000000"/>
  <text x="5320" y="3800" font-size="50.000000" text-anchor="start" transform="rotate(0 5320 3800)" fill="#000000">R1</text>
  <polyline points="5250, 3900 5250, 3950" stroke-width="10px" stroke="#000000"/>
  <polyline points="5250, 3700 5250, 3650" stroke-width="10px" stroke="#000000"/>
  <polyline points="5290, 3900 5210, 3900" stroke-width="10px" stroke="#000000"/>
  <polyline points="5290, 3700 5290, 3900" stroke-width="10px" stroke="#000000"/>
  <polyline points="5210, 3700 5290, 3700" stroke-width="10px" stroke="#000000"/>
  <polyline points="5210, 3900 5210, 3700" stroke-width="10px" stroke="#000000"/>
  <polyline points="4900, 3600 5250, 3600" stroke-width="10px" stroke="#000000"/>
  <polyline points="6100, 4500 5600, 4500" stroke-width="10px" stroke="#000000"/>
  <circle r="10" cx="6100" cy="3600" fill="#000000" stroke-width="10px" stroke="#000000"/>
  <polyline points="5800, 3600 6100, 3600" stroke-width="10px" stroke="#000000"/>
  <text x="6215" y="3804" font-size="50.000000" text-anchor="start" transform="rotate(0 6215 3804)" fill="#000000">COUT</text>
  <polyline points="6100, 3890 6100, 4000" stroke-width="10px" stroke="#000000"/>
  <polyline points="6100, 3810 6100, 3700" stroke-width="10px" stroke="#000000"/>
  <polyline points="6020, 3820 6180, 3820" stroke-width="10px" stroke="#000000"/>
  <polyline points="6020, 3880 6180, 3880" stroke-width="10px" stroke="#000000"/>
  <text x="5015" y="3804" font-size="50.000000" text-anchor="start" transform="rotate(0 5015 3804)" fill="#000000">CIN</text>
  <polyline points="4900, 3890 4900, 4000" stroke-width="10px" stroke="#000000"/>
  <polyline points="4900, 3810 4900, 3700" stroke-width="10px" stroke="#000000"/>
  <polyline points="4820, 3820 4980, 3820" stroke-width="10px" stroke="#000000"/>
  <polyline points="4820, 3880 4980, 3880" stroke-width="10px" stroke="#000000"/>
  <polyline points="5600, 4600 5600, 4500" stroke-width="10px" stroke="#000000"/>
  <polyline points="5600, 4300 5600, 4500" stroke-width="10px" stroke="#000000"/>
  <text x="5605" y="4773" font-size="50.000000" text-anchor="middle" transform="rotate(0 5605 4773)" fill="#000000">GND</text>
  <polyline points="5550, 4650 5600, 4650" stroke-width="10px" stroke="#000000"/>
  <polyline points="5600, 4700 5550, 4650" stroke-width="10px" stroke="#000000"/>
  <polyline points="5650, 4650 5600, 4700" stroke-width="10px" stroke="#000000"/>
  <polyline points="5600, 4650 5650, 4650" stroke-width="10px" stroke="#000000"/>
  <polyline points="5600, 4600 5600, 4650" stroke-width="10px" stroke="#000000"/>
  <text x="6200" y="3600" font-size="50.000000" text-anchor="start" transform="rotate(0 6200 3600)" fill="#000000">VOUT</text>
  <text x="4650" y="3600" font-size="50.000000" text-anchor="start" transform="rotate(0 4650 3600)" fill="#000000">VIN</text>
  <polyline points="6100, 4000 6100, 4500" stroke-width="10px" stroke="#000000"/>
  <polyline points="4900, 4000 4900, 4500" stroke-width="10px" stroke="#000000"/>
  <circle r="10" cx="5600" cy="4000" fill="#000000" stroke-width="10px" stroke="#000000"/>
  <polyline points="5250, 4000 5600, 4000" stroke-width="10px" stroke="#000000"/>
  <polyline points="5600, 3900 5600, 4000" stroke-width="10px" stroke="#000000"/>
  <text x="5679" y="4104" font-size="50.000000" text-anchor="start" transform="rotate(0 5679 4104)" fill="#000000">D1</text>
  <polyline points="5600, 4200 5600, 4300" stroke-width="10px" stroke="#000000"/>
  <polyline points="5600, 4100 5600, 4000" stroke-width="10px" stroke="#000000"/>
  <polyline points="5600, 4100 5550, 4200" stroke-width="10px" stroke="#000000"/>
  <polyline points="5650, 4200 5600, 4100" stroke-width="10px" stroke="#000000"/>
  <polyline points="5550, 4200 5650, 4200" stroke-width="10px" stroke="#000000"/>
  <polyline points="5650, 4100 5650, 4120" stroke-width="10px" stroke="#000000"/>
  <polyline points="5550, 4100 5650, 4100" stroke-width="10px" stroke="#000000"/>
  <polyline points="5600, 4200 5600, 4100" stroke-width="10px" stroke="#000000"/>
  <polyline points="6100, 3600 6400, 3600" stroke-width="10px" stroke="#000000"/>
  <circle r="10" cx="4900" cy="3600" fill="#000000" stroke-width="10px" stroke="#000000"/>
  <polyline points="4900, 3600 4550, 3600" stroke-width="10px" stroke="#000000"/>
  <text x="5600" y="3463" font-size="50.000000" text-anchor="middle" transform="rotate(0 5600 3463)" fill="#000000">Q1</text>
  <text x="5800" y="3600" font-size="50.000000" text-anchor="end" transform="rotate(0 5800 3600)" fill="#000000">3</text>
  <polyline points="5700, 3600 5800, 3600" stroke-width="10px" stroke="#000000"/>
  <text x="5400" y="3600" font-size="50.000000" text-anchor="start" transform="rotate(0 5400 3600)" fill="#000000">2</text>
  <polyline points="5500, 3600 5400, 3600" stroke-width="10px" stroke="#000000"/>
  <text x="5600" y="3900" font-size="50.000000" text-anchor="start" transform="rotate(-90 5600 3900)" fill="#000000">1</text>
  <polyline points="5600, 3675 5600, 3900" stroke-width="10px" stroke="#000000"/>
  <polyline points="5670, 3650 5670, 3650" stroke-width="10px" stroke="#000000"/>
  <polyline points="5690, 3610 5670, 3650" stroke-width="10px" stroke="#000000"/>
  <polyline points="5650, 3630 5690, 3610" stroke-width="10px" stroke="#000000"/>
  <polyline points="5670, 3650 5650, 3630" stroke-width="10px" stroke="#000000"/>
  <polyline points="5670, 3650 5670, 3650" stroke-width="10px" stroke="#000000"/>
  <polyline points="5675, 3675 5675, 3675" stroke-width="10px" stroke="#000000"/>
  <polyline points="5525, 3675 5675, 3675" stroke-width="10px" stroke="#000000"/>
  <polyline points="5700, 3600 5700, 3600" stroke-width="10px" stroke="#000000"/>
  <polyline points="5625, 3675 5700, 3600" stroke-width="10px" stroke="#000000"/>
  <polyline points="5575, 3675 5500, 3600" stroke-width="10px" stroke="#000000"/>
  <circle r="111" cx="5600" cy="3650" fill="none" stroke-width="10px" stroke="#000000"/>
  <polyline points="6100, 3700 6100, 3600" stroke-width="10px" stroke="#000000"/>
  <circle r="10" cx="5600" cy="4500" fill="#000000" stroke-width="10px" stroke="#000000"/>
  <polyline points="5600, 4500 4900, 4500" stroke-width="10px" stroke="#000000"/>
  <polyline points="4900, 3700 4900, 3600" stroke-width="10px" stroke="#000000"/>
</svg>
