<svg xmlns="http://www.w3.org/2000/svg" xmlns:xlink="http://www.w3.org/1999/xlink" viewBox="4980.0 1760.32 1200.0 2506.7999999999997" font-family="Verdana, sans-serif" style="stroke-opacity:1.000000;fill-opacity:1.000000;">
  <text x="5600" y="2011" font-size="50.000000" text-anchor="middle" transform="rotate(0 5600 2011)" fill="#000000">U1</text>
  <text x="5100" y="2600" font-size="50.000000" text-anchor="start" transform="rotate(0 5100 2600)" fill="#000000">9</text>
  <text x="5200" y="2600" font-size="50.000000" text-anchor="start" transform="rotate(0 5200 2600)" fill="#000000">A3</text>
  <polyline points="5200, 2600 5100, 2600" stroke-width="10px" stroke="#000000"/>
  <text x="5100" y="2700" font-size="50.000000" text-anchor="start" transform="rotate(0 5100 2700)" fill="#000000">8</text>
  <text x="5200" y="2700" font-size="50.000000" text-anchor="start" transform="rotate(0 5200 2700)" fill="#000000">A4</text>
  <polyline points="5200, 2700 5100, 2700" stroke-width="10px" stroke="#000000"/>
  <text x="5100" y="2800" font-size="50.000000" text-anchor="start" transform="rotate(0 5100 2800)" fill="#000000">7</text>
  <text x="5200" y="2800" font-size="50.000000" text-anchor="start" transform="rotate(0 5200 2800)" fill="#000000">A5</text>
  <polyline points="5200, 2800 5100, 2800" stroke-width="10px" stroke="#000000"/>
  <text x="5100" y="2900" font-size="50.000000" text-anchor="start" transform="rotate(0 5100 2900)" fill="#000000">6</text>
  <text x="5200" y="2900" font-size="50.000000" text-anchor="start" transform="rotate(0 5200 2900)" fill="#000000">A6</text>
  <polyline points="5200, 2900 5100, 2900" stroke-width="10px" stroke="#000000"/>
  <text x="5100" y="3000" font-size="50.000000" text-anchor="start" transform="rotate(0 5100 3000)" fill="#000000">5</text>
  <text x="5200" y="3000" font-size="50.000000" text-anchor="start" transform="rotate(0 5200 3000)" fill="#000000">A7</text>
  <polyline points="5200, 3000 5100, 3000" stroke-width="10px" stroke="#000000"/>
  <text x="5100" y="3500" font-size="50.000000" text-anchor="start" transform="rotate(0 5100 3500)" fill="#000000">4</text>
  <text x="5200" y="3500" font-size="50.000000" text-anchor="start" transform="rotate(0 5200 3500)" fill="#000000">A12</text>
  <polyline points="5200, 3500 5100, 3500" stroke-width="10px" stroke="#000000"/>
  <text x="5100" y="3800" font-size="50.000000" text-anchor="start" transform="rotate(0 5100 3800)" fill="#000000">31</text>
  <text x="5200" y="3800" font-size="50.000000" text-anchor="start" transform="rotate(0 5200 3800)" fill="#000000">A15</text>
  <polyline points="5200, 3800 5100, 3800" stroke-width="10px" stroke="#000000"/>
  <text x="6100" y="3300" font-size="50.000000" text-anchor="end" transform="rotate(0 6100 3300)" fill="#000000">30</text>
  <text x="6000" y="3300" font-size="50.000000" text-anchor="end" transform="rotate(0 6000 3300)" fill="#000000">CS2</text>
  <polyline points="6000, 3300 6100, 3300" stroke-width="10px" stroke="#000000"/>
  <text x="5100" y="3700" font-size="50.000000" text-anchor="start" transform="rotate(0 5100 3700)" fill="#000000">3</text>
  <text x="5200" y="3700" font-size="50.000000" text-anchor="start" transform="rotate(0 5200 3700)" fill="#000000">A14</text>
  <polyline points="5200, 3700 5100, 3700" stroke-width="10px" stroke="#000000"/>
  <text x="6100" y="3500" font-size="50.000000" text-anchor="end" transform="rotate(0 6100 3500)" fill="#000000">29</text>
  <text x="6000" y="3500" font-size="50.000000" text-anchor="end" transform="rotate(0 6000 3500)" fill="#000000">~WE</text>
  <polyline points="6000, 3500 6100, 3500" stroke-width="10px" stroke="#000000"/>
  <text x="5100" y="3600" font-size="50.000000" text-anchor="start" transform="rotate(0 5100 3600)" fill="#000000">28</text>
  <text x="5200" y="3600" font-size="50.000000" text-anchor="start" transform="rotate(0 5200 3600)" fill="#000000">A13</text>
  <polyline points="5200, 3600 5100, 3600" stroke-width="10px" stroke="#000000"/>
  <text x="5100" y="3100" font-size="50.000000" text-anchor="start" transform="rotate(0 5100 3100)" fill="#000000">27</text>
  <text x="5200" y="3100" font-size="50.000000" text-anchor="start" transform="rotate(0 5200 3100)" fill="#000000">A8</text>
  <polyline points="5200, 3100 5100, 3100" stroke-width="10px" stroke="#000000"/>
  <text x="5100" y="3200" font-size="50.000000" text-anchor="start" transform="rotate(0 5100 3200)" fill="#000000">26</text>
  <text x="5200" y="3200" font-size="50.000000" text-anchor="start" transform="rotate(0 5200 3200)" fill="#000000">A9</text>
  <polyline points="5200, 3200 5100, 3200" stroke-width="10px" stroke="#000000"/>
  <text x="5100" y="3400" font-size="50.000000" text-anchor="start" transform="rotate(0 5100 3400)" fill="#000000">25</text>
  <text x="5200" y="3400" font-size="50.000000" text-anchor="start" transform="rotate(0 5200 3400)" fill="#000000">A11</text>
  <polyline points="5200, 3400 5100, 3400" stroke-width="10px" stroke="#000000"/>
  <text x="6100" y="3400" font-size="50.000000" text-anchor="end" transform="rotate(0 6100 3400)" fill="#000000">24</text>
  <text x="6000" y="3400" font-size="50.000000" text-anchor="end" transform="rotate(0 6000 3400)" fill="#000000">~OE</text>
  <polyline points="6000, 3400 6100, 3400" stroke-width="10px" stroke="#000000"/>
  <text x="5100" y="3300" font-size="50.000000" text-anchor="start" transform="rotate(0 5100 3300)" fill="#000000">23</text>
  <text x="5200" y="3300" font-size="50.000000" text-anchor="start" transform="rotate(0 5200 3300)" fill="#000000">A10</text>
  <polyline points="5200, 3300 5100, 3300" stroke-width="10px" stroke="#000000"/>
  <text x="6100" y="3200" font-size="50.000000" text-anchor="end" transform="rotate(0 6100 3200)" fill="#000000">22</text>
  <text x="6000" y="3200" font-size="50.000000" text-anchor="end" transform="rotate(0 6000 3200)" fill="#000000">~CS1</text>
  <polyline points="6000, 3200 6100, 3200" stroke-width="10px" stroke="#000000"/>
  <text x="6100" y="3000" font-size="50.000000" text-anchor="end" transform="rotate(0 6100 3000)" fill="#000000">21</text>
  <text x="6000" y="3000" font-size="50.000000" text-anchor="end" transform="rotate(0 6000 3000)" fill="#000000">Q7</text>
  <polyline points="6000, 3000 6100, 3000" stroke-width="10px" stroke="#000000"/>
  <text x="6100" y="2900" font-size="50.000000" text-anchor="end" transform="rotate(0 6100 2900)" fill="#000000">20</text>
  <text x="6000" y="2900" font-size="50.000000" text-anchor="end" transform="rotate(0 6000 2900)" fill="#000000">Q6</text>
  <polyline points="6000, 2900 6100, 2900" stroke-width="10px" stroke="#000000"/>
  <text x="5100" y="3900" font-size="50.000000" text-anchor="start" transform="rotate(0 5100 3900)" fill="#000000">2</text>
  <text x="5200" y="3900" font-size="50.000000" text-anchor="start" transform="rotate(0 5200 3900)" fill="#000000">A16</text>
  <polyline points="5200, 3900 5100, 3900" stroke-width="10px" stroke="#000000"/>
  <text x="6100" y="2800" font-size="50.000000" text-anchor="end" transform="rotate(0 6100 2800)" fill="#000000">19</text>
  <text x="6000" y="2800" font-size="50.000000" text-anchor="end" transform="rotate(0 6000 2800)" fill="#000000">Q5</text>
  <polyline points="6000, 2800 6100, 2800" stroke-width="10px" stroke="#000000"/>
  <text x="6100" y="2700" font-size="50.000000" text-anchor="end" transform="rotate(0 6100 2700)" fill="#000000">18</text>
  <text x="6000" y="2700" font-size="50.000000" text-anchor="end" transform="rotate(0 6000 2700)" fill="#000000">Q4</text>
  <polyline points="6000, 2700 6100, 2700" stroke-width="10px" stroke="#000000"/>
  <text x="6100" y="2600" font-size="50.000000" text-anchor="end" transform="rotate(0 6100 2600)" fill="#000000">17</text>
  <text x="6000" y="2600" font-size="50.000000" text-anchor="end" transform="rotate(0 6000 2600)" fill="#000000">Q3</text>
  <polyline points="6000, 2600 6100, 2600" stroke-width="10px" stroke="#000000"/>
  <text x="6100" y="2500" font-size="50.000000" text-anchor="end" transform="rotate(0 6100 2500)" fill="#000000">15</text>
  <text x="6000" y="2500" font-size="50.000000" text-anchor="end" transform="rotate(0 6000 2500)" fill="#000000">Q2</text>
  <polyline points="6000, 2500 6100, 2500" stroke-width="10px" stroke="#000000"/>
  <text x="6100" y="2400" font-size="50.000000" text-anchor="end" transform="rotate(0 6100 2400)" fill="#000000">14</text>
  <text x="6000" y="2400" font-size="50.000000" text-anchor="end" transform="rotate(0 6000 2400)" fill="#000000">Q1</text>
  <polyline points="6000, 2400 6100, 2400" stroke-width="10px" stroke="#000000"/>
  <text x="6100" y="2300" font-size="50.000000" text-anchor="end" transform="rotate(0 6100 2300)" fill="#000000">13</text>
  <text x="6000" y="2300" font-size="50.000000" text-anchor="end" transform="rotate(0 6000 2300)" fill="#000000">Q0</text>
  <polyline points="6000, 2300 6100, 2300" stroke-width="10px" stroke="#000000"/>
  <text x="5100" y="2300" font-size="50.000000" text-anchor="start" transform="rotate(0 5100 2300)" fill="#000000">12</text>
  <text x="5200" y="2300" font-size="50.000000" text-anchor="start" transform="rotate(0 5200 2300)" fill="#000000">A0</text>
  <polyline points="5200, 2300 5100, 2300" stroke-width="10px" stroke="#000000"/>
  <text x="5100" y="2400" font-size="50.000000" text-anchor="start" transform="rotate(0 5100 2400)" fill="#000000">11</text>
  <text x="5200" y="2400" font-size="50.000000" text-anchor="start" transform="rotate(0 5200 2400)" fill="#000000">A1</text>
  <polyline points="5200, 2400 5100, 2400" stroke-width="10px" stroke="#000000"/>
  <text x="5100" y="2500" font-size="50.000000" text-anchor="start" transform="rotate(0 5100 2500)" fill="#000000">10</text>
  <text x="5200" y="2500" font-size="50.000000" text-anchor="start" transform="rotate(0 5200 2500)" fill="#000000">A2</text>
  <polyline points="5200, 2500 5100, 2500" stroke-width="10px" stroke="#000000"/>
  <text x="5600" y="2100" font-size="50.000000" text-anchor="end" transform="rotate(-90 5600 2100)" fill="#000000">32</text>
  <text x="5600" y="2200" font-size="50.000000" text-anchor="end" transform="rotate(-90 5600 2200)" fill="#000000">VCC</text>
  <polyline points="5600, 2200 5600, 2100" stroke-width="10px" stroke="#000000"/>
  <text x="5600" y="4100" font-size="50.000000" text-anchor="start" transform="rotate(-90 5600 4100)" fill="#000000">16</text>
  <text x="5600" y="4000" font-size="50.000000" text-anchor="start" transform="rotate(-90 5600 4000)" fill="#000000">GND</text>
  <polyline points="5600, 4000 5600, 4100" stroke-width="10px" stroke="#000000"/>
  <polyline points="6000, 2200 5200, 2200" stroke-width="10px" stroke="#000000"/>
  <polyline points="6000, 4000 6000, 2200" stroke-width="10px" stroke="#000000"/>
  <polyline points="5200, 4000 6000, 4000" stroke-width="10px" stroke="#000000"/>
  <polyline points="5200, 2200 5200, 4000" stroke-width="10px" stroke="#000000"/>
</svg>
