<svg xmlns="http://www.w3.org/2000/svg" xmlns:xlink="http://www.w3.org/1999/xlink" viewBox="6554.0 3416.6 960.0 1614.0" font-family="Verdana, sans-serif" style="stroke-opacity:1.000000;fill-opacity:1.000000;">
  <polyline points="7150, 4700 7150, 4750" stroke-width="10px" stroke="#000000"/>
  <text x="6700" y="4500" font-size="50.000000" text-anchor="start" transform="rotate(0 6700 4500)" fill="#000000">VIN</text>
  <text x="7350" y="4250" font-size="50.000000" text-anchor="start" transform="rotate(0 7350 4250)" fill="#000000">VOUT</text>
  <polyline points="7150, 4250 7150, 4300" stroke-width="10px" stroke="#000000"/>
  <circle r="10" cx="7150" cy="4250" fill="#000000" stroke-width="10px" stroke="#000000"/>
  <polyline points="7150, 4250 7450, 4250" stroke-width="10px" stroke="#000000"/>
  <polyline points="6850, 4500 6650, 4500" stroke-width="10px" stroke="#000000"/>
  <polyline points="7150, 3900 7150, 3800" stroke-width="10px" stroke="#000000"/>
  <polyline points="7150, 4200 7150, 4250" stroke-width="10px" stroke="#000000"/>
  <text x="7155" y="4923" font-size="50.000000" text-anchor="middle" transform="rotate(0 7155 4923)" fill="#000000">GND</text>
  <polyline points="7100, 4800 7150, 4800" stroke-width="10px" stroke="#000000"/>
  <polyline points="7150, 4850 7100, 4800" stroke-width="10px" stroke="#000000"/>
  <polyline points="7200, 4800 7150, 4850" stroke-width="10px" stroke="#000000"/>
  <polyline points="7150, 4800 7200, 4800" stroke-width="10px" stroke="#000000"/>
  <polyline points="7150, 4750 7150, 4800" stroke-width="10px" stroke="#000000"/>
  <text x="7150" y="3578" font-size="59.000000" text-anchor="middle" transform="rotate(0 7150 3578)" fill="#000000">VCC</text>
  <text x="7150" y="3800" font-size="0.000000" text-anchor="start" transform="rotate(-90 7150 3800)" fill="#000000">1</text>
  <text x="7150" y="3700" font-size="0.000000" text-anchor="start" transform="rotate(-90 7150 3700)" fill="#000000">VCC</text>
  <polyline points="7150, 3700 7150, 3800" stroke-width="10px" stroke="#000000"/>
  <polyline points="7200, 3775 7150, 3700" stroke-width="10px" stroke="#000000"/>
  <polyline points="7150, 3700 7100, 3775" stroke-width="10px" stroke="#000000"/>
  <text x="7220" y="4050" font-size="50.000000" text-anchor="start" transform="rotate(0 7220 4050)" fill="#000000">R1</text>
  <polyline points="7150, 4150 7150, 4200" stroke-width="10px" stroke="#000000"/>
  <polyline points="7150, 3950 7150, 3900" stroke-width="10px" stroke="#000000"/>
  <polyline points="7190, 4150 7110, 4150" stroke-width="10px" stroke="#000000"/>
  <polyline points="7190, 3950 7190, 4150" stroke-width="10px" stroke="#000000"/>
  <polyline points="7110, 3950 7190, 3950" stroke-width="10px" stroke="#000000"/>
  <polyline points="7110, 4150 7110, 3950" stroke-width="10px" stroke="#000000"/>
  <text x="7241" y="4500" font-size="50.000000" text-anchor="start" transform="rotate(0 7241 4500)" fill="#000000">Q1</text>
  <text x="7150" y="4700" font-size="50.000000" text-anchor="start" transform="rotate(-90 7150 4700)" fill="#000000">3</text>
  <polyline points="7150, 4600 7150, 4700" stroke-width="10px" stroke="#000000"/>
  <text x="7150" y="4300" font-size="50.000000" text-anchor="end" transform="rotate(-90 7150 4300)" fill="#000000">2</text>
  <polyline points="7150, 4400 7150, 4300" stroke-width="10px" stroke="#000000"/>
  <text x="6850" y="4500" font-size="50.000000" text-anchor="start" transform="rotate(0 6850 4500)" fill="#000000">1</text>
  <polyline points="7075, 4500 6850, 4500" stroke-width="10px" stroke="#000000"/>
  <polyline points="7100, 4570 7100, 4570" stroke-width="10px" stroke="#000000"/>
  <polyline points="7140, 4590 7100, 4570" stroke-width="10px" stroke="#000000"/>
  <polyline points="7120, 4550 7140, 4590" stroke-width="10px" stroke="#000000"/>
  <polyline points="7100, 4570 7120, 4550" stroke-width="10px" stroke="#000000"/>
  <polyline points="7100, 4570 7100, 4570" stroke-width="10px" stroke="#000000"/>
  <polyline points="7075, 4575 7075, 4575" stroke-width="10px" stroke="#000000"/>
  <polyline points="7075, 4425 7075, 4575" stroke-width="10px" stroke="#000000"/>
  <polyline points="7150, 4600 7150, 4600" stroke-width="10px" stroke="#000000"/>
  <polyline points="7075, 4525 7150, 4600" stroke-width="10px" stroke="#000000"/>
  <polyline points="7075, 4475 7150, 4400" stroke-width="10px" stroke="#000000"/>
  <circle r="111" cx="7100" cy="4500" fill="none" stroke-width="10px" stroke="#000000"/>
</svg>
