<svg xmlns="http://www.w3.org/2000/svg" xmlns:xlink="http://www.w3.org/1999/xlink" viewBox="4154.0 3386.36 2460.0 896.4" font-family="Verdana, sans-serif" style="stroke-opacity:1.000000;fill-opacity:1.000000;">
  <text x="4600" y="4200" font-size="50.000000" text-anchor="start" transform="rotate(0 4600 4200)" fill="#000000">~PWM</text>
  <text x="4600" y="4050" font-size="50.000000" text-anchor="start" transform="rotate(0 4600 4050)" fill="#000000">PWM1</text>
  <polyline points="6200, 4050 6200, 3950" stroke-width="10px" stroke="#000000"/>
  <text x="6205" y="4223" font-size="50.000000" text-anchor="middle" transform="rotate(0 6205 4223)" fill="#000000">GND</text>
  <polyline points="6150, 4100 6200, 4100" stroke-width="10px" stroke="#000000"/>
  <polyline points="6200, 4150 6150, 4100" stroke-width="10px" stroke="#000000"/>
  <polyline points="6250, 4100 6200, 4150" stroke-width="10px" stroke="#000000"/>
  <polyline points="6200, 4100 6250, 4100" stroke-width="10px" stroke="#000000"/>
  <polyline points="6200, 4050 6200, 4100" stroke-width="10px" stroke="#000000"/>
  <polyline points="5350, 4200 4550, 4200" stroke-width="10px" stroke="#000000"/>
  <polyline points="5350, 3950 5350, 4200" stroke-width="10px" stroke="#000000"/>
  <circle r="10" cx="4950" cy="4050" fill="#000000" stroke-width="10px" stroke="#000000"/>
  <polyline points="5750, 4050 4950, 4050" stroke-width="10px" stroke="#000000"/>
  <polyline points="5750, 3950 5750, 4050" stroke-width="10px" stroke="#000000"/>
  <polyline points="4950, 4050 4550, 4050" stroke-width="10px" stroke="#000000"/>
  <polyline points="4950, 3950 4950, 4050" stroke-width="10px" stroke="#000000"/>
  <text x="6300" y="3600" font-size="50.000000" text-anchor="start" transform="rotate(0 6300 3600)" fill="#000000">VOUT</text>
  <text x="4500" y="3600" font-size="50.000000" text-anchor="start" transform="rotate(0 4500 3600)" fill="#000000">VIN</text>
  <polyline points="5750, 3600 5800, 3600" stroke-width="10px" stroke="#000000"/>
  <circle r="10" cx="5750" cy="3600" fill="#000000" stroke-width="10px" stroke="#000000"/>
  <polyline points="5750, 3650 5750, 3600" stroke-width="10px" stroke="#000000"/>
  <polyline points="5700, 3600 5750, 3600" stroke-width="10px" stroke="#000000"/>
  <text x="5865" y="3800" font-size="50.000000" text-anchor="start" transform="rotate(0 5865 3800)" fill="#000000">C3</text>
  <polyline points="5750, 3840 5750, 3950" stroke-width="10px" stroke="#000000"/>
  <polyline points="5750, 3760 5750, 3650" stroke-width="10px" stroke="#000000"/>
  <polyline points="5670, 3770 5830, 3770" stroke-width="10px" stroke="#000000"/>
  <polyline points="5670, 3830 5830, 3830" stroke-width="10px" stroke="#000000"/>
  <text x="5550" y="3476" font-size="50.000000" text-anchor="middle" transform="rotate(0 5550 3476)" fill="#000000">D3</text>
  <polyline points="5500, 3600 5400, 3600" stroke-width="10px" stroke="#000000"/>
  <polyline points="5600, 3600 5700, 3600" stroke-width="10px" stroke="#000000"/>
  <polyline points="5600, 3600 5500, 3650" stroke-width="10px" stroke="#000000"/>
  <polyline points="5500, 3550 5600, 3600" stroke-width="10px" stroke="#000000"/>
  <polyline points="5500, 3650 5500, 3550" stroke-width="10px" stroke="#000000"/>
  <polyline points="5500, 3600 5600, 3600" stroke-width="10px" stroke="#000000"/>
  <polyline points="5600, 3650 5600, 3550" stroke-width="10px" stroke="#000000"/>
  <polyline points="4950, 3600 5000, 3600" stroke-width="10px" stroke="#000000"/>
  <circle r="10" cx="4950" cy="3600" fill="#000000" stroke-width="10px" stroke="#000000"/>
  <polyline points="4950, 3650 4950, 3600" stroke-width="10px" stroke="#000000"/>
  <polyline points="5350, 3600 5400, 3600" stroke-width="10px" stroke="#000000"/>
  <circle r="10" cx="5350" cy="3600" fill="#000000" stroke-width="10px" stroke="#000000"/>
  <polyline points="5350, 3650 5350, 3600" stroke-width="10px" stroke="#000000"/>
  <polyline points="6200, 3600 6450, 3600" stroke-width="10px" stroke="#000000"/>
  <circle r="10" cx="6200" cy="3600" fill="#000000" stroke-width="10px" stroke="#000000"/>
  <polyline points="6200, 3650 6200, 3600" stroke-width="10px" stroke="#000000"/>
  <polyline points="6100, 3600 6200, 3600" stroke-width="10px" stroke="#000000"/>
  <polyline points="5300, 3600 5350, 3600" stroke-width="10px" stroke="#000000"/>
  <polyline points="4900, 3600 4950, 3600" stroke-width="10px" stroke="#000000"/>
  <polyline points="4600, 3600 4400, 3600" stroke-width="10px" stroke="#000000"/>
  <text x="6315" y="3800" font-size="50.000000" text-anchor="start" transform="rotate(0 6315 3800)" fill="#000000">C4</text>
  <polyline points="6200, 3840 6200, 3950" stroke-width="10px" stroke="#000000"/>
  <polyline points="6200, 3760 6200, 3650" stroke-width="10px" stroke="#000000"/>
  <polyline points="6120, 3770 6280, 3770" stroke-width="10px" stroke="#000000"/>
  <polyline points="6120, 3830 6280, 3830" stroke-width="10px" stroke="#000000"/>
  <text x="5465" y="3800" font-size="50.000000" text-anchor="start" transform="rotate(0 5465 3800)" fill="#000000">C2</text>
  <polyline points="5350, 3840 5350, 3950" stroke-width="10px" stroke="#000000"/>
  <polyline points="5350, 3760 5350, 3650" stroke-width="10px" stroke="#000000"/>
  <polyline points="5270, 3770 5430, 3770" stroke-width="10px" stroke="#000000"/>
  <polyline points="5270, 3830 5430, 3830" stroke-width="10px" stroke="#000000"/>
  <text x="5065" y="3800" font-size="50.000000" text-anchor="start" transform="rotate(0 5065 3800)" fill="#000000">C1</text>
  <polyline points="4950, 3840 4950, 3950" stroke-width="10px" stroke="#000000"/>
  <polyline points="4950, 3760 4950, 3650" stroke-width="10px" stroke="#000000"/>
  <polyline points="4870, 3770 5030, 3770" stroke-width="10px" stroke="#000000"/>
  <polyline points="4870, 3830 5030, 3830" stroke-width="10px" stroke="#000000"/>
  <text x="5950" y="3476" font-size="50.000000" text-anchor="middle" transform="rotate(0 5950 3476)" fill="#000000">D4</text>
  <polyline points="5900, 3600 5800, 3600" stroke-width="10px" stroke="#000000"/>
  <polyline points="6000, 3600 6100, 3600" stroke-width="10px" stroke="#000000"/>
  <polyline points="6000, 3600 5900, 3650" stroke-width="10px" stroke="#000000"/>
  <polyline points="5900, 3550 6000, 3600" stroke-width="10px" stroke="#000000"/>
  <polyline points="5900, 3650 5900, 3550" stroke-width="10px" stroke="#000000"/>
  <polyline points="5900, 3600 6000, 3600" stroke-width="10px" stroke="#000000"/>
  <polyline points="6000, 3650 6000, 3550" stroke-width="10px" stroke="#000000"/>
  <text x="5150" y="3476" font-size="50.000000" text-anchor="middle" transform="rotate(0 5150 3476)" fill="#000000">D2</text>
  <polyline points="5100, 3600 5000, 3600" stroke-width="10px" stroke="#000000"/>
  <polyline points="5200, 3600 5300, 3600" stroke-width="10px" stroke="#000000"/>
  <polyline points="5200, 3600 5100, 3650" stroke-width="10px" stroke="#000000"/>
  <polyline points="5100, 3550 5200, 3600" stroke-width="10px" stroke="#000000"/>
  <polyline points="5100, 3650 5100, 3550" stroke-width="10px" stroke="#000000"/>
  <polyline points="5100, 3600 5200, 3600" stroke-width="10px" stroke="#000000"/>
  <polyline points="5200, 3650 5200, 3550" stroke-width="10px" stroke="#000000"/>
  <text x="4750" y="3476" font-size="50.000000" text-anchor="middle" transform="rotate(0 4750 3476)" fill="#000000">D1</text>
  <polyline points="4700, 3600 4600, 3600" stroke-width="10px" stroke="#000000"/>
  <polyline points="4800, 3600 4900, 3600" stroke-width="10px" stroke="#000000"/>
  <polyline points="4800, 3600 4700, 3650" stroke-width="10px" stroke="#000000"/>
  <polyline points="4700, 3550 4800, 3600" stroke-width="10px" stroke="#000000"/>
  <polyline points="4700, 3650 4700, 3550" stroke-width="10px" stroke="#000000"/>
  <polyline points="4700, 3600 4800, 3600" stroke-width="10px" stroke="#000000"/>
  <polyline points="4800, 3650 4800, 3550" stroke-width="10px" stroke="#000000"/>
</svg>
