<!DOCTYPE svg PUBLIC "-//W3C//DTD SVG 1.1//EN"
"http://www.w3.org/Graphics/SVG/1.1/DTD/svg11.dtd">
<svg xmlns="http://www.w3.org/2000/svg" xmlns:xlink="http://www.w3.org/1999/xlink" width="29.7002cm" height="21.0007cm" viewBox="0 0 11693 8268" font-family="Verdana, sans-serif" style="stroke-opacity:1.000000;fill-opacity:1.000000;"><rect fill="#FFFFFF" width="11693" height="8268" style="stroke-opacity:1.0;fill-opacity:1.0;"></rect><polyline points="5900, 3900 6150, 3900" stroke-width="10px" stroke="#800000"></polyline><polyline points="5300, 3900 5600, 3900" stroke-width="10px" stroke="#800000"></polyline><text x="5750" y="3795" font-size="50.000000" text-anchor="middle" transform="rotate(0 5750 3795)" fill="#000000">F1</text><polyline points="5650, 3900 5600, 3900" stroke-width="10px" stroke="#000000"></polyline><polyline points="5850, 3900 5900, 3900" stroke-width="10px" stroke="#000000"></polyline><polyline points="5850, 3900 5650, 3900" stroke-width="10px" stroke="#000000"></polyline><polyline points="5650, 3930 5650, 3870" stroke-width="10px" stroke="#000000"></polyline><polyline points="5850, 3930 5650, 3930" stroke-width="10px" stroke="#000000"></polyline><polyline points="5850, 3870 5850, 3930" stroke-width="10px" stroke="#000000"></polyline><polyline points="5650, 3870 5850, 3870" stroke-width="10px" stroke="#000000"></polyline><polyline points="6150, 4400 6150, 4300" stroke-width="10px" stroke="#800000"></polyline><text x="6155" y="4573" font-size="50.000000" text-anchor="middle" transform="rotate(0 6155 4573)" fill="#000000">GND</text><polyline points="6100, 4450 6150, 4450" stroke-width="10px" stroke="#000000"></polyline><polyline points="6150, 4500 6100, 4450" stroke-width="10px" stroke="#000000"></polyline><polyline points="6200, 4450 6150, 4500" stroke-width="10px" stroke="#000000"></polyline><polyline points="6150, 4450 6200, 4450" stroke-width="10px" stroke="#000000"></polyline><polyline points="6150, 4400 6150, 4450" stroke-width="10px" stroke="#000000"></polyline><polyline points="6150, 3900 6300, 3900" stroke-width="10px" stroke="#800000"></polyline><circle r="10" cx="6150" cy="3900" fill="#000000" stroke-width="10px" stroke="#000000"></circle><polyline points="6150, 4000 6150, 3900" stroke-width="10px" stroke="#800000"></polyline><text x="6229" y="4150" font-size="50.000000" text-anchor="start" transform="rotate(0 6229 4150)" fill="#000000">D1</text><polyline points="6150, 4200 6150, 4300" stroke-width="10px" stroke="#000000"></polyline><polyline points="6150, 4100 6150, 4000" stroke-width="10px" stroke="#000000"></polyline><polyline points="6150, 4100 6100, 4200" stroke-width="10px" stroke="#000000"></polyline><polyline points="6200, 4200 6150, 4100" stroke-width="10px" stroke="#000000"></polyline><polyline points="6100, 4200 6200, 4200" stroke-width="10px" stroke="#000000"></polyline><polyline points="6200, 4100 6200, 4120" stroke-width="10px" stroke="#000000"></polyline><polyline points="6100, 4100 6200, 4100" stroke-width="10px" stroke="#000000"></polyline><polyline points="6150, 4200 6150, 4100" stroke-width="10px" stroke="#000000"></polyline><text x="5300" y="3900" font-size="50.000000" text-anchor="start" transform="rotate(0 5300 3900)" fill="#FF0000">VIN</text><text x="6200" y="3900" font-size="50.000000" text-anchor="start" transform="rotate(0 6200 3900)" fill="#FF0000">VOUT</text><text x="7693" y="7968" font-size="50.000000" text-anchor="start" transform="rotate(0 7693 7968)" fill="#000000">Page: 1 1</text><rect x="7593" y="7618" width="4000" height="400" fill="none" stroke-width="5px" stroke="#000000"></rect><rect x="7593" y="7918" width="4000" height="100" fill="none" stroke-width="5px" stroke="#000000"></rect><rect x="7593" y="8018" width="4000" height="150" fill="none" stroke-width="5px" stroke="#000000"></rect><rect x="100" y="100" width="11493" height="8068" fill="none" stroke-width="5px" stroke="#000000"></rect></svg>