<!DOCTYPE svg PUBLIC "-//W3C//DTD SVG 1.1//EN"
"http://www.w3.org/Graphics/SVG/1.1/DTD/svg11.dtd">
<svg xmlns="http://www.w3.org/2000/svg" xmlns:xlink="http://www.w3.org/1999/xlink" width="29.7002cm" height="21.0007cm" viewBox="0 0 11693 8268" font-family="Verdana, sans-serif" style="stroke-opacity:1.000000;fill-opacity:1.000000;"><rect fill="#FFFFFF" width="11693" height="8268" style="stroke-opacity:1.0;fill-opacity:1.0;"></rect><text x="6050" y="3950" font-size="50.000000" text-anchor="start" transform="rotate(0 6050 3950)" fill="#00FF00">HPF</text><text x="6050" y="4000" font-size="50.000000" text-anchor="start" transform="rotate(0 6050 4000)" fill="#00FF00"></text><text x="5350" y="3950" font-size="50.000000" text-anchor="start" transform="rotate(0 5350 3950)" fill="#00FF00">LPF</text><text x="5350" y="4000" font-size="50.000000" text-anchor="start" transform="rotate(0 5350 4000)" fill="#00FF00"></text><text x="6215" y="3000" font-size="50.000000" text-anchor="start" transform="rotate(0 6215 3000)" fill="#000000">C</text><polyline points="6100, 3040 6100, 3150" stroke-width="10px" stroke="#000000"></polyline><polyline points="6100, 2960 6100, 2850" stroke-width="10px" stroke="#000000"></polyline><polyline points="6020, 2970 6180, 2970" stroke-width="10px" stroke="#000000"></polyline><polyline points="6020, 3030 6180, 3030" stroke-width="10px" stroke="#000000"></polyline><text x="5515" y="3450" font-size="50.000000" text-anchor="start" transform="rotate(0 5515 3450)" fill="#000000">C</text><polyline points="5400, 3490 5400, 3600" stroke-width="10px" stroke="#000000"></polyline><polyline points="5400, 3410 5400, 3300" stroke-width="10px" stroke="#000000"></polyline><polyline points="5320, 3420 5480, 3420" stroke-width="10px" stroke="#000000"></polyline><polyline points="5320, 3480 5480, 3480" stroke-width="10px" stroke="#000000"></polyline><text x="6250" y="3250" font-size="50.000000" text-anchor="start" transform="rotate(0 6250 3250)" fill="#FF0000">VOUT_HPF</text><text x="5700" y="2750" font-size="50.000000" text-anchor="start" transform="rotate(0 5700 2750)" fill="#FF0000">Vin</text><polyline points="6100, 3250 6100, 3300" stroke-width="10px" stroke="#800000"></polyline><circle r="10" cx="6100" cy="3250" fill="#000000" stroke-width="10px" stroke="#000000"></circle><polyline points="6100, 3150 6100, 3250" stroke-width="10px" stroke="#800000"></polyline><polyline points="6400, 3250 6100, 3250" stroke-width="10px" stroke="#800000"></polyline><polyline points="6100, 3600 6100, 3700" stroke-width="10px" stroke="#800000"></polyline><polyline points="6100, 2750 6100, 2850" stroke-width="10px" stroke="#800000"></polyline><polyline points="5700, 2750 6100, 2750" stroke-width="10px" stroke="#800000"></polyline><text x="6105" y="3873" font-size="50.000000" text-anchor="middle" transform="rotate(0 6105 3873)" fill="#000000">GND</text><polyline points="6050, 3750 6100, 3750" stroke-width="10px" stroke="#000000"></polyline><polyline points="6100, 3800 6050, 3750" stroke-width="10px" stroke="#000000"></polyline><polyline points="6150, 3750 6100, 3800" stroke-width="10px" stroke="#000000"></polyline><polyline points="6100, 3750 6150, 3750" stroke-width="10px" stroke="#000000"></polyline><polyline points="6100, 3700 6100, 3750" stroke-width="10px" stroke="#000000"></polyline><text x="6170" y="3495" font-size="50.000000" text-anchor="start" transform="rotate(0 6170 3495)" fill="#000000">R</text><polyline points="6100, 3550 6100, 3600" stroke-width="10px" stroke="#000000"></polyline><polyline points="6100, 3350 6100, 3300" stroke-width="10px" stroke="#000000"></polyline><polyline points="6140, 3550 6060, 3550" stroke-width="10px" stroke="#000000"></polyline><polyline points="6140, 3350 6140, 3550" stroke-width="10px" stroke="#000000"></polyline><polyline points="6060, 3350 6140, 3350" stroke-width="10px" stroke="#000000"></polyline><polyline points="6060, 3550 6060, 3350" stroke-width="10px" stroke="#000000"></polyline><text x="5550" y="3250" font-size="50.000000" text-anchor="start" transform="rotate(0 5550 3250)" fill="#FF0000">VOUT_LPF</text><text x="5000" y="2750" font-size="50.000000" text-anchor="start" transform="rotate(0 5000 2750)" fill="#FF0000">Vin</text><polyline points="5400, 3250 5400, 3300" stroke-width="10px" stroke="#800000"></polyline><circle r="10" cx="5400" cy="3250" fill="#000000" stroke-width="10px" stroke="#000000"></circle><polyline points="5400, 3150 5400, 3250" stroke-width="10px" stroke="#800000"></polyline><polyline points="5700, 3250 5400, 3250" stroke-width="10px" stroke="#800000"></polyline><polyline points="5400, 3600 5400, 3700" stroke-width="10px" stroke="#800000"></polyline><polyline points="5400, 2750 5400, 2850" stroke-width="10px" stroke="#800000"></polyline><polyline points="5000, 2750 5400, 2750" stroke-width="10px" stroke="#800000"></polyline><text x="5405" y="3873" font-size="50.000000" text-anchor="middle" transform="rotate(0 5405 3873)" fill="#000000">GND</text><polyline points="5350, 3750 5400, 3750" stroke-width="10px" stroke="#000000"></polyline><polyline points="5400, 3800 5350, 3750" stroke-width="10px" stroke="#000000"></polyline><polyline points="5450, 3750 5400, 3800" stroke-width="10px" stroke="#000000"></polyline><polyline points="5400, 3750 5450, 3750" stroke-width="10px" stroke="#000000"></polyline><polyline points="5400, 3700 5400, 3750" stroke-width="10px" stroke="#000000"></polyline><text x="5470" y="3045" font-size="50.000000" text-anchor="start" transform="rotate(0 5470 3045)" fill="#000000">R</text><polyline points="5400, 3100 5400, 3150" stroke-width="10px" stroke="#000000"></polyline><polyline points="5400, 2900 5400, 2850" stroke-width="10px" stroke="#000000"></polyline><polyline points="5440, 3100 5360, 3100" stroke-width="10px" stroke="#000000"></polyline><polyline points="5440, 2900 5440, 3100" stroke-width="10px" stroke="#000000"></polyline><polyline points="5360, 2900 5440, 2900" stroke-width="10px" stroke="#000000"></polyline><polyline points="5360, 3100 5360, 2900" stroke-width="10px" stroke="#000000"></polyline><text x="4700" y="3250" font-size="50.000000" text-anchor="start" transform="rotate(0 4700 3250)" fill="#FF0000">Vout</text><text x="4150" y="2750" font-size="50.000000" text-anchor="start" transform="rotate(0 4150 2750)" fill="#FF0000">Vin</text><polyline points="4550, 3250 4550, 3300" stroke-width="10px" stroke="#800000"></polyline><circle r="10" cx="4550" cy="3250" fill="#000000" stroke-width="10px" stroke="#000000"></circle><polyline points="4550, 3150 4550, 3250" stroke-width="10px" stroke="#800000"></polyline><polyline points="4850, 3250 4550, 3250" stroke-width="10px" stroke="#800000"></polyline><polyline points="4550, 3600 4550, 3700" stroke-width="10px" stroke="#800000"></polyline><polyline points="4550, 2750 4550, 2850" stroke-width="10px" stroke="#800000"></polyline><polyline points="4150, 2750 4550, 2750" stroke-width="10px" stroke="#800000"></polyline><text x="4555" y="3873" font-size="50.000000" text-anchor="middle" transform="rotate(0 4555 3873)" fill="#000000">GND</text><polyline points="4500, 3750 4550, 3750" stroke-width="10px" stroke="#000000"></polyline><polyline points="4550, 3800 4500, 3750" stroke-width="10px" stroke="#000000"></polyline><polyline points="4600, 3750 4550, 3800" stroke-width="10px" stroke="#000000"></polyline><polyline points="4550, 3750 4600, 3750" stroke-width="10px" stroke="#000000"></polyline><polyline points="4550, 3700 4550, 3750" stroke-width="10px" stroke="#000000"></polyline><text x="4620" y="3450" font-size="50.000000" text-anchor="start" transform="rotate(0 4620 3450)" fill="#000000">R2</text><polyline points="4550, 3550 4550, 3600" stroke-width="10px" stroke="#000000"></polyline><polyline points="4550, 3350 4550, 3300" stroke-width="10px" stroke="#000000"></polyline><polyline points="4590, 3550 4510, 3550" stroke-width="10px" stroke="#000000"></polyline><polyline points="4590, 3350 4590, 3550" stroke-width="10px" stroke="#000000"></polyline><polyline points="4510, 3350 4590, 3350" stroke-width="10px" stroke="#000000"></polyline><polyline points="4510, 3550 4510, 3350" stroke-width="10px" stroke="#000000"></polyline><text x="4620" y="3000" font-size="50.000000" text-anchor="start" transform="rotate(0 4620 3000)" fill="#000000">R1</text><polyline points="4550, 3100 4550, 3150" stroke-width="10px" stroke="#000000"></polyline><polyline points="4550, 2900 4550, 2850" stroke-width="10px" stroke="#000000"></polyline><polyline points="4590, 3100 4510, 3100" stroke-width="10px" stroke="#000000"></polyline><polyline points="4590, 2900 4590, 3100" stroke-width="10px" stroke="#000000"></polyline><polyline points="4510, 2900 4590, 2900" stroke-width="10px" stroke="#000000"></polyline><polyline points="4510, 3100 4510, 2900" stroke-width="10px" stroke="#000000"></polyline><text x="7693" y="7968" font-size="50.000000" text-anchor="start" transform="rotate(0 7693 7968)" fill="#000000">Page: 1 1</text><rect x="7593" y="7618" width="4000" height="400" fill="none" stroke-width="5px" stroke="#000000"></rect><rect x="7593" y="7918" width="4000" height="100" fill="none" stroke-width="5px" stroke="#000000"></rect><rect x="7593" y="8018" width="4000" height="150" fill="none" stroke-width="5px" stroke="#000000"></rect><rect x="100" y="100" width="11493" height="8068" fill="none" stroke-width="5px" stroke="#000000"></rect></svg>