<!DOCTYPE svg PUBLIC "-//W3C//DTD SVG 1.1//EN"
"http://www.w3.org/Graphics/SVG/1.1/DTD/svg11.dtd">
<svg xmlns="http://www.w3.org/2000/svg" xmlns:xlink="http://www.w3.org/1999/xlink" width="29.7002cm" height="21.0007cm" viewBox="0 0 11693 8268" font-family="Verdana, sans-serif" style="stroke-opacity:1.000000;fill-opacity:1.000000;"><rect fill="#FFFFFF" width="11693" height="8268" style="stroke-opacity:1.0;fill-opacity:1.0;"></rect><polyline points="5650, 4300 5650, 4400" stroke-width="10px" stroke="#800000"></polyline><text x="5655" y="4573" font-size="50.000000" text-anchor="middle" transform="rotate(0 5655 4573)" fill="#000000">GND</text><polyline points="5600, 4450 5650, 4450" stroke-width="10px" stroke="#000000"></polyline><polyline points="5650, 4500 5600, 4450" stroke-width="10px" stroke="#000000"></polyline><polyline points="5700, 4450 5650, 4500" stroke-width="10px" stroke="#000000"></polyline><polyline points="5650, 4450 5700, 4450" stroke-width="10px" stroke="#000000"></polyline><polyline points="5650, 4400 5650, 4450" stroke-width="10px" stroke="#000000"></polyline><text x="6450" y="3700" font-size="50.000000" text-anchor="start" transform="rotate(0 6450 3700)" fill="#FF0000">VOUT</text><circle r="10" cx="6300" cy="3700" fill="#000000" stroke-width="10px" stroke="#000000"></circle><polyline points="6300, 3700 6600, 3700" stroke-width="10px" stroke="#800000"></polyline><polyline points="6300, 4000 6300, 3700" stroke-width="10px" stroke="#800000"></polyline><polyline points="6100, 4000 6300, 4000" stroke-width="10px" stroke="#800000"></polyline><circle r="10" cx="5650" cy="4000" fill="#000000" stroke-width="10px" stroke="#000000"></circle><polyline points="5800, 4000 5650, 4000" stroke-width="10px" stroke="#800000"></polyline><polyline points="5650, 3800 5650, 4000" stroke-width="10px" stroke="#800000"></polyline><circle r="10" cx="5650" cy="3800" fill="#000000" stroke-width="10px" stroke="#000000"></circle><polyline points="5700, 3800 5650, 3800" stroke-width="10px" stroke="#800000"></polyline><polyline points="5650, 3550 5650, 3800" stroke-width="10px" stroke="#800000"></polyline><polyline points="5650, 3150 5650, 3250" stroke-width="10px" stroke="#800000"></polyline><text x="5350" y="3600" font-size="50.000000" text-anchor="start" transform="rotate(0 5350 3600)" fill="#FF0000">VIN</text><polyline points="5700, 3600 5250, 3600" stroke-width="10px" stroke="#800000"></polyline><text x="5950" y="3885" font-size="50.000000" text-anchor="middle" transform="rotate(0 5950 3885)" fill="#000000">R3</text><polyline points="5850, 4000 5800, 4000" stroke-width="10px" stroke="#000000"></polyline><polyline points="6050, 4000 6100, 4000" stroke-width="10px" stroke="#000000"></polyline><polyline points="5850, 4040 5850, 3960" stroke-width="10px" stroke="#000000"></polyline><polyline points="6050, 4040 5850, 4040" stroke-width="10px" stroke="#000000"></polyline><polyline points="6050, 3960 6050, 4040" stroke-width="10px" stroke="#000000"></polyline><polyline points="5850, 3960 6050, 3960" stroke-width="10px" stroke="#000000"></polyline><text x="5720" y="4150" font-size="50.000000" text-anchor="start" transform="rotate(0 5720 4150)" fill="#000000">R2</text><polyline points="5650, 4250 5650, 4300" stroke-width="10px" stroke="#000000"></polyline><polyline points="5650, 4050 5650, 4000" stroke-width="10px" stroke="#000000"></polyline><polyline points="5690, 4250 5610, 4250" stroke-width="10px" stroke="#000000"></polyline><polyline points="5690, 4050 5690, 4250" stroke-width="10px" stroke="#000000"></polyline><polyline points="5610, 4050 5690, 4050" stroke-width="10px" stroke="#000000"></polyline><polyline points="5610, 4250 5610, 4050" stroke-width="10px" stroke="#000000"></polyline><text x="5720" y="3400" font-size="50.000000" text-anchor="start" transform="rotate(0 5720 3400)" fill="#000000">R1</text><polyline points="5650, 3500 5650, 3550" stroke-width="10px" stroke="#000000"></polyline><polyline points="5650, 3300 5650, 3250" stroke-width="10px" stroke="#000000"></polyline><polyline points="5690, 3500 5610, 3500" stroke-width="10px" stroke="#000000"></polyline><polyline points="5690, 3300 5690, 3500" stroke-width="10px" stroke="#000000"></polyline><polyline points="5610, 3300 5690, 3300" stroke-width="10px" stroke="#000000"></polyline><polyline points="5610, 3500 5610, 3300" stroke-width="10px" stroke="#000000"></polyline><text x="5667" y="2977" font-size="50.000000" text-anchor="middle" transform="rotate(0 5667 2977)" fill="#000000">VCC</text><polyline points="5650, 3150 5650, 3100" stroke-width="10px" stroke="#000000"></polyline><circle r="25" cx="5650" cy="3075" fill="none" stroke-width="10px" stroke="#000000"></circle><text x="6000" y="3425" font-size="50.000000" text-anchor="middle" transform="rotate(0 6000 3425)" fill="#000000">U1A</text><text x="5700" y="3600" font-size="50.000000" text-anchor="start" transform="rotate(0 5700 3600)" fill="#000000">3</text><text x="5800" y="3600" font-size="50.000000" text-anchor="start" transform="rotate(0 5800 3600)" fill="#000000">+</text><polyline points="5800, 3600 5700, 3600" stroke-width="10px" stroke="#000000"></polyline><text x="5700" y="3800" font-size="50.000000" text-anchor="start" transform="rotate(0 5700 3800)" fill="#000000">2</text><text x="5800" y="3800" font-size="50.000000" text-anchor="start" transform="rotate(0 5800 3800)" fill="#000000">-</text><polyline points="5800, 3800 5700, 3800" stroke-width="10px" stroke="#000000"></polyline><text x="6300" y="3700" font-size="50.000000" text-anchor="end" transform="rotate(0 6300 3700)" fill="#000000">1</text><polyline points="6200, 3700 6300, 3700" stroke-width="10px" stroke="#000000"></polyline><polyline points="5800, 3900 5800, 3500" stroke-width="10px" stroke="#000000"></polyline><polyline points="6200, 3700 5800, 3900" stroke-width="10px" stroke="#000000"></polyline><polyline points="5800, 3500 6200, 3700" stroke-width="10px" stroke="#000000"></polyline><text x="7693" y="7968" font-size="50.000000" text-anchor="start" transform="rotate(0 7693 7968)" fill="#000000">Page: 1 1</text><rect x="7593" y="7618" width="4000" height="400" fill="none" stroke-width="5px" stroke="#000000"></rect><rect x="7593" y="7918" width="4000" height="100" fill="none" stroke-width="5px" stroke="#000000"></rect><rect x="7593" y="8018" width="4000" height="150" fill="none" stroke-width="5px" stroke="#000000"></rect><rect x="100" y="100" width="11493" height="8068" fill="none" stroke-width="5px" stroke="#000000"></rect></svg>