<!DOCTYPE svg PUBLIC "-//W3C//DTD SVG 1.1//EN"
"http://www.w3.org/Graphics/SVG/1.1/DTD/svg11.dtd">
<svg xmlns="http://www.w3.org/2000/svg" xmlns:xlink="http://www.w3.org/1999/xlink" width="29.7002cm" height="21.0007cm" viewBox="0 0 11693 8268" font-family="Verdana, sans-serif" style="stroke-opacity:1.000000;fill-opacity:1.000000;"><rect fill="#FFFFFF" width="11693" height="8268" style="stroke-opacity:1.0;fill-opacity:1.0;"></rect><polyline points="7150, 4700 7150, 4750" stroke-width="10px" stroke="#800000"></polyline><text x="6700" y="4500" font-size="50.000000" text-anchor="start" transform="rotate(0 6700 4500)" fill="#FF0000">VIN</text><text x="7350" y="4250" font-size="50.000000" text-anchor="start" transform="rotate(0 7350 4250)" fill="#FF0000">VOUT</text><polyline points="7150, 4250 7150, 4300" stroke-width="10px" stroke="#800000"></polyline><circle r="10" cx="7150" cy="4250" fill="#000000" stroke-width="10px" stroke="#000000"></circle><polyline points="7150, 4250 7450, 4250" stroke-width="10px" stroke="#800000"></polyline><polyline points="6850, 4500 6650, 4500" stroke-width="10px" stroke="#800000"></polyline><polyline points="7150, 3900 7150, 3800" stroke-width="10px" stroke="#800000"></polyline><polyline points="7150, 4200 7150, 4250" stroke-width="10px" stroke="#800000"></polyline><text x="7155" y="4923" font-size="50.000000" text-anchor="middle" transform="rotate(0 7155 4923)" fill="#000000">GND</text><polyline points="7100, 4800 7150, 4800" stroke-width="10px" stroke="#000000"></polyline><polyline points="7150, 4850 7100, 4800" stroke-width="10px" stroke="#000000"></polyline><polyline points="7200, 4800 7150, 4850" stroke-width="10px" stroke="#000000"></polyline><polyline points="7150, 4800 7200, 4800" stroke-width="10px" stroke="#000000"></polyline><polyline points="7150, 4750 7150, 4800" stroke-width="10px" stroke="#000000"></polyline><text x="7150" y="3578" font-size="59.000000" text-anchor="middle" transform="rotate(0 7150 3578)" fill="#000000">VCC</text><text x="7150" y="3800" font-size="0.000000" text-anchor="start" transform="rotate(-90 7150 3800)" fill="#000000">1</text><text x="7150" y="3700" font-size="0.000000" text-anchor="start" transform="rotate(-90 7150 3700)" fill="#000000">VCC</text><polyline points="7150, 3700 7150, 3800" stroke-width="10px" stroke="#000000"></polyline><polyline points="7200, 3775 7150, 3700" stroke-width="10px" stroke="#000000"></polyline><polyline points="7150, 3700 7100, 3775" stroke-width="10px" stroke="#000000"></polyline><text x="7220" y="4050" font-size="50.000000" text-anchor="start" transform="rotate(0 7220 4050)" fill="#000000">R1</text><polyline points="7150, 4150 7150, 4200" stroke-width="10px" stroke="#000000"></polyline><polyline points="7150, 3950 7150, 3900" stroke-width="10px" stroke="#000000"></polyline><polyline points="7190, 4150 7110, 4150" stroke-width="10px" stroke="#000000"></polyline><polyline points="7190, 3950 7190, 4150" stroke-width="10px" stroke="#000000"></polyline><polyline points="7110, 3950 7190, 3950" stroke-width="10px" stroke="#000000"></polyline><polyline points="7110, 4150 7110, 3950" stroke-width="10px" stroke="#000000"></polyline><text x="7241" y="4500" font-size="50.000000" text-anchor="start" transform="rotate(0 7241 4500)" fill="#000000">Q1</text><text x="7150" y="4700" font-size="50.000000" text-anchor="start" transform="rotate(-90 7150 4700)" fill="#000000">3</text><polyline points="7150, 4600 7150, 4700" stroke-width="10px" stroke="#000000"></polyline><text x="7150" y="4300" font-size="50.000000" text-anchor="end" transform="rotate(-90 7150 4300)" fill="#000000">2</text><polyline points="7150, 4400 7150, 4300" stroke-width="10px" stroke="#000000"></polyline><text x="6850" y="4500" font-size="50.000000" text-anchor="start" transform="rotate(0 6850 4500)" fill="#000000">1</text><polyline points="7075, 4500 6850, 4500" stroke-width="10px" stroke="#000000"></polyline><polyline points="7100, 4570 7100, 4570" stroke-width="10px" stroke="#000000"></polyline><polyline points="7140, 4590 7100, 4570" stroke-width="10px" stroke="#000000"></polyline><polyline points="7120, 4550 7140, 4590" stroke-width="10px" stroke="#000000"></polyline><polyline points="7100, 4570 7120, 4550" stroke-width="10px" stroke="#000000"></polyline><polyline points="7100, 4570 7100, 4570" stroke-width="10px" stroke="#000000"></polyline><polyline points="7075, 4575 7075, 4575" stroke-width="10px" stroke="#000000"></polyline><polyline points="7075, 4425 7075, 4575" stroke-width="10px" stroke="#000000"></polyline><polyline points="7150, 4600 7150, 4600" stroke-width="10px" stroke="#000000"></polyline><polyline points="7075, 4525 7150, 4600" stroke-width="10px" stroke="#000000"></polyline><polyline points="7075, 4475 7150, 4400" stroke-width="10px" stroke="#000000"></polyline><circle r="111" cx="7100" cy="4500" fill="none" stroke-width="10px" stroke="#000000"></circle><text x="7693" y="7968" font-size="50.000000" text-anchor="start" transform="rotate(0 7693 7968)" fill="#000000">Page: 1 1</text><rect x="7593" y="7618" width="4000" height="400" fill="none" stroke-width="5px" stroke="#000000"></rect><rect x="7593" y="7918" width="4000" height="100" fill="none" stroke-width="5px" stroke="#000000"></rect><rect x="7593" y="8018" width="4000" height="150" fill="none" stroke-width="5px" stroke="#000000"></rect><rect x="100" y="100" width="11493" height="8068" fill="none" stroke-width="5px" stroke="#000000"></rect></svg>