<!DOCTYPE svg PUBLIC "-//W3C//DTD SVG 1.1//EN"
"http://www.w3.org/Graphics/SVG/1.1/DTD/svg11.dtd">
<svg xmlns="http://www.w3.org/2000/svg" xmlns:xlink="http://www.w3.org/1999/xlink" width="29.7002cm" height="21.0007cm" viewBox="0 0 11693 8268" font-family="Verdana, sans-serif" style="stroke-opacity:1.000000;fill-opacity:1.000000;"><rect fill="#FFFFFF" width="11693" height="8268" style="stroke-opacity:1.0;fill-opacity:1.0;"></rect><polyline points="6300, 4550 6300, 4650" stroke-width="10px" stroke="#800000"></polyline><text x="6305" y="4823" font-size="50.000000" text-anchor="middle" transform="rotate(0 6305 4823)" fill="#000000">GND</text><polyline points="6250, 4700 6300, 4700" stroke-width="10px" stroke="#000000"></polyline><polyline points="6300, 4750 6250, 4700" stroke-width="10px" stroke="#000000"></polyline><polyline points="6350, 4700 6300, 4750" stroke-width="10px" stroke="#000000"></polyline><polyline points="6300, 4700 6350, 4700" stroke-width="10px" stroke="#000000"></polyline><polyline points="6300, 4650 6300, 4700" stroke-width="10px" stroke="#000000"></polyline><polyline points="6300, 4150 6300, 4200" stroke-width="10px" stroke="#800000"></polyline><polyline points="6300, 3800 6300, 3850" stroke-width="10px" stroke="#800000"></polyline><text x="6317" y="3627" font-size="50.000000" text-anchor="middle" transform="rotate(0 6317 3627)" fill="#000000">VCC</text><polyline points="6300, 3800 6300, 3750" stroke-width="10px" stroke="#000000"></polyline><circle r="25" cx="6300" cy="3725" fill="none" stroke-width="10px" stroke="#000000"></circle><text x="6370" y="4000" font-size="50.000000" text-anchor="start" transform="rotate(0 6370 4000)" fill="#000000">R1</text><polyline points="6300, 4100 6300, 4150" stroke-width="10px" stroke="#000000"></polyline><polyline points="6300, 3900 6300, 3850" stroke-width="10px" stroke="#000000"></polyline><polyline points="6340, 4100 6260, 4100" stroke-width="10px" stroke="#000000"></polyline><polyline points="6340, 3900 6340, 4100" stroke-width="10px" stroke="#000000"></polyline><polyline points="6260, 3900 6340, 3900" stroke-width="10px" stroke="#000000"></polyline><polyline points="6260, 4100 6260, 3900" stroke-width="10px" stroke="#000000"></polyline><polyline points="6300, 4200 6500, 4200" stroke-width="10px" stroke="#800000"></polyline><circle r="10" cx="6300" cy="4200" fill="#000000" stroke-width="10px" stroke="#000000"></circle><polyline points="6300, 4250 6300, 4200" stroke-width="10px" stroke="#800000"></polyline><text x="6379" y="4400" font-size="50.000000" text-anchor="start" transform="rotate(0 6379 4400)" fill="#000000">D1</text><polyline points="6300, 4450 6300, 4550" stroke-width="10px" stroke="#000000"></polyline><polyline points="6300, 4350 6300, 4250" stroke-width="10px" stroke="#000000"></polyline><polyline points="6300, 4350 6250, 4450" stroke-width="10px" stroke="#000000"></polyline><polyline points="6350, 4450 6300, 4350" stroke-width="10px" stroke="#000000"></polyline><polyline points="6250, 4450 6350, 4450" stroke-width="10px" stroke="#000000"></polyline><polyline points="6350, 4350 6350, 4370" stroke-width="10px" stroke="#000000"></polyline><polyline points="6250, 4350 6350, 4350" stroke-width="10px" stroke="#000000"></polyline><polyline points="6300, 4450 6300, 4350" stroke-width="10px" stroke="#000000"></polyline><text x="6450" y="4200" font-size="70.000000" text-anchor="start" transform="rotate(0 6450 4200)" fill="#FF0000">VOUT</text><text x="7693" y="7968" font-size="50.000000" text-anchor="start" transform="rotate(0 7693 7968)" fill="#000000">Page: 1 1</text><rect x="7593" y="7618" width="4000" height="400" fill="none" stroke-width="5px" stroke="#000000"></rect><rect x="7593" y="7918" width="4000" height="100" fill="none" stroke-width="5px" stroke="#000000"></rect><rect x="7593" y="8018" width="4000" height="150" fill="none" stroke-width="5px" stroke="#000000"></rect><rect x="100" y="100" width="11493" height="8068" fill="none" stroke-width="5px" stroke="#000000"></rect></svg>